<svg width="363" height="233" viewBox="0 0 363 233" fill="none" xmlns="http://www.w3.org/2000/svg">
<g clip-path="url(#clip0_17484_22582)">
<path d="M0 9C0 4.02944 4.02944 0 9 0H354C358.971 0 363 4.02944 363 9V233H0V9Z" fill="white"/>
<g clip-path="url(#clip1_17484_22582)">
<path d="M0 9C0 4.02944 4.02944 0 9 0H354C358.971 0 363 4.02944 363 9V233H0V9Z" fill="#FBECE4"/>
</g>
<path d="M301 75.3789C301 74.6227 301.602 74 302.366 74H319.634C320.383 74 321 74.6227 321 75.3789V99.6211C321 100.377 320.398 101 319.634 101H302.366C301.617 101 301 100.377 301 99.6211V75.3789Z" fill="#EDB275"/>
<path d="M156 27H165V29H156V27Z" fill="#FFC890"/>
<path d="M153.543 25.6087C153.543 24.7246 154.299 24 155.222 24H166.869C167.807 24 168.548 24.7246 168.548 25.6087C168.548 26.5072 167.792 27.2174 166.869 27.2174H155.222C154.299 27.2319 153.543 26.5072 153.543 25.6087ZM152 31.2899C152 30.0145 153.074 28.9855 154.405 28.9855H167.595C168.926 28.9855 170 30.0145 170 31.2899V46.6956C170 47.971 168.926 49 167.595 49H154.405C153.074 49 152 47.971 152 46.6956V31.2899Z" fill="white"/>
<path d="M263 65H331V67.4764H263V65ZM263 99.5236H331V102H263V99.5236Z" fill="#EDB275"/>
<path d="M269 36.6866C269 34.6516 270.677 33 272.743 33H293.257C295.323 33 297 34.6516 297 36.6866V61.3134C297 63.3484 295.323 65 293.257 65H272.743C270.677 65 269 63.3484 269 61.3134V36.6866Z" fill="#FFCF9D"/>
<path d="M275 30H289V33H275V30Z" fill="#DFA76E"/>
<path d="M271 28.5C271 27.1143 272.15 26 273.58 26H291.42C292.85 26 294 27.1143 294 28.5C294 29.8857 292.85 31 291.42 31H273.58C272.165 31 271 29.8857 271 28.5Z" fill="#FFCF9D"/>
<path d="M290 49.5C290 53.6394 286.639 57 282.5 57C278.361 57 275 53.6394 275 49.5C275 45.3606 278.361 42 282.5 42C286.639 42 290 45.3606 290 49.5Z" fill="#DFA76E"/>
<path d="M280.494 54.6883C282.221 55.6439 284.739 54.33 286.114 51.732C287.505 49.1489 287.227 46.2672 285.5 45.3117C283.773 44.3561 281.255 45.67 279.879 48.268C278.504 50.8511 278.767 53.7328 280.494 54.6883Z" fill="#FFCF9D"/>
<path d="M283 49C283 49 283.333 50.3577 282.773 51.4672C282.227 52.5766 281 53 281 53M283 49C283 49 282.667 47.6423 283.227 46.5328C283.773 45.4234 285 45 285 45L283 49Z" fill="#DFA76E"/>
<path d="M348.492 36.6994C337.476 25.5924 324.928 41.5024 323.335 43.979C319.167 50.433 315.549 48.6319 320.134 42.0277C322.858 38.0953 331.373 29.8251 343.58 28.144C358.838 26.0427 359.507 47.8063 348.492 36.6994Z" fill="#6A7B4E"/>
<path d="M329.772 28.2287C314.427 29.6346 318.506 49.0545 319.36 51.8078C321.599 58.984 317.946 60.6097 315.87 53.0087C314.633 48.4979 313.764 36.8987 320.214 26.603C328.27 13.759 345.117 26.8227 329.772 28.2287Z" fill="#6A7B4E"/>
<path d="M288.508 43.7013C299.524 32.5856 312.072 48.4995 313.665 50.9814C317.833 57.4342 321.451 55.6292 316.866 49.026C314.142 45.1001 305.627 36.8122 293.42 35.1426C278.162 33.0518 277.492 54.817 288.508 43.7013Z" fill="#6A7B4E"/>
<path d="M299.707 32.4432C314.853 30.8822 314.635 50.997 314.329 53.8961C313.542 61.4781 317.387 62.385 317.955 54.4164C318.29 49.6888 316.906 37.9737 308.663 28.9793C298.382 17.7548 284.561 34.0043 299.707 32.4432Z" fill="#6A7B4E"/>
<path fill-rule="evenodd" clip-rule="evenodd" d="M320.199 31.713C322.383 28.0938 325.468 25.6421 328.626 25L328.685 25.2919C325.645 25.9048 322.605 28.2981 320.45 31.8589C318.295 35.4197 317.041 40.1626 317.513 45.4163L317.218 45.4454C316.746 40.1188 318.03 35.3322 320.199 31.713ZM315.388 45.46C313.189 35.0111 306.311 29.4218 298.489 29.3051V29.0132C306.488 29.13 313.454 34.836 315.683 45.4017L315.388 45.46ZM344.801 31.4649C347.428 31.8589 349.642 33.041 351 35.1425L350.749 35.303C349.45 33.2891 347.325 32.1362 344.757 31.7568C342.189 31.3773 339.193 31.7714 336.168 32.8075C330.131 34.909 324.066 39.6227 321.276 46L321.011 45.8832C323.83 39.4183 329.984 34.6463 336.079 32.5302C339.119 31.4795 342.174 31.0709 344.801 31.4649ZM298.548 38.5719C303.478 39.6956 308.348 42.6873 311.565 45.6206L311.359 45.8395C308.156 42.9354 303.36 39.9729 298.475 38.8638C293.604 37.7547 288.69 38.4844 285.236 42.9062L285 42.7311C288.557 38.1633 293.604 37.4336 298.548 38.5719Z" fill="#90A46F"/>
<path d="M301 46.5C301 45.675 301.672 45 302.493 45H329.507C330.328 45 331 45.675 331 46.5V55.5C331 61.305 326.328 66 320.552 66H311.448C305.672 66 301 61.305 301 55.5V46.5Z" fill="#FFCF9D"/>
<path fill-rule="evenodd" clip-rule="evenodd" d="M317 66C307.301 63.255 303.425 53.91 305.326 45H302.497C301.674 45 301 45.675 301 46.5V55.5C301 61.305 305.685 66 311.477 66H317Z" fill="#FFC890"/>
<path d="M124 49H192V51.3358H124V49ZM126.37 51.3358V89H124V51.3358H126.37ZM192 51.3358V89H189.63V51.3358H192Z" fill="#EDB275"/>
<path d="M124 89H192V91H124V89Z" fill="#EDB275"/>
<path fill-rule="evenodd" clip-rule="evenodd" d="M161.5 85C163.979 85 166 82.9934 166 80.5C166 78.0213 163.993 76 161.5 76C159.021 76 157 78.0066 157 80.5C157 82.9934 159.021 85 161.5 85ZM161.5 83.141C162.961 83.141 164.141 81.9607 164.141 80.5C164.141 79.0393 162.961 77.859 161.5 77.859C160.039 77.859 158.859 79.0393 158.859 80.5C158.859 81.9607 160.039 83.141 161.5 83.141Z" fill="white"/>
<path fill-rule="evenodd" clip-rule="evenodd" d="M163.372 76.4887L165 81.7801C164.628 82.7574 163.936 83.5393 163.064 84C162.821 83.5532 162.603 82.9948 162.449 82.3805C163.192 81.9616 163.692 81.1239 163.692 80.1606C163.692 79.0017 162.974 78.0384 162 77.7452C162.038 77.103 162.115 76.5026 162.244 76C162.641 76.0977 163.026 76.2653 163.372 76.4887Z" fill="#ECECEC"/>
<path d="M163 74H183V80.3913C183 84.5913 179.699 88 175.631 88H170.369C166.301 88 163 84.5913 163 80.3913V74Z" fill="white"/>
<path d="M183 74C183 74.5536 178.523 75 173 75C167.477 75 163 74.5536 163 74C163 73.4464 167.477 73 173 73C178.523 73 183 73.4464 183 74Z" fill="#ECECEC"/>
<path d="M163 87.5C163 87.22 163.326 87 163.741 87H182.259C182.674 87 183 87.22 183 87.5C183 87.78 182.674 88 182.259 88H163.741C163.341 88 163 87.78 163 87.5Z" fill="white"/>
<path fill-rule="evenodd" clip-rule="evenodd" d="M134.5 85C136.979 85 139 82.9934 139 80.5C139 78.0213 136.993 76 134.5 76C132.021 76 130 78.0066 130 80.5C130 82.9934 132.021 85 134.5 85ZM134.5 83.141C135.961 83.141 137.141 81.9607 137.141 80.5C137.141 79.0393 135.961 77.859 134.5 77.859C133.039 77.859 131.859 79.0393 131.859 80.5C131.859 81.9607 133.039 83.141 134.5 83.141Z" fill="white"/>
<path fill-rule="evenodd" clip-rule="evenodd" d="M137.372 76.4887L139 81.7801C138.628 82.7574 137.936 83.5393 137.064 84C136.821 83.5532 136.603 82.9948 136.449 82.3805C137.179 81.9616 137.692 81.1239 137.692 80.1606C137.692 79.0017 136.974 78.0384 136 77.7452C136.038 77.103 136.115 76.5026 136.244 76C136.641 76.0977 137.026 76.2653 137.372 76.4887Z" fill="#ECECEC"/>
<path d="M136 74H156V80.3913C156 84.5913 152.701 88 148.636 88H143.364C139.299 88 136 84.5913 136 80.3913V74Z" fill="white"/>
<path d="M156 74C156 74.5536 151.523 75 146 75C140.477 75 136 74.5536 136 74C136 73.4464 140.477 73 146 73C151.523 73 156 73.4464 156 74Z" fill="#ECECEC"/>
<path d="M136 87.5C136 87.22 136.326 87 136.741 87H155.259C155.674 87 156 87.22 156 87.5C156 87.78 155.674 88 155.259 88H136.741C136.341 88 136 87.78 136 87.5Z" fill="white"/>
<path fill-rule="evenodd" clip-rule="evenodd" d="M133.769 72.9407C136.222 73.3397 138.542 71.6846 138.941 69.2315C139.34 66.7784 137.685 64.4583 135.231 64.0593C132.778 63.6603 130.458 65.3154 130.059 67.7685C129.66 70.2216 131.315 72.5417 133.769 72.9407ZM134.064 71.1082C135.512 71.3447 136.857 70.3694 137.093 68.9359C137.33 67.5025 136.355 66.143 134.921 65.9065C133.488 65.6701 132.128 66.6454 131.892 68.0788C131.655 69.5123 132.631 70.8718 134.064 71.1082Z" fill="white"/>
<path fill-rule="evenodd" clip-rule="evenodd" d="M138.059 65.6806L139 71.1667C138.412 72.0556 137.5 72.7083 136.426 73C136.221 72.5139 136.088 71.9306 136 71.2917C136.912 71.0139 137.618 70.2778 137.779 69.3333C137.971 68.1945 137.324 67.125 136.265 66.6667C136.412 66.0417 136.603 65.4722 136.838 65C137.294 65.1667 137.706 65.4028 138.059 65.6806Z" fill="#ECECEC"/>
<path d="M137.11 62L157 65.3405L155.99 71.6418C155.321 75.7718 151.504 78.5809 147.464 77.8976L142.22 77.0169C138.18 76.3337 135.432 72.4314 136.1 68.2862L137.11 62Z" fill="white"/>
<path d="M156.999 65.7847C156.924 66.2854 152.388 65.8816 146.866 64.8964C141.344 63.9112 136.926 62.716 137.001 62.2153C137.076 61.7146 141.612 62.1184 147.134 63.1036C152.656 64.0888 157.074 65.284 156.999 65.7847Z" fill="#ECECEC"/>
<path fill-rule="evenodd" clip-rule="evenodd" d="M146.5 141C148.979 141 151 138.993 151 136.5C151 134.021 148.993 132 146.5 132C144.021 132 142 134.007 142 136.5C142 138.993 144.021 141 146.5 141ZM146.5 139.141C147.961 139.141 149.141 137.961 149.141 136.5C149.141 135.039 147.961 133.859 146.5 133.859C145.039 133.859 143.859 135.039 143.859 136.5C143.859 137.961 145.039 139.141 146.5 139.141Z" fill="#F8C794"/>
<path fill-rule="evenodd" clip-rule="evenodd" d="M148.372 132.489L150 137.78C149.628 138.757 148.936 139.539 148.064 140C147.821 139.553 147.603 138.995 147.449 138.38C148.192 137.962 148.692 137.124 148.692 136.161C148.692 135.002 147.974 134.038 147 133.745C147.038 133.103 147.115 132.503 147.244 132C147.641 132.098 148.026 132.265 148.372 132.489Z" fill="#F8C794"/>
<path d="M148 130H168V136.391C168 140.591 164.699 144 160.631 144H155.369C151.301 144 148 140.591 148 136.391V130Z" fill="#F8C794"/>
<path d="M168 130.837C168 131.301 163.523 131.675 158 131.675C152.477 131.675 148 131.301 148 130.837C148 130.374 152.477 130 158 130C163.523 130 168 130.374 168 130.837ZM148.044 145.252C148.044 144.834 148.368 144.505 148.781 144.505H167.19C167.602 144.505 167.926 144.834 167.926 145.252C167.926 145.671 167.602 146 167.19 146H148.781C148.383 146 148.044 145.671 148.044 145.252Z" fill="#F8C794"/>
<path fill-rule="evenodd" clip-rule="evenodd" d="M271.5 96C273.979 96 276 93.9934 276 91.5C276 89.0213 273.993 87 271.5 87C269.007 87 267 89.0066 267 91.5C267 93.9934 269.021 96 271.5 96ZM271.5 94.141C272.961 94.141 274.141 92.9607 274.141 91.5C274.141 90.0393 272.961 88.859 271.5 88.859C270.039 88.859 268.859 90.0393 268.859 91.5C268.859 92.9607 270.039 94.141 271.5 94.141Z" fill="#F8C794"/>
<path fill-rule="evenodd" clip-rule="evenodd" d="M273.379 88.4887L275 93.7801C274.63 94.7574 273.94 95.5393 273.072 96C272.83 95.5532 272.613 94.9948 272.447 94.3805C273.187 93.9616 273.685 93.1239 273.685 92.1606C273.685 91.0017 272.97 90.0384 272 89.7452C272.038 89.103 272.115 88.5026 272.243 88C272.651 88.0977 273.034 88.2653 273.379 88.4887Z" fill="#F8C794"/>
<path d="M273 85H293V91.3913C293 95.5913 289.699 99 285.631 99H280.369C276.301 99 273 95.5913 273 91.3913V85Z" fill="#F8C794"/>
<path d="M293 85.8374C293 86.3009 288.523 86.6748 283 86.6748C277.477 86.6748 273 86.3009 273 85.8374C273 85.3738 277.477 85 283 85C288.523 85 293 85.3738 293 85.8374ZM273.044 100.252C273.044 99.8336 273.368 99.5047 273.781 99.5047H292.19C292.602 99.5047 292.926 99.8336 292.926 100.252C292.926 100.671 292.602 101 292.19 101H273.781C273.383 101 273.044 100.671 273.044 100.252Z" fill="#F8C794"/>
<path d="M132 31.3027C132 30.0282 133.074 29 134.405 29H147.595C148.926 29 150 30.0282 150 31.3027V46.6973C150 47.9718 148.926 49 147.595 49H134.405C133.074 49 132 47.9718 132 46.6973V31.3027Z" fill="#FFCF9D"/>
<path d="M137 27H146V29H137V27Z" fill="#FFC890"/>
<path d="M133.543 25.6087C133.543 24.7246 134.299 24 135.222 24H146.869C147.807 24 148.548 24.7246 148.548 25.6087C148.548 26.5072 147.792 27.2174 146.869 27.2174H135.222C134.299 27.2319 133.543 26.5072 133.543 25.6087ZM132 31.2899C132 30.0145 133.074 28.9855 134.405 28.9855H147.595C148.926 28.9855 150 30.0145 150 31.2899V46.6956C150 47.971 148.926 49 147.595 49H134.405C133.074 49 132 47.971 132 46.6956V31.2899Z" fill="white"/>
<path d="M121 127.303C121 126.028 122.074 125 123.405 125H136.595C137.926 125 139 126.028 139 127.303V142.697C139 143.972 137.926 145 136.595 145H123.405C122.074 145 121 143.972 121 142.697V127.303Z" fill="#F8C794"/>
<path d="M125 123H134V125H125V123Z" fill="#F8C794"/>
<path d="M122.543 121.609C122.543 120.71 123.299 120 124.222 120H135.869C136.807 120 137.548 120.725 137.548 121.609C137.548 122.507 136.792 123.217 135.869 123.217H124.222C123.299 123.232 122.543 122.507 122.543 121.609ZM121 127.29C121 126.014 122.074 124.986 123.405 124.986H136.595C137.926 124.986 139 126.014 139 127.29V142.696C139 143.971 137.926 145 136.595 145H123.405C122.074 145 121 143.971 121 142.696V127.29Z" fill="#F8C794"/>
<path d="M-29 149C-29 147.343 -27.6106 146 -25.896 146H338.896C340.611 146 342 147.343 342 149C342 150.657 340.611 152 338.896 152H-25.896C-27.6106 152 -29 150.657 -29 149Z" fill="#293C73"/>
<path d="M-3 96H82V139H-3V96Z" fill="#EDB275"/>
<path d="M-8 127.583C-8 127.171 -7.67582 126.847 -7.26322 126.847H86.2632C86.6758 126.847 87 127.171 87 127.583V138.595C87 139.007 86.6758 139.331 86.2632 139.331H-7.26322C-7.67582 139.331 -8 139.007 -8 138.595V127.583ZM-8 78.7361C-8 78.3239 -7.67582 78 -7.26322 78H86.2632C86.6758 78 87 78.3239 87 78.7361V98.3603C87 98.7725 86.6758 99.0963 86.2632 99.0963H-7.26322C-7.67582 99.0963 -8 98.7725 -8 98.3603V78.7361ZM2.77168 139.331H12.2466V146H2.77168V139.331Z" fill="#FFC890"/>
<path d="M67.4114 139.188H77V146H67.4114V139.188ZM60 133.218C60 132.391 60.6711 131.714 61.4912 131.714H75.5088C76.3289 131.714 77 132.391 77 133.218V133.729C77 134.556 76.3289 135.233 75.5088 135.233H61.4912C60.6711 135.233 60 134.556 60 133.729V133.218ZM60 127.504C60 126.677 60.6711 126 61.4912 126H75.5088C76.3289 126 77 126.677 77 127.504V128.015C77 128.842 76.3289 129.519 75.5088 129.519H61.4912C60.6711 129.519 60 128.842 60 128.015V127.504Z" fill="#A87D52"/>
<path d="M39 -50H42V43H39V-50Z" fill="#FFCF9D"/>
<path d="M39 -19.9948L42.0407 -21L61 34.9948L57.9743 36L39 -19.9948Z" fill="#FFCF9D"/>
<path d="M38.9946 -20L42 -19.0021L23.0202 37L20 36.0021L38.9946 -20Z" fill="#FFCF9D"/>
<path d="M19 35H62V39.5057C62 51.383 52.3804 61 40.5 61C28.6196 61 19 51.383 19 39.5057V35Z" fill="white"/>
<path d="M62 35C62 35.5571 52.3804 36 40.5 36C28.6196 36 19 35.5571 19 35C19 34.4429 28.6196 34 40.5 34C52.3804 34 62 34.4429 62 35Z" fill="#FFC890"/>
<path fill-rule="evenodd" clip-rule="evenodd" d="M61.2006 36.3422C60.7602 35.3321 60.1878 34.8783 59.5126 34.8783V34C60.7015 34 61.4941 34.8344 62.0079 35.9909C62.507 37.1473 62.7858 38.7283 62.9179 40.5143C63.1675 44.0861 62.8152 48.6241 62.3015 52.5181L61.4354 52.4009C61.9492 48.5363 62.2868 44.0715 62.0519 40.5728C61.9198 38.8162 61.6556 37.3523 61.2006 36.3422ZM20.3211 35.6103C20.6587 34.9515 21.1137 34.3952 21.7595 34.2342L21.9651 35.0833C21.7008 35.1418 21.3926 35.4053 21.099 35.9909C20.8054 36.5618 20.5706 37.3669 20.3945 38.3331C20.0275 40.2654 19.8807 42.7833 19.8807 45.2572H19C19 42.754 19.1468 40.1776 19.5284 38.1721C19.7339 37.1766 19.9835 36.2837 20.3211 35.6103ZM24.6512 111V34.6587H25.5319V111H24.6512ZM33.972 88.0171V34.6587H34.8527V88.0171H33.972ZM40.0636 51.7129V34.6587H40.9443V51.7129H40.0636ZM47.3294 72.7928V34.6587H48.2101V72.7928H47.3294ZM56.8704 81.0637V34.6587H57.7511V81.0637H56.8704Z" fill="#6A7B4E"/>
<path d="M49.3569 41.0983C49.3569 41.8624 48.7357 42.4943 47.9518 42.4943C47.1678 42.4943 46.5466 41.8771 46.5466 41.0983C46.5466 40.3195 47.1678 39.7023 47.9518 39.7023C48.7357 39.7023 49.3569 40.3195 49.3569 41.0983ZM58.9711 46.5353C58.9711 47.2994 58.3498 47.9313 57.5659 47.9313C56.782 47.9313 56.1608 47.3141 56.1608 46.5353C56.1608 45.7565 56.782 45.1393 57.5659 45.1393C58.3498 45.1393 58.9711 45.7565 58.9711 46.5353ZM64 37.4246C64 38.1887 63.3788 38.8206 62.5949 38.8206C61.8109 38.8206 61.1897 38.2034 61.1897 37.4246C61.1897 36.6458 61.8109 36.0286 62.5949 36.0286C63.3788 36.0286 64 36.6458 64 37.4246ZM64 45.3597C64 46.1239 63.3788 46.7557 62.5949 46.7557C61.8109 46.7557 61.1897 46.1385 61.1897 45.3597C61.1897 44.5809 61.8109 43.9637 62.5949 43.9637C63.3788 43.9637 64 44.5809 64 45.3597ZM26.5788 110.604C26.5788 111.368 25.9576 112 25.1736 112C24.4045 112 23.7685 111.383 23.7685 110.604C23.7685 109.825 24.4045 109.208 25.1736 109.208C25.9576 109.208 26.5788 109.825 26.5788 110.604ZM21.6977 36.396C21.6977 37.1601 21.0617 37.792 20.2926 37.792C19.5235 37.792 18.8875 37.1748 18.8875 36.396C18.8875 35.6172 19.5235 35 20.2926 35C21.0617 35 21.6977 35.6172 21.6977 36.396ZM20.8103 44.4781C20.8103 45.2422 20.1743 45.874 19.4051 45.874C18.636 45.874 18 45.2569 18 44.4781C18 43.6992 18.636 43.0821 19.4051 43.0821C20.1743 43.0821 20.8103 43.6992 20.8103 44.4781ZM58.9711 59.0258C58.9711 59.7899 58.3498 60.4218 57.5659 60.4218C56.782 60.4218 56.1608 59.8046 56.1608 59.0258C56.1608 58.2469 56.782 57.6298 57.5659 57.6298C58.3498 57.6298 58.9711 58.2469 58.9711 59.0258ZM58.9711 71.5162C58.9711 72.2803 58.3498 72.9122 57.5659 72.9122C56.782 72.9122 56.1608 72.295 56.1608 71.5162C56.1608 70.7374 56.782 70.1202 57.5659 70.1202C58.3498 70.1202 58.9711 70.7374 58.9711 71.5162ZM42.1093 42.5677C42.1093 43.3319 41.4881 43.9637 40.7042 43.9637C39.9203 43.9637 39.299 43.3466 39.299 42.5677C39.299 41.7889 39.9203 41.1718 40.7042 41.1718C41.4881 41.1718 42.1093 41.7889 42.1093 42.5677ZM35.8971 39.6288C35.8971 40.3929 35.2759 41.0248 34.492 41.0248C33.708 41.0248 33.0868 40.4076 33.0868 39.6288C33.0868 38.85 33.708 38.2328 34.492 38.2328C35.2759 38.2328 35.8971 38.85 35.8971 39.6288ZM35.8971 49.3273C35.8971 50.0914 35.2759 50.7233 34.492 50.7233C33.708 50.7233 33.0868 50.1061 33.0868 49.3273C33.0868 48.5485 33.708 47.9313 34.492 47.9313C35.2759 47.9313 35.8971 48.5485 35.8971 49.3273ZM35.8971 63.5811C35.8971 64.3452 35.2759 64.9771 34.492 64.9771C33.708 64.9771 33.0868 64.3599 33.0868 63.5811C33.0868 62.8023 33.708 62.1851 34.492 62.1851C35.2759 62.1851 35.8971 62.8023 35.8971 63.5811ZM35.8971 75.6307C35.8971 76.3948 35.2759 77.0267 34.492 77.0267C33.708 77.0267 33.0868 76.4095 33.0868 75.6307C33.0868 74.8519 33.708 74.2347 34.492 74.2347C35.2759 74.2347 35.8971 74.8519 35.8971 75.6307ZM35.8971 85.6231C35.8971 86.3872 35.2759 87.0191 34.492 87.0191C33.708 87.0191 33.0868 86.4019 33.0868 85.6231C33.0868 84.8443 33.708 84.2271 34.492 84.2271C35.2759 84.2271 35.8971 84.8443 35.8971 85.6231ZM26.5788 43.8903C26.5788 44.6544 25.9576 45.2863 25.1736 45.2863C24.4045 45.2863 23.7685 44.6691 23.7685 43.8903C23.7685 43.1115 24.4045 42.4943 25.1736 42.4943C25.9576 42.4943 26.5788 43.1115 26.5788 43.8903ZM26.5788 54.4704C26.5788 55.2345 25.9576 55.8664 25.1736 55.8664C24.4045 55.8664 23.7685 55.2492 23.7685 54.4704C23.7685 53.6916 24.4045 53.0744 25.1736 53.0744C25.9576 53.0744 26.5788 53.6916 26.5788 54.4704ZM26.5788 65.6384C26.5788 66.4025 25.9576 67.0344 25.1736 67.0344C24.4045 67.0344 23.7685 66.4172 23.7685 65.6384C23.7685 64.8595 24.4045 64.2424 25.1736 64.2424C25.9576 64.2424 26.5788 64.8595 26.5788 65.6384ZM26.5788 76.2185C26.5788 76.9826 25.9576 77.6145 25.1736 77.6145C24.4045 77.6145 23.7685 76.9973 23.7685 76.2185C23.7685 75.4397 24.4045 74.8225 25.1736 74.8225C25.9576 74.8225 26.5788 75.4397 26.5788 76.2185ZM26.5788 86.7987C26.5788 87.5628 25.9576 88.1947 25.1736 88.1947C24.4045 88.1947 23.7685 87.5775 23.7685 86.7987C23.7685 86.0198 24.4045 85.4027 25.1736 85.4027C25.9576 85.4027 26.5788 86.0198 26.5788 86.7987ZM26.5788 98.9952C26.5788 99.7594 25.9576 100.391 25.1736 100.391C24.4045 100.391 23.7685 99.774 23.7685 98.9952C23.7685 98.2164 24.4045 97.5992 25.1736 97.5992C25.9576 97.5992 26.5788 98.2164 26.5788 98.9952ZM49.3569 52.1193C49.3569 52.8834 48.7357 53.5153 47.9518 53.5153C47.1678 53.5153 46.5466 52.8981 46.5466 52.1193C46.5466 51.3405 47.1678 50.7233 47.9518 50.7233C48.7357 50.7233 49.3569 51.3405 49.3569 52.1193ZM49.3569 64.1689C49.3569 64.933 48.7357 65.5649 47.9518 65.5649C47.1678 65.5649 46.5466 64.9477 46.5466 64.1689C46.5466 63.3901 47.1678 62.7729 47.9518 62.7729C48.7357 62.7729 49.3569 63.3901 49.3569 64.1689Z" fill="#90A46F"/>
<path d="M-4 150H321V310H-4V150Z" fill="#293C73"/>
<path d="M324.626 222.748C324.831 222.165 325.46 221.859 326.03 222.063L328.751 222.996C329.322 223.2 329.644 223.826 329.439 224.395L321.876 246.237C321.671 246.82 321.042 247.126 320.472 246.922L317.751 245.99C317.166 245.786 316.859 245.159 317.063 244.591L324.626 222.748ZM339.751 224.963C339.547 224.38 339.854 223.754 340.439 223.564L343.16 222.632C343.745 222.428 344.374 222.734 344.564 223.316L351.937 244.605C352.141 245.188 351.834 245.815 351.249 246.004L348.528 246.937C347.943 247.141 347.314 246.835 347.124 246.252L339.751 224.963Z" fill="#EDB275"/>
<path d="M335.076 168.1C337.792 173.084 333.846 195.993 331.894 207L325.63 206.047C326.28 198.675 325.573 188.019 325.262 183.988C324.074 168.408 327.03 152.359 332.036 132C332.559 135.166 331.711 144.854 332.46 146.804C334.157 151.245 331.682 161.871 335.076 168.1Z" fill="#67784A"/>
<path d="M333.435 172.316C335.106 176.264 332.688 199.072 331.119 208L327 207.396C327.616 201.429 327.41 192.839 327.308 189.598C326.912 177.06 326.927 161.56 330.738 145C331.002 147.534 331.192 153.206 331.632 154.753C332.658 158.304 331.354 167.365 333.435 172.316Z" fill="#67784A"/>
<path d="M337.746 131.084C334.223 136.994 334.946 167.402 335.344 182H341.947C342.345 172.322 344.645 158.685 345.558 153.558C349.067 133.64 348.359 112.305 346.163 85C345.161 88.9746 344.615 101.681 343.569 104.06C341.151 109.468 342.154 123.682 337.746 131.084Z" fill="#90A46F"/>
<path d="M338.928 136.632C336.703 141.406 335.79 171.205 336.04 183H340.224C340.474 175.196 341.933 164.199 342.507 160.045C344.732 143.978 346.956 124.039 345.571 102C344.938 105.207 343.936 112.465 343.259 114.387C341.741 118.747 341.712 130.66 338.928 136.632Z" fill="#90A46F"/>
<path d="M332 222.139C332 221.51 332.482 221 333.076 221H335.924C336.518 221 337 221.51 337 222.139V240.861C337 241.49 336.518 242 335.924 242H333.076C332.482 242 332 241.49 332 240.861V222.139Z" fill="#EDB275"/>
<path d="M324.985 143.583C332.747 168.148 334.831 184.49 327.328 182.892H320.888C320.5 175.424 318.258 164.894 317.381 160.931C313.96 145.565 314.65 129.089 316.792 108C317.769 111.076 318.301 120.881 319.321 122.715C321.664 126.886 322.814 136.721 324.985 143.583Z" fill="#90A46F"/>
<path d="M324.098 147.688C326.33 151.363 327.247 174.317 326.995 183.395H322.797C322.545 177.387 321.082 168.899 320.505 165.711C318.273 153.341 316.04 137.975 317.43 121C318.066 123.48 319.071 129.059 319.751 130.55C321.289 133.916 321.303 143.082 324.098 147.688ZM343.731 154.389C340.197 158.301 340.922 178.361 341.321 188H347.944C348.343 181.609 350.649 172.619 351.551 169.224C355.07 156.072 354.36 141.99 352.157 123.967C351.152 126.594 350.605 134.979 349.541 136.543C347.146 140.115 348.151 149.503 343.731 154.389Z" fill="#90A46F"/>
<path d="M344.928 157.664C342.703 160.783 341.79 180.299 342.04 188H346.224C346.474 182.89 347.933 175.687 348.507 172.978C350.732 162.466 352.956 149.421 351.571 135C350.938 137.108 349.936 141.852 349.259 143.111C347.741 145.966 347.712 153.755 344.928 157.664Z" fill="#90A46F"/>
<path d="M312 183.321C312 181.478 313.521 180 315.385 180H354.615C356.494 180 358 181.492 358 183.321V205.821C358 218.066 347.876 228 335.395 228H334.605C322.124 228 312 218.066 312 205.821V183.321Z" fill="white"/>
<path d="M47.5228 62.0557C42.1306 67.5489 46.6043 72.9234 49.6411 81L87.2974 73.5024C90.8082 65.411 92.3933 61.2688 89.4898 59.7841C93.3414 51.6036 80.6757 42.3394 69.7581 43.0371C57.3146 43.824 44.1897 52.6875 47.5228 62.0557Z" fill="#631112"/>
<path d="M118.469 198.028C116.533 199.364 110.117 199.037 107.145 198.71L99 167.34L112.512 164L114.626 185.215L146.468 191.198C150.77 193.173 144.812 197.256 143.216 195.593C141.131 197.76 140.185 197.508 138.618 196.35C135.676 198.621 134.538 198.161 132.587 196.35C130.355 198.636 129.349 198.131 127.679 196.127C125.417 196.201 120.406 196.691 118.469 198.028Z" fill="#FFC0AE"/>
<path d="M80.1497 106.368C79.2294 102.033 60.4527 104.649 59.384 106.368L56.8904 113.641C54.9904 112.289 40.83 124.22 37.4903 130.596C35.7388 133.961 29.4305 157.793 29 177.922C29 179.348 44.0807 187.017 53.9959 190C79.6005 182.492 94.5773 175.513 115.966 162.333C116.115 161.804 115.818 160.614 114.155 161.202C112.419 161.834 113.473 159.777 112.79 156.559C112.018 152.9 107.016 138.472 105.739 136.356C99.0599 125.263 93.7015 116.77 83.8456 113.053C82.584 112.553 80.4465 107.719 80.1497 106.368Z" fill="#FD7350"/>
<path d="M62.2161 109.35C63.5418 106.821 63.4409 101.43 62 98L76.1931 102.607C75.1556 107.359 74.7666 109.786 77 110.687V110.702C76.2363 114.349 75.4582 118.041 74.5792 119C72.9654 117.736 67.4467 114.989 62.2161 109.35Z" fill="#FFC0AE"/>
<path fill-rule="evenodd" clip-rule="evenodd" d="M76.4365 105.444C72.3096 106.825 66.2183 105.955 62.4112 99.1257C62.2893 98.7354 62.1523 98.3602 62 98L77 102.758C76.7868 103.748 76.5888 104.649 76.4365 105.444Z" fill="#E8A08B"/>
<path d="M54.6959 69.896C57.0929 67.5761 57.5899 65.9211 57.6045 62.5817C58.803 61.8281 84.5715 61.0745 85.96 61.0006C87.3047 60.9267 86.7785 67.8569 86.7785 71.7135C91.178 96.0798 82.9783 104 73.5801 104C68.1282 104 54.5058 97.1142 54.5497 89.2236C43.9529 90.7308 48.2062 73.4571 53.4242 79.5746L55.5144 77.0035L54.6959 69.896Z" fill="#FFC0AE"/>
<path d="M80.2568 70.5412C79.8541 71.5048 83.0311 69.1789 85 72.485C85 68.3316 81.2413 68.1655 80.2568 70.5412ZM69.6965 70.7074C69.9948 71.9866 66.415 69.6109 62 73C63.2231 68.6639 69.0104 67.8166 69.6965 70.7074Z" fill="#5F362D"/>
<path d="M50.9588 183.085C50.4377 185.123 45.122 185.612 39.062 184.176C33.0019 182.754 28.5201 179.94 29.0412 177.915C29.5623 175.877 34.878 175.388 40.938 176.824C46.9981 178.26 51.4799 181.06 50.9588 183.085Z" fill="#FF633B"/>
<path d="M42.9686 206.63L53.2126 189.347C53.6735 187.618 53.0639 183.611 53.5991 182.931C54.1938 182.177 55.4428 181.039 53.6735 179.915C52.9449 179.442 55.7104 177.653 55.3387 176.825C54.3574 174.637 56.097 170.409 55.3387 164.983C55.0859 163.18 56.0077 153.363 57.1526 153.141C57.6878 153.038 48.9752 117.571 49.5699 117.068C49.8375 115.812 54.4169 112.84 55.7996 113.151C56.6619 113.18 61.1818 150.273 62.401 149.83C69.5673 149.312 84.0338 146.74 93.5939 148.765C95.2591 149.12 86.1599 115.191 84.6434 113.151C84.004 112.293 90.6351 115.353 91.3934 115.871C92.7613 116.802 99.4964 147.272 98.4557 149.371C99.8533 150.465 101.533 150.806 102.173 152.313C103.526 155.462 103.392 161.509 103.392 165.22L107.034 200.391C109.012 206.807 110.38 236.922 106.663 242.954C100.849 252.386 49.3618 251.632 44.1283 244.921C41.7345 229.841 41.3777 221.473 42.9686 206.63Z" fill="#212121"/>
<path d="M164 186.015C164.074 189.283 146.234 192.382 124.141 192.916C102.048 193.466 84.0743 191.252 84.0002 187.985C83.9261 184.717 101.766 181.618 123.859 181.084C145.952 180.534 163.926 182.748 164 186.015Z" fill="#E1E1E1"/>
<path d="M153 186.764C153.059 189.212 139.899 191.537 123.604 191.94C107.308 192.343 94.0593 190.685 94.0002 188.236C93.9411 185.788 107.101 183.463 123.396 183.06C139.677 182.657 152.941 184.316 153 186.764Z" fill="#E1E1E1"/>
<path fill-rule="evenodd" clip-rule="evenodd" d="M77.6429 79.6306C77.4503 77.9176 77.7022 75.7763 78.8732 73L79.4216 73.2363C78.2803 75.9387 78.0431 77.9619 78.2358 79.5567C78.4137 81.1516 79.0362 82.333 79.6291 83.3372C79.7477 83.5292 79.8662 83.7064 79.97 83.8984C80.1478 84.1937 80.3257 84.4743 80.4739 84.7401C80.7259 85.1831 80.9186 85.6114 80.9779 86.0692C81.1113 87.0291 80.6518 87.9151 79.3178 88.9636L78.9473 88.5058C80.222 87.5164 80.4888 86.8075 80.385 86.1578C80.3405 85.8181 80.1775 85.4489 79.9403 85.0355C79.7921 84.7844 79.6291 84.5186 79.4512 84.238C79.3326 84.0608 79.2141 83.8688 79.0955 83.6621C78.5026 82.6284 77.8504 81.3584 77.6429 79.6306ZM51.6749 80.5166C51.3192 80.5757 50.9041 80.871 50.5336 81.6833L50 81.4322C50.415 80.5462 50.9486 80.0293 51.6008 79.9259C52.2381 79.8226 52.8458 80.177 53.3498 80.7086C54.3576 81.7866 55.1432 83.8393 55.2618 86.0692C55.2766 86.3202 55.2025 86.527 55.0839 86.6894C54.9654 86.8371 54.832 86.9257 54.743 86.9847H54.7282C54.6837 87.0143 54.6393 87.029 54.6244 87.0586C54.6244 87.0733 54.6245 87.0734 54.6393 87.0881C54.7579 87.3096 54.8023 87.5459 54.7578 87.7527C54.6986 87.9889 54.5355 88.1514 54.328 88.2252C54.1353 88.299 53.8833 88.3138 53.6462 88.2695C53.3942 88.2252 53.1126 88.1366 52.8162 88.0037L53.0681 87.4721C53.3349 87.5902 53.5573 87.6641 53.75 87.6936C53.9426 87.7231 54.0612 87.7084 54.1205 87.6788C54.1798 87.6641 54.1798 87.6345 54.1798 87.6198C54.1798 87.5902 54.1798 87.5016 54.1057 87.3392C54.0019 87.1472 53.9871 86.9257 54.1057 86.7485C54.1501 86.6746 54.2243 86.6156 54.2687 86.5713C54.3132 86.5417 54.3725 86.4974 54.4169 86.4679H54.4318C54.5355 86.4088 54.5948 86.3645 54.6244 86.3202C54.6541 86.2759 54.6837 86.2168 54.6837 86.0987C54.5652 83.9574 53.8092 82.0524 52.9199 81.1073C52.4456 80.6495 52.0306 80.4723 51.6749 80.5166ZM73.0778 94.3537C74.7971 94.5014 76.5016 94.3537 77.7763 93.955L77.9542 94.5161C76.5906 94.9444 74.8119 95.0921 73.0333 94.9444C71.2547 94.7967 69.4464 94.3242 68.0383 93.512L68.3347 93.0099C69.6539 93.763 71.3584 94.206 73.0778 94.3537Z" fill="#E8A08B"/>
<path d="M55 85.0002C55 85.5607 54.549 86 54 86C53.451 86 53 85.5455 53 85.0002C53 84.4397 53.451 84.0004 54 84.0004C54.549 83.9852 55 84.4397 55 85.0002Z" fill="#E8A08B"/>
<path d="M84 76.433C84 77.2232 83.5455 77.8661 83 77.8661C82.4394 77.8661 82 77.2232 82 76.433C82 75.6429 82.4545 75 83 75C83.5455 75 84 75.6429 84 76.433ZM69 76.567C69 77.3572 68.5455 78 68 78C67.4394 78 67 77.3572 67 76.567C67 75.7768 67.4546 75.1339 68 75.1339C68.5455 75.1339 69 75.7768 69 76.567Z" fill="#5F362D"/>
<path d="M76.9964 88.7258C76.9352 88.9652 76.4453 89.07 75.8941 88.9503C75.343 88.8305 74.945 88.5313 75.0062 88.2769C75.0675 88.0225 75.5573 87.9327 76.1085 88.0524C76.6443 88.1871 77.0423 88.4864 76.9964 88.7258Z" fill="#E8A08B"/>
<path d="M134.911 186.611C134.78 187.369 129.352 188 122.499 188C115.646 188 110.378 187.258 110.087 186.611C110.029 186.469 109.854 185.396 110.262 185.254C111.906 184.702 117.013 185.222 122.499 185.222C127.781 185.222 132.859 184.986 134.663 185.506C135.202 185.664 134.94 186.453 134.911 186.611Z" fill="white"/>
<path d="M136 186C136 186.548 130.402 187 123.5 187C116.598 187 111 186.56 111 186C111 185.452 116.598 185 123.5 185C130.402 185 136 185.452 136 186Z" fill="white"/>
<path d="M131 185.5C131 186.335 126.525 187 121 187C115.475 187 111 186.335 111 185.5C111 184.68 115.475 184 121 184C126.525 184 131 184.665 131 185.5Z" fill="#ECECEC"/>
<path fill-rule="evenodd" clip-rule="evenodd" d="M108 182C111.304 182 114 179.319 114 176C114 172.696 111.319 170 108 170C104.696 170 102 172.681 102 176C102 179.319 104.696 182 108 182ZM108 179.526C109.941 179.526 111.526 177.956 111.526 176.015C111.526 174.074 109.956 172.489 108 172.489C106.059 172.489 104.474 174.059 104.474 176.015C104.489 177.956 106.059 179.526 108 179.526Z" fill="white"/>
<path fill-rule="evenodd" clip-rule="evenodd" d="M111.292 170.665L114 177.95C113.391 179.294 112.237 180.378 110.795 181C110.378 180.378 110.042 179.612 109.769 178.76C110.987 178.181 111.821 177.039 111.821 175.71C111.821 174.12 110.619 172.79 109 172.399C109.064 171.518 109.192 170.694 109.401 170C110.074 170.13 110.715 170.347 111.292 170.665Z" fill="#ECECEC"/>
<path d="M110 168H137V175.689C137 181.39 132.313 186 126.517 186H120.483C114.687 186 110 181.39 110 175.689V168Z" fill="white"/>
<path d="M137 168C137 168.547 130.95 169 123.507 169C116.05 169 110 168.56 110 168C110 167.44 116.05 167 123.507 167C130.965 167 137 167.44 137 168Z" fill="#744332"/>
<path d="M442 313H-96L95.0247 197H273.201L442 313Z" fill="#FFDAB4"/>
<path d="M192.703 127.203C190.003 130.826 186.62 145.303 183 158.345C215.254 186.1 235.684 200.71 285 188.851C279.585 165.043 272.078 129.732 269.155 127.41C263.606 122.989 249.155 117.251 236.322 110.745L230.565 109L218.607 110.168C208.489 116.822 196.071 122.693 192.703 127.203Z" fill="white"/>
<path d="M283.209 185.669C286.509 190.244 284.874 196.231 281.341 197.32L249.672 207C249.044 201.101 247.642 189.14 247 188.493C252.84 189.288 262.885 183.359 264.594 182.064C272.887 175.768 279.34 180.284 283.209 185.669Z" fill="#FFC0AE"/>
<path d="M243.259 159.677L174.564 158L173 159.083L179.21 205.151L250 208L243.259 159.677Z" fill="#212121"/>
<path d="M248 207L241.651 160.74L173 159L179.217 204.281L248 207Z" fill="#212121"/>
<path d="M83.5439 192.772L52.9465 189.129C53.168 185.66 52.1048 183.037 50.3771 181.069C46.3457 176.478 32.7305 175.254 32.4351 176.405C30.2496 185.252 30.0281 205.394 35.5953 205.714C52.1196 206.676 68.5258 205.117 82.6283 202.435C83.7654 202.216 86.9255 202.799 88.3579 202.435C93.4969 205.525 96.406 205.816 101.693 202.654C103.952 202.654 107.437 199.608 108.633 198.267C110.819 195.804 115.057 195.366 113.757 193.428C112.281 191.242 105.384 193.72 103.051 195.731L96.6422 192.903L97.1739 190.819C100.039 191.781 103.937 190.003 103.804 187.919C103.598 184.567 96.1106 187.409 94.3091 186.578C91.902 185.456 90.8388 188.954 87.974 191.563C85.8623 191.329 85.0058 191.81 83.5439 192.772Z" fill="#FFC0AE"/>
<path d="M203 -23.9948L199.972 -25L181 30.9948L184.028 32L203 -23.9948Z" fill="#FFCF9D"/>
<path d="M203.02 -24L200 -23.0021L218.98 33L222 32.0021L203.02 -24Z" fill="#FFCF9D"/>
<path d="M223 30H180V34.5057C180 46.383 189.62 56 201.5 56C213.38 56 223 46.383 223 34.5057V30Z" fill="white"/>
<path d="M180 30C180 30.5571 189.62 31 201.5 31C213.38 31 223 30.5571 223 30C223 29.4429 213.38 29 201.5 29C189.62 29 180 29.4429 180 30Z" fill="#4A5041"/>
<path d="M202 -51H200V38H202V-51Z" fill="#FFCF9D"/>
<path fill-rule="evenodd" clip-rule="evenodd" d="M183.089 44.7834C183.709 36.6265 189.962 32.0801 193 30.832L192.661 30C189.446 31.3223 182.868 36.1065 182.205 44.7091C182.116 45.8383 182.042 46.9229 181.969 47.963C181.703 51.7814 181.497 54.9758 180.848 57.5908C180.051 60.8595 178.606 63.103 175.642 64.3362C174.27 64.9156 173.12 66.0597 172.161 67.59C171.203 69.1204 170.406 71.0816 169.787 73.2954C168.548 77.7379 167.958 83.3095 168.002 89H168.887C168.858 83.3689 169.433 77.8864 170.642 73.548C171.247 71.3787 171.999 69.5215 172.913 68.0803C173.813 66.6391 174.845 65.6437 175.996 65.1682C179.299 63.7864 180.877 61.2606 181.718 57.8136C182.382 55.1244 182.603 51.8111 182.868 47.9927C182.927 46.9527 183.001 45.8829 183.089 44.7834Z" fill="#6A7B4E"/>
<path d="M178.379 25C181.567 31.2702 187.703 35.6623 185.323 37.7179C183.737 39.0932 178.933 31.078 178.379 25ZM194.453 38.5165C189.26 40.3946 182.674 38.5461 183.572 41.9326C184.171 44.1804 191.34 42.3762 194.453 38.5165ZM193.241 46.3838C188.047 48.262 181.462 46.4134 182.36 49.7999C182.959 52.0478 190.128 50.2436 193.241 46.3838ZM191.265 57.6969C186.072 59.575 179.486 57.7265 180.384 61.113C180.983 63.3608 188.167 61.5418 191.265 57.6969ZM184.276 69.3057C178.738 69.1578 172.632 65.0171 172.781 68.5071C172.886 70.8141 180.369 71.7605 184.276 69.3057ZM179.352 75.5315C174.488 78.3413 167.842 77.6611 169.085 80.8997C169.923 83.0588 176.733 79.9532 179.352 75.5315ZM198 32.2906C192.837 34.3314 186.132 31.8766 187.164 35.9285C187.853 38.6348 195.022 36.7567 198 32.2906ZM174.009 35.9285C178.05 41.3706 184.635 44.136 182.659 46.8275C181.357 48.6021 175.505 41.8586 174.009 35.9285ZM172.407 46.1916C177.062 50.702 183.812 51.9442 182.285 55.0794C181.267 57.1793 174.667 51.7816 172.407 46.1916ZM168.845 53.3491C172.811 58.8799 179.367 61.7932 177.361 64.4255C176.029 66.1706 170.252 59.294 168.845 53.3491ZM163.008 60.6102C166.391 66.7325 172.647 70.7845 170.342 72.9732C168.8 74.4372 163.757 66.6586 163.008 60.6102ZM160 75.4576C163.891 81.0771 170.402 84.1827 168.336 86.7411C166.974 88.4417 161.302 81.4321 160 75.4576Z" fill="#90A46F"/>
<path fill-rule="evenodd" clip-rule="evenodd" d="M199.773 46.9597C197.652 39.0993 202.379 32.802 205 30.6636L204.392 30C201.614 32.2711 196.637 38.878 198.868 47.1809C199.165 48.2723 199.446 49.3046 199.727 50.3074C200.756 53.9796 201.614 57.0618 201.848 59.7164C202.145 63.0494 201.458 65.6154 198.9 67.7391C197.402 68.9779 196.559 70.9983 196.201 73.4464C195.842 75.8945 195.982 78.8293 196.481 82L197.402 81.8673C196.903 78.7555 196.778 75.9093 197.121 73.5644C197.464 71.2195 198.244 69.4498 199.508 68.4027C202.363 66.0431 203.081 63.1673 202.769 59.6427C202.519 56.8996 201.63 53.7289 200.6 50.042C200.351 49.0539 200.054 48.0216 199.773 46.9597Z" fill="#6A7B4E"/>
<path d="M188.574 29C193.548 33.9414 200.655 36.1459 199.095 38.8533C198.051 40.6435 191.031 34.5776 188.574 29ZM207.851 36.7081C203.613 40.1404 196.888 40.4659 198.801 43.3953C200.081 45.3334 206.188 41.3388 207.851 36.7081ZM209.234 44.5493C204.996 47.9816 198.271 48.3071 200.184 51.2365C201.464 53.1746 207.571 49.18 209.234 44.5493ZM211 55.8968C206.762 59.3144 200.037 59.6547 201.95 62.5841C203.23 64.5074 209.352 60.5276 211 55.8968ZM208.204 69.1085C202.995 70.7212 195.99 68.7387 197.241 71.9935C198.065 74.1535 205.335 72.6741 208.204 69.1085ZM209.175 29.6806C205.026 33.2461 197.977 33.039 200.243 36.5601C201.744 38.9125 207.822 34.8587 209.175 29.6806ZM188 40.7322C193.489 44.6084 200.508 45.1559 199.537 48.3219C198.875 50.4228 191.267 45.866 188 40.7322ZM189.781 50.9702C195.564 53.7664 202.23 52.8047 201.818 56.2667C201.523 58.5747 193.665 55.5418 189.781 50.9702ZM188.736 58.8706C194.195 62.8503 201.229 63.5457 200.199 66.6674C199.507 68.7535 191.944 64.0635 188.736 58.8706Z" fill="#90A46F"/>
<path fill-rule="evenodd" clip-rule="evenodd" d="M216.583 37.3932C214.482 34.298 211.805 31.951 210 30.7335L210.503 30C212.396 31.2762 215.148 33.7113 217.322 36.8945C219.497 40.0923 221.124 44.0823 220.651 48.439C220.533 49.5832 220.399 50.6687 220.281 51.7102C219.837 55.5388 219.453 58.7513 219.719 61.5385C219.896 63.2987 220.325 64.8683 221.139 66.3059C221.967 67.7435 223.195 69.049 225 70.2812L224.497 71C222.589 69.7091 221.257 68.3009 220.37 66.7313C219.467 65.1617 219.009 63.4748 218.831 61.6118C218.55 58.722 218.935 55.3775 219.394 51.5342C219.512 50.5073 219.645 49.4365 219.763 48.3363C220.207 44.273 218.698 40.4884 216.583 37.3932Z" fill="#6A7B4E"/>
<path d="M229.827 30.474C224.597 35.4512 216.076 37.3917 218.618 40.3691C220.307 42.354 227.902 36.2807 229.827 30.474ZM207.144 37.5694C213.197 41.4801 221.747 42.2355 219.94 45.2277C218.735 47.2275 210.2 42.6207 207.144 37.5694ZM207.041 45.8647C213.094 49.7753 221.644 50.5308 219.837 53.523C218.632 55.5228 210.097 50.9011 207.041 45.8647ZM204 30C209.979 34.0439 218.809 34.2513 216.693 37.8657C215.297 40.2802 206.791 35.6141 204 30ZM233 43.0354C226.874 46.8424 218.147 47.0201 220.043 50.4419C221.306 52.7231 229.959 48.3237 233 43.0354Z" fill="#90A46F"/>
<path fill-rule="evenodd" clip-rule="evenodd" d="M53 187C52.8227 184.475 51.8621 182.472 50.4286 180.906C46.3941 176.463 32.7685 175.278 32.4729 176.392C32.3104 177.055 32.1478 177.775 32 178.536C38.931 177.366 49.6305 181.64 53 187Z" fill="#E89F8A"/>
<path d="M179.372 207.652L179 204.685L245.961 207.416V210L179.372 207.652ZM204.564 65.2325C200.621 66.9747 203.835 77.4576 205.219 79.6428L242.747 80.2186C243.922 67.27 253.475 58.234 239.384 52.4906C233.923 39.1728 197.838 52.712 204.564 65.2325Z" fill="#212121"/>
<path d="M234 113.161C231.133 111.163 230.832 107.691 231.178 100L217.186 101.476C218.597 105.947 218.807 112.922 216 115.068C219.708 127.35 223.581 127.201 234 113.161Z" fill="#FFC0AE"/>
<path fill-rule="evenodd" clip-rule="evenodd" d="M230.939 102.389C230.955 101.935 230.97 101.482 231 101L217 102.432C217.212 103.061 217.378 103.748 217.53 104.45C220.284 107.709 224.583 108.645 230.939 102.389Z" fill="#E89F8A"/>
<path d="M298 204L260.761 205.059L236 215.471V224.029L273.952 225L298 213.971V204Z" fill="#631112"/>
<path d="M238 222.091V216.727L273.522 216.545L298 205V211.455L273.522 223L238 222.091Z" fill="white"/>
<path d="M294.985 197L264.364 197.857L244 206.291V213.216L275.216 214L295 205.072V197H294.985Z" fill="#FD7350"/>
<path d="M246 211.296V207.127L275.004 206.984L295 198V203.016L275.004 212L246 211.296Z" fill="white"/>
<path d="M206.268 70.687C211.249 71.1565 225.935 66.7107 231.527 60.0492C232.198 59.2569 230.14 68.3833 234.166 62.1474C234.956 60.9442 233.361 65.7716 234.748 65.1113C234.524 66.9894 235.672 69.7479 236.731 70.9071C237.789 72.0662 238.982 77.3778 239.444 79.8868C239.534 80.3563 240.056 79.0651 240.324 78.2141C240.384 78.0234 241.338 78.669 241.502 78.3608C245.468 70.8337 252.372 92.6228 239.817 91.1702C239.966 98.9908 225.145 104.376 222.789 103.98C214.574 102.6 207.417 97.7582 207.417 90.7887L206 78.5662C206.015 76.2039 206.104 73.5922 206.268 70.687Z" fill="#FFC0AE"/>
<path d="M205.629 79C203.191 81.2041 203.364 89.012 207 91L205.629 79Z" fill="#E89F8A"/>
<path fill-rule="evenodd" clip-rule="evenodd" d="M242.37 79.6051C242.682 79.6201 243.09 79.9364 243.497 80.9604L244 80.7195C243.579 79.6653 243.049 79.0479 242.411 79.0027C241.786 78.9575 241.215 79.4846 240.767 80.2075C239.843 81.6682 239.124 84.3337 239.001 87.0444C238.988 87.3607 239.083 87.6016 239.246 87.7824C239.382 87.948 239.572 88.0685 239.708 88.1438C239.871 88.2341 239.939 88.2944 239.979 88.3395V88.3546C239.979 88.3697 239.979 88.3847 239.966 88.4148C239.748 88.9419 239.762 89.5142 240.183 89.8304C240.563 90.1015 241.134 90.0413 241.745 89.6949L241.501 89.1528C240.944 89.4539 240.618 89.4088 240.482 89.3184C240.387 89.2431 240.292 89.0624 240.455 88.6708C240.509 88.5504 240.536 88.4148 240.523 88.2793C240.509 88.1438 240.455 88.0384 240.387 87.948C240.278 87.8125 240.115 87.7221 240.006 87.6468C239.993 87.6468 239.979 87.6318 239.979 87.6318C239.83 87.5414 239.735 87.4812 239.653 87.3908C239.585 87.3155 239.545 87.2251 239.558 87.0896C239.68 84.4391 240.373 81.9092 241.229 80.5689C241.636 79.8611 242.044 79.59 242.37 79.6051Z" fill="#E8A08B"/>
<path d="M216 94.4324L230.981 92C231.564 100.529 218.373 103.577 216 94.4324Z" fill="#E89F8A"/>
<path fill-rule="evenodd" clip-rule="evenodd" d="M230.865 93.8707C230.983 93.2815 231.027 92.6628 230.983 92L215.768 94.3273C215.916 94.8723 216.108 95.3583 216.33 95.815L230.865 93.8707ZM212.441 185.136C214.083 183.795 214.334 181.365 212.974 179.73C211.628 178.095 209.188 177.844 207.547 179.2L209.987 182.175L207 184.605C208.36 186.226 210.8 186.476 212.441 185.136Z" fill="white"/>
<path d="M226.205 74.8753C226.205 75.7456 227.675 72.9872 233 74.8753C230.855 72.3382 226.34 72.4119 226.205 74.8753ZM214.535 74.8753C214.685 75.5981 212.39 73.7838 209 76.3947C210.41 73.0315 214.16 73.1347 214.535 74.8753ZM229.685 80.3774C229.685 81.2772 229.22 82 228.635 82C228.05 82 227.585 81.2772 227.585 80.3774C227.585 79.4776 228.05 78.7548 228.635 78.7548C229.22 78.7548 229.685 79.4776 229.685 80.3774ZM213.935 80.3774C213.935 81.2772 213.53 82 213.035 82C212.54 82 212.135 81.2772 212.135 80.3774C212.135 79.4776 212.54 78.7548 213.035 78.7548C213.53 78.7548 213.935 79.4776 213.935 80.3774Z" fill="#5F362D"/>
<path fill-rule="evenodd" clip-rule="evenodd" d="M218.267 79.8774C218.139 78.1011 217.626 76.415 217.128 75.3312L217.768 75C218.295 76.1591 218.836 77.9355 218.964 79.8172C219.107 81.6989 218.85 83.7161 217.726 85.3117C216.729 86.7268 216.558 88.0365 216.857 88.9246C217.142 89.7977 217.882 90.3246 218.893 90.2343L218.95 90.987C217.626 91.1074 216.573 90.3848 216.174 89.1805C215.776 87.9913 216.046 86.4257 217.142 84.8752C218.153 83.4752 218.395 81.6537 218.267 79.8774Z" fill="#E89F8A"/>
<path d="M221.985 89.2697C222.08 89.5207 221.701 89.8188 221.15 89.9442C220.599 90.0697 220.086 89.9756 220.01 89.7403C219.934 89.4893 220.295 89.1913 220.846 89.0658C221.378 88.9246 221.89 89.0188 221.985 89.2697Z" fill="#E89F8A"/>
<path fill-rule="evenodd" clip-rule="evenodd" d="M230 96.0586C228.388 99.2772 223.655 100.788 220 99.5925C220.935 98.8305 222.259 98.0423 223.799 97.3855C226.288 96.3082 228.662 95.8222 230 96.0586Z" fill="#8E1A1A"/>
<path d="M240 86.5C240 87.3211 239.78 88 239.5 88C239.22 88 239 87.3368 239 86.5C239 85.6632 239.22 85 239.5 85C239.78 85 240 85.6632 240 86.5Z" fill="#E8A08B"/>
<path fill-rule="evenodd" clip-rule="evenodd" d="M56.2208 113.614L56.8564 113L68.6818 125.185L71.4312 116.379L75.5406 118.705L77.9057 114.989L81.0985 122.42L83.2271 113.205L84.0845 113.395L81.335 125.243L77.7283 116.876L75.8067 119.889L71.9338 117.681L69.0662 126.867L56.2208 113.614ZM48.3421 154.322C47.9282 151.411 45.4892 143.834 39 137.237L39.6356 136.623C46.2726 143.366 48.7855 151.119 49.2142 154.205L48.3421 154.322ZM102 151.923H101.113V136.93H102V151.923ZM55.1417 165C55.1861 162.235 54.7278 154.293 52.4958 144.844L53.3531 144.639C55.6 154.147 56.073 162.162 56.0286 165H55.1417Z" fill="#CF4633"/>
<path fill-rule="evenodd" clip-rule="evenodd" d="M98.5283 157L101 175.41L100.137 175.529L97.7825 157.923L61.9068 159.53L62.4771 182.985L61.5996 183L61 158.682L98.5283 157Z" fill="#4D4949"/>
</g>
<path d="M0.15 9C0.15 4.11228 4.11228 0.15 9 0.15H354C358.888 0.15 362.85 4.11228 362.85 9V232.85H0.15V9Z" stroke="#A09EEF" stroke-width="0.3"/>
<defs>
<clipPath id="clip0_17484_22582">
<path d="M0 9C0 4.02944 4.02944 0 9 0H354C358.971 0 363 4.02944 363 9V233H0V9Z" fill="white"/>
</clipPath>
<clipPath id="clip1_17484_22582">
<path d="M0 9C0 4.02944 4.02944 0 9 0H354C358.971 0 363 4.02944 363 9V233H0V9Z" fill="white"/>
</clipPath>
</defs>
</svg>
