<svg width="363" height="233" viewBox="0 0 363 233" fill="none" xmlns="http://www.w3.org/2000/svg">
<g clip-path="url(#clip0_17484_22506)">
<g filter="url(#filter0_d_17484_22506)">
<path d="M0 9C0 4.02944 4.02944 0 9 0H354C358.971 0 363 4.02944 363 9V233H0V9Z" fill="#C7F6F6"/>
</g>
<path d="M42.9741 362.717C42.9741 362.717 44.5588 329.904 72.5332 325.061C100.508 320.217 111.175 290.597 103.385 274.605C95.5954 258.613 37.7103 173.229 93.674 153.288C149.638 133.346 121.226 131.67 125.255 87.7116C129.284 43.7537 228.872 37.1777 237.681 87.7116C246.49 138.246 258.948 171.083 283.751 171.732C308.554 172.381 323.094 202.688 304.795 227.512C286.496 252.335 293.334 265.048 313.018 274.072C332.703 283.097 331.832 313.102 309.67 318.221C287.508 323.341 318.427 358.523 333.696 351.624C348.965 344.726 346.695 367.127 346.695 367.127L42.9741 362.717Z" fill="#E0FEFE"/>
<path d="M282.784 258.344C282.784 258.344 261.993 231.695 259.391 216.675C256.789 201.655 249.905 200.304 252.842 190.547C255.779 180.79 271.555 178.883 271.555 178.883C271.555 178.883 271.696 179.857 271.927 181.565C272.366 184.689 275.318 187.379 276.192 193.94C277.237 201.777 284.261 227.515 285.178 235.65C287.291 254.316 282.784 258.344 282.784 258.344Z" fill="#F47A6E"/>
<path d="M276.361 195.015C271.825 199.673 263.899 207.106 263.697 206.724C257.559 194.748 259.391 183.084 266.896 180.984C268.715 180.475 270.411 180.798 271.934 181.568C272.373 184.699 275.487 188.456 276.361 195.015Z" fill="#C43D51"/>
<path d="M217.684 96.4357C217.684 96.4357 206.658 92.5198 204.58 96.4357C202.503 100.352 207.346 106.824 207.346 106.824C207.346 106.824 208.7 113.936 207.417 119.482C206.133 125.029 204.627 127.945 203.922 129.082C203.217 130.219 205.205 128.154 209.412 120.336C211.884 115.739 212.879 112.298 213.279 110.241C213.188 110.983 213.067 111.969 212.907 113.29C212.266 118.549 205.839 134.842 206.081 135.55C206.267 136.107 207.954 134.029 211.271 125.162C211.313 125.163 211.356 125.155 211.395 125.137C211.433 125.119 211.467 125.092 211.494 125.058C212.965 123.343 214.08 121.353 214.772 119.204C215.464 117.055 215.72 114.79 215.524 112.541C219.371 99.4278 217.684 96.4357 217.684 96.4357ZM211.853 123.584C212.597 121.51 213.434 119.111 214.338 116.349C214.554 115.692 214.754 115.051 214.948 114.44C214.86 117.729 213.782 120.915 211.853 123.584ZM160.388 125.014C160.269 124.532 160.158 124.049 160.042 123.567C163.242 129.206 164.692 130.666 164.071 129.67C163.359 128.531 161.862 125.617 160.578 120.068C159.295 114.52 160.649 107.412 160.649 107.412C160.649 107.412 165.485 100.943 163.415 97.0238C161.344 93.1041 150.311 97.0238 150.311 97.0238C150.311 97.0238 148.836 99.6374 151.799 110.695C150.782 113.743 150.151 116.896 150.568 120.135C151.187 124.958 154.412 128.338 158.063 131.265C158.381 131.519 158.839 131.07 158.517 130.813C154.905 127.921 151.68 124.58 151.165 119.77C150.875 117.052 151.327 114.39 152.106 111.821C152.539 113.37 153.054 115.069 153.666 116.939C159.019 133.295 161.69 136.851 161.923 136.138C162.155 135.426 155.738 119.133 155.097 113.878C154.937 112.558 154.816 111.569 154.725 110.827C155.125 112.886 156.12 116.325 158.592 120.922C158.696 121.116 158.796 121.304 158.899 121.491C159.247 122.995 159.608 124.496 159.981 125.993C160.857 129.481 161.53 133.502 164.028 136.257C164.306 136.563 164.759 136.109 164.482 135.804C161.908 132.975 161.274 128.594 160.388 125.014Z" fill="#1C2147"/>
<path d="M155.514 105.182C159.662 104.629 162.483 100.14 161.814 95.1564C161.146 90.1727 157.241 86.5812 153.093 87.1346C148.945 87.6881 146.124 92.1769 146.793 97.1607C147.462 102.144 151.366 105.736 155.514 105.182Z" fill="#F47A6E"/>
<path d="M220.243 97.1521C220.912 92.1684 218.091 87.6795 213.943 87.1261C209.795 86.5726 205.89 90.1641 205.222 95.1479C204.553 100.132 207.374 104.621 211.522 105.174C215.67 105.727 219.575 102.136 220.243 97.1521Z" fill="#F47A6E"/>
<path d="M186.803 179.395C157.282 174.913 159.624 144.951 167.12 142.013C167.12 142.013 169.562 143.682 170.84 138.984C171.923 135.027 172.194 128.844 171.398 125.724C171.288 125.235 171.1 124.766 170.84 124.337C169.413 122.201 162.996 119.358 159.433 111.392C155.869 103.427 153.157 85.2239 153.728 79.3917C154.299 73.5596 161.428 52.9376 174.906 50.9472C188.384 48.9568 203.498 55.3565 209.346 70.5749C215.194 85.7934 211.165 108.549 209.47 112.815C207.776 117.082 203.355 123.055 201.643 124.337C201.104 124.734 200.614 125.192 200.182 125.704C199.505 126.494 199.036 127.439 198.816 128.455C198.599 129.471 199.188 134.78 200.676 138.242C201.273 139.622 202.017 140.709 202.908 141.113C206.07 142.534 212.58 142.295 212.58 142.295C212.58 142.295 216.321 183.875 186.803 179.395Z" fill="#FF9F85"/>
<path d="M198.814 150.364C195.741 148.286 178.618 142.767 171.402 125.727C171.211 125.272 171.025 124.81 170.844 124.34C171.067 124.434 182.34 130.712 186.302 131.135C190.225 131.554 199.947 125.9 200.174 125.711C199.497 126.501 199.028 127.446 198.809 128.462C198.591 129.478 199.181 134.787 200.669 138.249C200.756 144.886 200.442 151.464 198.814 150.364Z" fill="#C43D51"/>
<path d="M212.402 86.6491L208.682 86.1872C208.027 79.7281 203.277 74.6992 197.522 74.6992C192.734 74.6992 188.636 78.1885 187.024 83.0875C186.183 82.463 185.159 82.133 184.111 82.1489C182.97 82.1416 181.872 82.5812 181.053 83.3732C179.472 78.3257 175.22 74.6992 170.232 74.6992C164.505 74.6992 159.743 79.4796 158.886 85.7049L152.947 86.6528L153.083 87.495L158.795 86.5823C158.765 86.9533 158.748 87.3244 158.748 87.7139C158.748 94.889 163.898 100.727 170.228 100.727C176.558 100.727 181.708 94.889 181.708 87.7139C181.709 86.5796 181.577 85.4491 181.316 84.3452C181.647 83.924 182.071 83.584 182.554 83.3512C183.038 83.1185 183.569 82.9991 184.105 83.0022C185.081 82.9789 186.029 83.3272 186.756 83.9761C186.44 85.197 186.281 86.453 186.282 87.7139C186.282 94.889 191.32 100.727 197.516 100.727C203.712 100.727 208.75 94.889 208.75 87.7139C208.75 87.4932 208.751 87.2743 208.736 87.0554L212.288 87.4969L212.402 86.6491ZM170.226 99.8734C164.367 99.8734 159.602 94.4179 159.602 87.7139C159.602 81.0099 164.367 75.5525 170.226 75.5525C176.085 75.5525 180.851 81.0081 180.851 87.7139C180.851 94.4197 176.093 99.8734 170.226 99.8734ZM197.516 99.8734C191.793 99.8734 187.137 94.4179 187.137 87.7139C187.137 81.0099 191.787 75.5525 197.516 75.5525C203.245 75.5525 207.895 81.0081 207.895 87.7139C207.895 94.4197 203.247 99.8734 197.524 99.8734H197.516Z" fill="white"/>
<path d="M184.751 109.155C184.648 109.156 184.548 109.122 184.466 109.06C184.383 108.998 184.324 108.911 184.297 108.812C184.27 108.713 184.276 108.608 184.315 108.513C184.354 108.418 184.424 108.338 184.513 108.287C185.646 107.619 187.476 106.187 187.565 105.191C187.654 104.195 185.333 102.037 184.1 100.856C183.57 100.351 183.108 99.9151 182.842 99.6072C181.726 98.3236 183.653 94.5765 184.269 93.4597C184.296 93.402 184.335 93.3504 184.383 93.3082C184.431 93.266 184.487 93.2341 184.548 93.2143C184.609 93.1946 184.673 93.1875 184.737 93.1935C184.801 93.1994 184.863 93.2184 184.919 93.2491C184.975 93.2798 185.024 93.3216 185.063 93.372C185.103 93.4224 185.131 93.4802 185.147 93.542C185.163 93.6038 185.166 93.6682 185.156 93.7313C185.146 93.7944 185.124 93.8547 185.089 93.9087C183.973 95.9362 183.09 98.4645 183.551 98.9969C183.787 99.2715 184.232 99.6907 184.745 100.179C186.866 102.188 188.612 103.959 188.497 105.272C188.337 107.068 185.335 108.888 184.989 109.09C184.917 109.133 184.835 109.155 184.751 109.155ZM195.73 116.653C195.382 117.557 194.901 118.404 194.302 119.166C192.351 121.626 189.176 122.847 184.394 122.626C183.069 122.576 181.783 122.169 180.674 121.446C177.402 119.337 176.297 115.128 176.197 114.876C176.096 114.623 176.472 114.353 177.199 114.134C181.055 112.939 194.551 112.414 195.091 112.533C195.18 112.553 195.288 112.568 195.405 112.587C196.123 112.713 197.144 113.095 195.73 116.653Z" fill="#C43D51"/>
<path d="M195.403 112.586C195.342 112.867 195.236 113.137 195.089 113.385C194.57 114.138 178.976 115.589 178.12 115.164C177.796 115.005 177.475 114.589 177.19 114.133C181.046 112.938 194.542 112.413 195.081 112.532C195.178 112.552 195.286 112.567 195.403 112.586Z" fill="white"/>
<g opacity="0.49">
<path d="M194.302 119.168C192.351 121.628 189.176 122.849 184.394 122.628C183.069 122.578 181.783 122.17 180.674 121.448C182.433 119.691 185.755 118.504 189.564 118.504C191.167 118.496 192.763 118.719 194.302 119.168Z" fill="#FF9F85"/>
</g>
<path d="M171.416 41.4178C171.416 41.4178 160.256 40.2807 161.914 26.626C162.952 18.0819 170.41 15.125 178.241 15.125C185.532 15.125 197.494 15.9412 200.224 24.3555C201.792 29.1915 196.659 41.1377 191.525 42.1338C186.391 43.1299 171.416 41.4178 171.416 41.4178Z" fill="#1C2147"/>
<path d="M218.947 68.7622C218.233 66.7421 217.358 64.782 216.332 62.9004C214.611 57.6304 211.185 51.6777 204.359 45.8233C202.371 44.1192 200.174 42.6731 197.821 41.5197C200.068 41.6686 202.263 42.2673 204.273 43.2801C206.775 44.5489 208.799 46.5746 211.377 47.7061C211.749 47.8712 212.078 47.3203 211.7 47.1496C208.897 45.9179 206.717 43.6659 203.927 42.4008C202.37 41.697 200.719 41.2233 199.024 40.9947C200.016 40.7295 200.989 40.4382 201.922 40.1192C203.398 39.6338 204.771 38.8789 205.97 37.8932C207.294 36.8061 208.495 35.5874 210.09 34.8881C210.462 34.7211 210.142 34.1702 209.766 34.3316C208.43 34.9178 207.348 35.8545 206.263 36.7987C204.887 37.9896 203.494 38.9208 201.753 39.5033C200.174 40.0413 198.565 40.486 196.934 40.8352C196.733 40.8352 196.534 40.8352 196.335 40.8352C187.803 37.1697 177.779 37.2328 168.807 40.7796C162.111 40.0116 155.973 35.9046 152.79 29.9167C152.604 29.5457 152.046 29.8759 152.232 30.2394C154.769 35.0124 159.137 38.6185 164.183 40.3715C159.045 40.1283 153.908 40.8921 149.065 42.6197C148.678 42.757 148.845 43.3766 149.234 43.2374C155.085 41.1446 161.355 40.4849 167.516 41.3138C162.16 43.6528 157.417 47.1916 153.655 51.6554C150.432 55.4841 148.377 59.9287 147.108 64.4549C145.933 65.733 144.798 67.0408 143.864 68.497C141.961 71.465 140.503 75.3159 141.286 78.8646C141.919 81.7305 143.753 84.1272 145.674 86.3124C145.889 88.48 146.229 90.6335 146.691 92.7622C146.691 92.7622 147.026 93.0683 148.499 89.9482C149.972 86.8281 154.079 87.7222 154.079 87.7222L153.661 83.0995C153.661 83.0995 156.019 81.9624 161.917 77.2674C167.815 72.5724 172.276 62.6129 172.276 62.6129C172.276 62.6129 175.841 69.0127 181.667 73.7077C187.492 78.4027 194.095 76.2676 194.095 76.2676L190.673 75.5552C187.251 74.8448 179.976 66.4528 179.976 66.4528C179.976 66.4528 181.974 68.1594 186.3 71.0049C190.626 73.8505 197.371 76.5514 198.226 76.2676C199.082 75.9837 194.804 70.5783 194.804 70.5783C194.804 70.5783 195.375 71.2887 198.814 74.7891C202.253 78.2895 209.92 85.7967 211.49 86.3643C213.06 86.932 216.791 88.2434 216.791 88.2434C216.791 88.2434 217.185 86.4979 217.535 83.9139C218.859 81.8493 220.121 79.6641 220.455 77.208C220.838 74.3699 219.888 71.4112 218.947 68.7622ZM141.811 78.1986C141.163 74.177 143.405 69.7676 145.946 66.7867C146.208 66.48 146.473 66.177 146.738 65.8777C145.008 72.949 145.099 80.074 145.566 85.2105C143.814 83.1515 142.24 80.8772 141.811 78.1986ZM219.869 76.659C219.696 78.7366 218.785 80.6287 217.716 82.4095C217.93 80.5118 218.042 78.6039 218.05 76.6942C218.05 74.1751 218.151 70.467 217.198 66.104C217.563 66.9239 217.899 67.7562 218.207 68.6009C219.12 71.1107 220.093 73.9562 219.869 76.659Z" fill="#1C2147"/>
<path d="M199.367 88.5656C199.367 90.2944 198.347 91.695 197.086 91.695C195.825 91.695 194.804 90.2944 194.804 88.5656C194.804 86.8367 195.827 85.438 197.086 85.438C197.251 85.4376 197.414 85.462 197.572 85.5104C197.426 85.8419 197.352 86.2002 197.354 86.5622C197.354 87.6752 198.009 88.5656 198.814 88.5656C199.01 88.5672 199.203 88.5166 199.372 88.419C199.367 88.4673 199.367 88.5173 199.367 88.5656ZM172.058 88.5359V88.5656C172.058 90.2944 171.037 91.695 169.776 91.695C168.515 91.695 167.494 90.2944 167.494 88.5656C167.494 86.8367 168.517 85.438 169.776 85.438C170.034 85.4392 170.288 85.4988 170.52 85.6124C170.402 85.9152 170.342 86.2374 170.343 86.5622C170.343 87.6752 170.998 88.5656 171.805 88.5656C171.89 88.5664 171.975 88.5564 172.058 88.5359ZM165.306 81.9098C166.499 80.5316 168.072 79.0383 170.046 79.8063C170.431 79.9565 170.604 79.3369 170.215 79.1885C168.035 78.339 166.194 79.9064 164.852 81.4572C164.585 81.767 165.038 82.2215 165.306 81.9098ZM201.567 81.4572C200.226 79.9064 198.386 78.339 196.205 79.1885C195.823 79.3369 195.989 79.9565 196.376 79.8063C198.345 79.0383 199.921 80.5297 201.113 81.9098C201.383 82.2215 201.837 81.767 201.567 81.4572Z" fill="#1C2147"/>
<path d="M282.784 192.417C282.784 194.982 276.936 188.451 272.725 193.116C268.514 197.782 263.368 192.417 260.094 196.617C257.319 200.173 256.225 204.064 253.251 204.463C252.643 204.531 252.027 204.481 251.438 204.315C246.994 203.148 246.525 211.549 245.123 212.477C243.72 213.404 241.847 207.578 241.847 207.578C241.847 207.578 240.681 213.627 236.716 223.405C236.71 223.415 236.706 223.426 236.704 223.438C234.379 229.17 232.054 233.544 230.619 237.497C229.597 240.298 229.028 242.891 229.222 245.602C229.369 247.642 230.499 254.162 231.934 262.248C235.096 280.01 239.703 305.34 238.579 307.423C238.369 307.816 238.062 308.149 237.687 308.39C235.38 309.905 230.581 308.443 227.351 310.456C223.608 312.79 220.333 311.623 214.485 309.757C208.637 307.891 205.362 309.757 197.643 313.255C189.924 316.754 182.205 316.288 175.187 311.857C168.169 307.425 158.345 312.322 151.794 311.857C145.243 311.391 143.835 304.162 139.164 298.564C134.494 292.965 131.68 296.931 130.98 291.798C130.776 290.292 131.477 287.517 132.654 284.148C133.125 282.796 133.672 281.347 134.267 279.847C135.608 276.443 137.196 272.774 138.699 269.342C140.5 265.224 142.176 261.451 143.15 258.906C143.841 257.075 144.322 255.172 144.584 253.233C145.548 246.381 144.233 238.504 141.513 230.912C138.645 222.906 138.277 206.645 137.728 199.946C137.606 198.462 137.475 197.438 137.304 197.091C136.374 195.225 132.626 200.358 129.204 203.857C125.782 207.355 122.099 212.722 119.761 214.356C117.423 215.99 115.784 216.688 114.145 212.488C112.726 208.85 110.611 208.364 107.022 206.48C106.464 206.188 105.881 205.864 105.256 205.491C100.579 202.69 100.813 201.757 100.813 196.858C100.813 191.959 100.344 193.125 95.9006 188.46C92.6066 185.002 93.2966 183.081 93.9681 180.613C94.2475 179.674 94.4246 178.707 94.4963 177.729C94.7307 173.529 92.1583 172.83 90.754 170.263C89.3497 167.695 112.743 164.664 119.292 160.464C125.841 156.265 130.286 155.332 137.304 148.567C141.56 144.465 152.521 142.471 160.491 141.538C162.634 141.286 164.561 141.111 166.084 140.993C166.841 140.933 167.498 140.889 168.031 140.857C168.209 140.846 168.387 140.875 168.552 140.943C168.717 141.011 168.864 141.115 168.981 141.249C169.099 141.382 169.185 141.54 169.232 141.711C169.28 141.883 169.287 142.063 169.253 142.237C168.997 143.581 168.836 144.941 168.774 146.307C168.63 149.6 169.067 153.751 171.456 156.966C176.135 163.264 176.308 172.075 194.321 169.977C203.297 168.929 208.291 161.815 210.819 154.846C210.869 154.703 210.921 154.56 210.97 154.415C212.329 150.52 212.926 146.721 213.027 144.1C213.055 143.472 213.047 142.843 213.002 142.217C212.945 141.486 210.934 141.185 214.291 140.961C215.988 140.85 218.901 141.332 221.516 140.868C222.859 140.633 225.345 140.848 228.26 141.382C233.978 142.426 241.345 144.695 244.907 147.168C245.817 147.828 246.692 148.536 247.528 149.288C254.782 155.667 269.561 171.318 273.443 175.394C277.872 180.051 282.784 189.85 282.784 192.417Z" fill="#FF945F"/>
<path d="M135.881 196.624L142.432 177.254L124.719 208.995L135.881 196.624Z" fill="#D34439"/>
<path d="M245.123 212.479C243.718 213.407 241.847 207.58 241.847 207.58L239.509 192.184L245.123 212.479Z" fill="#D34439"/>
<path d="M181.114 196.845C180.833 196.85 180.552 196.885 180.277 196.949C178.685 195.027 177.306 192.939 176.163 190.722C173.834 186.192 172.183 181.262 170.685 176.598C166.779 164.413 166.234 152.262 169.117 141.446C169.134 141.384 169.175 141.332 169.23 141.301C169.286 141.269 169.352 141.261 169.413 141.277L169.64 141.338C169.7 141.355 169.752 141.395 169.783 141.449C169.814 141.503 169.823 141.567 169.808 141.628C166.956 152.314 167.494 164.324 171.362 176.381C172.85 181.019 174.495 185.914 176.797 190.397C177.987 192.703 179.436 194.866 181.114 196.845ZM193.746 203.692C193.745 203.743 193.739 203.793 193.727 203.842C193.694 203.979 193.627 204.105 193.533 204.208C193.438 204.312 193.319 204.39 193.186 204.436C193.026 204.436 192.868 204.436 192.708 204.436H192.691C191.912 204.438 191.134 204.366 190.368 204.223C188.687 203.919 187.1 203.228 185.735 202.204C185.272 201.858 184.818 201.488 184.369 201.108C183.921 200.728 183.46 200.311 183.019 199.891C182.625 199.52 182.239 199.133 181.86 198.73C182.005 198.611 182.186 198.546 182.374 198.545C182.512 198.544 182.648 198.578 182.77 198.643L183.095 198.966C183.629 199.495 184.177 200.001 184.741 200.483C185.205 200.88 185.671 201.262 186.159 201.626C187.379 202.539 188.789 203.168 190.284 203.468C190.89 203.596 191.505 203.674 192.124 203.7C192.664 203.732 193.206 203.73 193.746 203.692ZM211.399 171.962C211.135 176.932 210.772 183.738 209.048 189.683C207.002 196.732 203.531 201.184 198.435 203.269C198.063 203.425 197.678 203.566 197.296 203.688C197.2 203.466 197.085 203.252 196.954 203.049C197.36 202.925 197.763 202.779 198.163 202.611C209.292 198.044 210.132 182.324 210.688 171.925C211.021 165.685 210.86 159.347 210.7 153.216L210.657 151.546C210.523 146.07 208.544 141.388 208.083 140.364C208.057 140.308 208.055 140.245 208.076 140.187C208.097 140.129 208.139 140.082 208.194 140.055L208.408 139.951C208.437 139.936 208.468 139.928 208.499 139.926C208.531 139.924 208.563 139.929 208.593 139.94C208.623 139.95 208.65 139.967 208.673 139.989C208.697 140.01 208.715 140.037 208.728 140.066C209.208 141.132 211.23 145.929 211.369 151.53L211.412 153.199C211.572 159.341 211.734 165.694 211.399 171.962Z" fill="#1C2147"/>
<path d="M173.117 193.944C172.923 194.409 172.636 194.829 172.274 195.18C171.645 195.736 170.371 194.018 170.081 193.67C169.051 192.423 167.929 191.28 166.871 190.056C166.592 189.733 165.693 188.8 166.22 188.336C167.04 187.613 168.526 187.435 168.526 187.435C168.526 187.435 168.591 182.241 171.338 181.738C172.361 181.553 173.334 181.94 174.169 182.508C174.414 182.67 174.65 182.845 174.876 183.031C175.016 183.148 175.148 183.267 175.274 183.384C175.853 183.934 176.402 184.514 176.92 185.122C177.106 185.344 177.303 185.567 177.495 185.79L177.835 186.187C178.385 186.801 178.848 187.488 179.212 188.227C179.324 188.473 179.417 188.727 179.491 188.988C179.675 189.619 179.671 190.291 179.478 190.921C178.643 193.543 173.6 193.013 173.466 193C173.377 193.324 173.26 193.64 173.117 193.944Z" fill="white"/>
<path d="M174.169 182.508C174.414 182.67 174.65 182.845 174.876 183.031C173.463 184.641 171.093 187.741 170.734 188.058C170.375 188.375 172.994 184.309 174.169 182.508ZM176.911 185.127C177.097 185.35 177.294 185.572 177.486 185.795C175.44 187.279 172.536 189.42 172.185 189.559C171.833 189.698 174.809 187.036 176.911 185.127ZM173.455 193.007C173.369 193.328 173.256 193.642 173.117 193.944C172.053 192.597 169.828 189.77 169.276 188.95C168.803 188.251 171.391 190.887 173.457 193.007H173.455ZM179.203 188.234C179.315 188.48 179.408 188.734 179.482 188.995C177.475 189.77 174.541 190.972 174.06 190.952C173.578 190.931 177.084 189.253 179.203 188.234Z" fill="#EAB1A2"/>
<path d="M211.49 199.169C211.927 199.426 212.307 199.769 212.606 200.177C213.067 200.878 211.183 201.893 210.796 202.13C209.414 202.97 208.122 203.916 206.756 204.788C206.397 205.018 205.345 205.773 204.958 205.187C204.359 204.274 204.4 202.776 204.4 202.776C204.4 202.776 199.261 201.976 199.147 199.19C199.104 198.151 199.633 197.248 200.313 196.502C200.512 196.283 200.724 196.079 200.938 195.886C201.072 195.767 201.208 195.652 201.344 195.545C201.971 195.05 202.624 194.59 203.301 194.165C203.548 194.005 203.797 193.849 204.045 193.692L204.487 193.412C205.175 192.956 205.922 192.596 206.708 192.343C206.968 192.266 207.233 192.209 207.502 192.174C208.155 192.082 208.82 192.182 209.416 192.462C211.899 193.66 210.657 198.567 210.625 198.696C210.926 198.83 211.215 198.988 211.49 199.169Z" fill="#FFEEDE"/>
<path d="M200.299 196.503C200.498 196.285 200.71 196.081 200.924 195.888C202.319 197.514 205.056 200.295 205.319 200.696C205.581 201.096 201.919 197.921 200.299 196.503ZM203.286 194.161C203.533 194.001 203.782 193.845 204.03 193.688C205.215 195.914 206.922 199.093 207.006 199.459C207.089 199.824 204.88 196.515 203.286 194.161ZM210.609 198.7C210.915 198.831 211.21 198.987 211.49 199.167C210.002 200.028 206.885 201.824 205.992 202.254C205.233 202.625 208.224 200.438 210.61 198.698L210.609 198.7ZM206.693 192.345C206.953 192.267 207.219 192.211 207.487 192.176C207.971 194.27 208.745 197.338 208.657 197.811C208.57 198.284 207.402 194.582 206.693 192.345Z" fill="#EAB1A2"/>
<path d="M181.548 199.39C181.548 199.608 181.635 199.818 181.79 199.972C181.945 200.126 182.155 200.213 182.374 200.213C182.498 200.214 182.62 200.186 182.732 200.132C182.844 200.079 182.942 200.001 183.019 199.903C183.46 200.323 183.91 200.731 184.37 201.12C183.585 202.233 182.218 203.636 181.247 205.404C179.742 208.143 180.93 211.278 180.849 213.174C180.767 215.07 180.93 214.122 179.481 211.751C178.033 209.381 175.62 203.623 177.48 199.495C178.209 197.88 179.262 197.191 180.27 196.952C180.545 196.887 180.825 196.853 181.107 196.848C181.861 196.837 182.608 196.988 183.298 197.292C183.298 197.292 184.723 198.162 184.961 199.495C184.999 199.847 184.921 200.202 184.74 200.506C184.177 200.024 183.628 199.518 183.094 198.989C183.017 198.853 182.905 198.741 182.768 198.666C182.646 198.601 182.51 198.567 182.372 198.568C182.184 198.569 182.003 198.634 181.859 198.753C181.763 198.83 181.685 198.926 181.631 199.036C181.577 199.147 181.549 199.267 181.548 199.39Z" fill="#FFEEDE"/>
<path d="M192.894 216.35C190.939 218.326 190.874 219.285 191.237 217.423C191.599 215.56 193.469 212.785 192.637 209.767C192.098 207.823 191.086 206.153 190.591 204.881L190.377 204.232C191.143 204.375 191.921 204.447 192.7 204.445C192.713 204.451 192.727 204.454 192.741 204.456C192.847 204.481 192.957 204.485 193.064 204.468C193.171 204.451 193.274 204.412 193.367 204.355C193.459 204.298 193.539 204.223 193.603 204.135C193.666 204.047 193.712 203.948 193.736 203.842C193.748 203.793 193.754 203.742 193.755 203.692C193.765 203.5 193.707 203.31 193.591 203.156C193.475 203.002 193.309 202.893 193.121 202.85C192.987 202.817 192.847 202.817 192.713 202.85C192.628 202.872 192.548 202.909 192.475 202.959C192.419 202.997 192.368 203.04 192.321 203.089H192.304C192.177 203.266 192.12 203.484 192.144 203.701C191.526 203.675 190.91 203.598 190.305 203.469C190.316 203.358 190.345 203.249 190.388 203.146C190.928 201.902 192.514 201.381 192.514 201.381C193.255 201.243 194.016 201.268 194.746 201.451C195.015 201.528 195.275 201.633 195.522 201.765C196.106 202.056 196.599 202.499 196.95 203.048C197.082 203.252 197.196 203.466 197.293 203.688C197.455 204.071 197.576 204.47 197.652 204.879C198.52 209.313 194.847 214.379 192.894 216.35Z" fill="white"/>
<path d="M213.145 187.529C213.147 186.291 212.142 185.285 210.901 185.283C209.66 185.282 208.653 186.284 208.651 187.523C208.65 188.762 209.654 189.767 210.895 189.769C212.136 189.77 213.143 188.768 213.145 187.529Z" fill="#FFEEDE"/>
<path d="M213.243 182.522C213.245 181.566 212.47 180.79 211.511 180.788C210.553 180.786 209.774 181.56 209.772 182.515C209.771 183.471 210.546 184.248 211.504 184.249C212.463 184.251 213.241 183.478 213.243 182.522Z" fill="#FFEEDE"/>
<path d="M172.433 178.413C172.435 177.457 171.659 176.68 170.701 176.679C169.742 176.677 168.964 177.45 168.962 178.406C168.96 179.362 169.736 180.138 170.694 180.14C171.653 180.142 172.431 179.369 172.433 178.413Z" fill="#FFEEDE"/>
<path d="M147.651 200.941C147.651 200.941 145.879 195.363 147.651 195.018C149.705 194.619 147.651 200.941 147.651 200.941ZM147.776 201.09C147.776 201.09 149.55 206.668 147.776 207.013C145.722 207.411 147.776 201.09 147.776 201.09ZM147.789 200.954C147.789 200.954 153.38 199.184 153.726 200.954C154.128 203 147.789 200.954 147.789 200.954ZM147.64 201.077C147.64 201.077 142.047 202.846 141.701 201.077C141.301 199.03 147.64 201.077 147.64 201.077ZM147.809 201.025C147.809 201.025 153.017 203.716 152.009 205.211C150.841 206.942 147.809 201.025 147.809 201.025ZM147.618 201.006C147.618 201.006 142.41 198.314 143.418 196.819C144.586 195.089 147.618 201.006 147.618 201.006ZM147.705 201.112C147.705 201.112 145.004 206.306 143.505 205.299C141.768 204.134 147.705 201.112 147.705 201.112ZM147.72 200.919C147.72 200.919 150.421 195.725 151.92 196.73C153.657 197.897 147.72 200.919 147.72 200.919Z" fill="#FFEB8A"/>
<path d="M149.011 202.585C149.826 201.772 149.826 200.454 149.011 199.642C148.196 198.829 146.874 198.829 146.059 199.642C145.244 200.454 145.244 201.772 146.059 202.585C146.874 203.398 148.196 203.398 149.011 202.585Z" fill="#FF945F"/>
<path d="M127.054 163.612C127.054 163.612 123.854 160.058 125.99 158.648C128.46 157.016 127.054 163.612 127.054 163.612ZM127.234 163.657C127.234 163.657 130.433 167.211 128.298 168.621C125.828 170.255 127.234 163.657 127.234 163.657ZM127.225 163.536C127.225 163.536 133.833 158.516 134.579 159.782C135.444 161.243 127.225 163.536 127.225 163.536ZM127.063 163.74C127.063 163.74 120.454 168.749 119.709 167.489C118.845 166.025 127.063 163.74 127.063 163.74ZM127.26 163.581C127.26 163.581 134.196 162.544 133.212 164.436C132.081 166.625 127.26 163.581 127.26 163.581ZM127.022 163.688C127.022 163.688 120.088 164.725 121.07 162.833C122.207 160.644 127.022 163.688 127.022 163.688ZM127.15 163.722C127.15 163.722 124.732 169.782 122.701 169.886C120.345 170.006 127.15 163.722 127.15 163.722ZM127.137 163.555C127.137 163.555 129.555 157.492 131.585 157.389C133.943 157.262 127.137 163.555 127.137 163.555Z" fill="#FFEB8A"/>
<path d="M129.524 162.508C129.73 163.473 128.739 164.844 127.312 165.573C125.886 166.302 124.559 166.113 124.353 165.148C124.146 164.183 125.136 162.813 126.564 162.084C127.993 161.355 129.317 161.546 129.524 162.508Z" fill="#FF945F"/>
<path d="M266.225 176.045C266.225 176.045 269.502 172.565 271.092 174.561C272.934 176.882 266.225 176.045 266.225 176.045ZM266.202 176.229C266.202 176.229 262.925 179.711 261.335 177.713C259.484 175.392 266.202 176.229 266.202 176.229ZM266.314 176.21C266.314 176.21 271.894 182.348 270.692 183.198C269.305 184.181 266.314 176.21 266.314 176.21ZM266.104 176.066C266.104 176.066 260.524 169.925 261.725 169.076C263.115 168.095 266.104 176.066 266.104 176.066ZM266.273 176.253C266.273 176.253 267.899 183.055 265.925 182.241C263.643 181.298 266.273 176.253 266.273 176.253ZM266.145 176.021C266.145 176.021 264.519 169.219 266.492 170.033C268.776 170.972 266.145 176.021 266.145 176.021ZM266.124 176.151C266.124 176.151 259.863 174.272 259.586 172.255C259.264 169.924 266.124 176.151 266.124 176.151ZM266.295 176.123C266.295 176.123 272.556 178.004 272.833 180.019C273.153 182.352 266.295 176.123 266.295 176.123Z" fill="#FFEB8A"/>
<path d="M267.536 178.406C266.591 178.692 265.136 177.826 264.286 176.47C263.436 175.114 263.514 173.78 264.459 173.502C265.404 173.223 266.859 174.082 267.709 175.438C268.559 176.794 268.48 178.119 267.536 178.406Z" fill="#FFEB8A"/>
<path opacity="0.51" d="M237.681 308.394C235.374 309.91 230.576 308.448 227.345 310.461C223.603 312.794 220.327 311.627 214.479 309.761C208.631 307.895 205.356 309.761 197.637 313.26C189.918 316.758 182.199 316.293 175.181 311.861C168.163 307.43 158.339 312.327 151.788 311.861C145.237 311.396 143.835 304.161 139.164 298.563C134.494 292.964 131.679 296.93 130.98 291.797C130.776 290.291 131.477 287.516 132.654 284.147C133.125 282.795 133.672 281.346 134.267 279.846C135.608 276.442 137.196 272.773 138.699 269.341C140.5 265.223 142.175 261.45 143.15 258.905C143.841 257.074 144.322 255.171 144.584 253.232C145.548 246.38 144.233 238.503 141.513 230.911C138.645 222.905 138.277 206.644 137.728 199.945C138.84 206.823 140.417 213.618 142.451 220.284C142.672 220.682 154.191 241.182 181.403 241.876C208.706 242.569 230.352 237.568 230.63 237.504C229.608 240.305 229.039 242.898 229.233 245.608C229.38 247.648 230.511 254.169 231.945 262.255C228.027 262.21 211.425 262.027 195.332 261.999C195.26 262.297 194.851 262.589 194.058 262.887C186.563 265.687 157.868 267.087 168.003 274.435C178.139 281.782 184.206 283.185 177.315 289.134C170.423 295.083 174.965 311.177 199.361 308.027C223.757 304.877 227.261 311.286 235.334 308.433C236.096 308.198 236.911 308.184 237.681 308.394Z" fill="#D34439"/>
<path d="M153.309 262.756C152.751 261.087 148.142 256.263 144.567 253.232C143.777 252.548 142.946 251.911 142.081 251.324C138.688 249.098 135.063 248.524 133.075 246.775C131.086 245.026 114.713 232.777 112.138 230.794C109.564 228.811 98.8059 221.579 96.7004 219.713C94.5949 217.846 93.4249 217.487 94.128 216.68C94.3586 216.413 96.4288 214.749 99.1054 212.641C101.549 210.718 104.499 208.417 107.003 206.472C106.445 206.18 105.863 205.856 105.238 205.483C100.56 202.682 100.794 201.749 100.794 196.85C100.794 191.951 100.326 193.117 95.882 188.452C92.5879 184.994 93.278 183.073 93.9494 180.605C93.3561 181.064 92.6865 181.583 91.9555 182.153C86.1207 186.712 76.4747 194.505 71.3207 200.116C63.5998 208.514 58.4551 213.415 60.3262 216.68C62.1974 219.944 63.5998 220.879 65.0041 224.842C66.4084 228.804 89.0985 244.905 102.204 250.036C115.31 255.167 126.299 259.602 130.51 261.235C134.721 262.867 138.681 265.774 138.694 269.338C138.707 272.901 138.934 278.499 137.764 279.316C137.233 279.687 135.718 279.722 134.261 279.842C132.505 279.991 130.843 280.267 131.099 281.415C131.568 283.513 132.561 284.398 132.649 284.146C132.768 283.892 138.043 282.586 138.716 283.404C139.389 284.222 142.91 284.517 144.549 284.194C146.188 283.871 152.268 282.003 153.321 280.837C154.373 279.67 154.011 264.854 153.309 262.756Z" fill="#FF9F85"/>
<path d="M107.003 206.472C104.497 208.417 101.549 210.718 99.1052 212.641L91.9553 182.153C92.6863 181.583 93.3559 181.064 93.9492 180.605C93.2759 183.074 92.5877 184.994 95.8818 188.452C100.325 193.117 100.794 191.951 100.794 196.85C100.794 201.749 100.56 202.682 105.238 205.483C105.87 205.848 106.45 206.18 107.003 206.472ZM138.705 283.402C138.705 283.402 142.372 282.475 143.191 281.885C144.009 281.295 144.712 279.002 144.712 279.002C144.712 279.002 143.66 282.76 142.724 283.109C141.788 283.458 139.77 283.942 139.77 283.942L138.705 283.402ZM145.568 283.944C145.568 283.944 148.397 281.718 148.572 280.896C148.747 280.074 149.859 275.977 149.859 275.977C149.859 275.977 149.273 280.243 148.806 281.475C148.568 282.152 148.197 282.776 147.714 283.309L145.568 283.944Z" fill="#C43D51"/>
<path d="M210.8 154.834C210.787 154.809 210.772 154.785 210.756 154.761L210.741 154.782L200.799 146.301C200.799 146.301 199.683 151.174 194.302 157.383C189.806 162.577 183.302 162.343 181.282 162.128C176.119 158.366 171.781 151.851 168.746 146.301C168.602 149.593 169.039 153.745 171.428 156.96C176.107 163.257 176.28 172.069 194.293 169.971C203.05 168.948 208.016 162.15 210.599 155.351C210.739 155.019 210.8 154.834 210.8 154.834Z" fill="#F47A6E"/>
<path d="M179.625 45.611C179.625 45.611 186.592 53.6283 194.804 59.338C203.016 65.0477 209.658 71.7962 207.984 67.4851C206.31 63.1741 196.424 51.9811 194.812 50.1112C193.199 48.2414 198.948 51.9755 200.518 53.8416C202.088 55.7077 203.098 55.7077 201.656 52.4429C200.215 49.1781 194.112 45.227 188.51 44.2809C182.908 43.3349 179.625 45.611 179.625 45.611Z" fill="#313968"/>
<path opacity="0.44" d="M260.094 196.615L253.251 204.462C252.643 204.53 252.027 204.479 251.438 204.313C246.994 203.146 246.525 211.548 245.123 212.475C243.72 213.403 241.847 207.576 241.847 207.576C241.847 207.576 240.681 213.625 236.716 223.403C236.959 222.694 240.475 212.149 237.681 202.378C234.791 192.263 224.088 163.856 221.01 166.02C217.931 168.185 211.44 166.13 211.44 166.13C211.44 166.13 211.096 160.422 210.951 154.412C210.893 151.945 210.865 149.424 210.912 147.229C210.936 146.016 211.704 144.964 213.008 144.096C216.053 142.074 222.016 141.058 228.241 141.379C235.934 141.772 244.025 144.206 247.509 149.285C255.012 160.227 260.094 196.615 260.094 196.615Z" fill="#D34439"/>
<path d="M197.769 127.074C197.769 127.074 195.504 124.193 196.954 122.654C198.405 121.114 205.127 120.316 205.127 120.316C205.127 120.316 200.769 125.564 197.769 127.074Z" fill="#F47A6E"/>
<path d="M271.568 216.37C264.984 205.283 253.171 183.878 252.552 182.702C251.932 181.526 250.362 177.803 249.819 174.736C249.276 171.67 245.699 167.431 245.699 167.43C245.283 166.445 244.788 165.204 244.087 163.462C241.01 155.834 237.541 145.097 232.385 141.096C229.653 138.979 226.366 135.75 223.88 133.181C221.504 127.903 217.976 120.567 216.973 120.606C215.43 120.658 197.579 122.192 197.771 123.715C197.962 125.238 200.044 127.226 201.033 127.239C202.023 127.252 211.167 125.968 211.981 126.85C212.796 127.731 217.504 134.876 217.561 135.292C217.619 135.707 203.215 137.792 202.436 138.312C201.79 138.74 200.418 140.406 200.548 141.767C200.565 141.972 200.622 142.17 200.713 142.354C200.756 142.434 200.804 142.512 200.858 142.586C201.922 143.997 199.977 145.648 200.133 148.021C200.158 148.354 200.165 148.688 200.153 149.022C200.116 149.95 199.891 150.172 199.767 150.568C199.708 150.762 199.681 150.965 199.687 151.169C199.687 152.295 201.619 162.035 203.529 164.896C205.44 167.756 204.627 170.24 205.356 170.429C206.085 170.618 207.073 169.513 207.03 166.986C206.987 164.46 205.774 157.019 206.472 156.934C207.169 156.849 209.353 157.416 212.32 156.34C215.286 155.264 216.726 156.632 216.784 157.045C216.841 157.459 219.447 169.227 222.589 171.787C225.444 174.111 229.657 175.221 232.791 178.378C232.791 178.378 236.954 182.31 238.618 186.803C240.283 191.296 253.141 239.689 255.47 244.885C257.799 250.081 264.123 259.475 266.89 261.48C269.658 263.485 272.502 264.852 273.772 266.258C275.043 267.664 283.984 263.724 284.157 262.606C284.447 260.443 284.858 258.299 285.39 256.182C286.312 252.299 278.153 227.459 271.568 216.37Z" fill="#FF9F85"/>
<path d="M208.665 157.001C208.665 157.001 209.758 162.069 211.06 164.015C212.362 165.961 212.794 167.699 212.429 168.166C212.065 168.634 211.168 169.062 210.869 168.352C210.569 167.641 206.124 163.366 206.124 163.366C206.124 163.366 203.687 156.615 204.415 154.833C205.142 153.05 208.665 157.001 208.665 157.001ZM211.232 146.91L208.786 147.639C206.34 148.366 199.761 150.568 199.761 150.568C199.886 150.173 200.111 149.95 200.148 149.023C203.764 147.926 211.232 146.91 211.232 146.91ZM200.708 142.354C200.616 142.171 200.56 141.972 200.542 141.768C205.594 140.484 212.176 140.148 212.176 140.148C212.176 140.148 206.998 141.851 205.008 142.003C203.433 142.109 202.179 142.033 200.708 142.354Z" fill="#C43D51"/>
</g>
<rect x="0.15" y="0.15" width="362.7" height="232.7" stroke="#A09EEF" stroke-width="0.3"/>
<defs>
<filter id="filter0_d_17484_22506" x="-9" y="-8" width="381" height="251" filterUnits="userSpaceOnUse" color-interpolation-filters="sRGB">
<feFlood flood-opacity="0" result="BackgroundImageFix"/>
<feColorMatrix in="SourceAlpha" type="matrix" values="0 0 0 0 0 0 0 0 0 0 0 0 0 0 0 0 0 0 127 0" result="hardAlpha"/>
<feOffset dy="1"/>
<feGaussianBlur stdDeviation="4.5"/>
<feComposite in2="hardAlpha" operator="out"/>
<feColorMatrix type="matrix" values="0 0 0 0 0 0 0 0 0 0 0 0 0 0 0 0 0 0 0.1 0"/>
<feBlend mode="normal" in2="BackgroundImageFix" result="effect1_dropShadow_17484_22506"/>
<feBlend mode="normal" in="SourceGraphic" in2="effect1_dropShadow_17484_22506" result="shape"/>
</filter>
<clipPath id="clip0_17484_22506">
<rect width="363" height="233" fill="white"/>
</clipPath>
</defs>
</svg>
