<svg width="785" height="578" viewBox="0 0 785 578" fill="none" xmlns="http://www.w3.org/2000/svg">
<g clip-path="url(#clip0_17484_22217)">
<rect width="785" height="578" rx="10" fill="#FEFEFE"/>
<rect width="785" height="578" fill="#FEFEFE"/>
<g clip-path="url(#clip1_17484_22217)">
<path d="M-15 -10H804V586H-15V-10Z" fill="#FECEDD"/>
<path d="M29 -10H82.5386V586H29V-10ZM250.637 -10H304.176V586H250.637V-10ZM139.336 -10H192.874V586H139.336V-10ZM361.186 -10H414.724V586H361.186V-10ZM471.507 -10H525.045V586H471.507V-10ZM583.036 -10H636.575V586H583.036V-10ZM703.461 -10H757V586H703.461V-10Z" fill="#FEC7D8"/>
<path d="M804 523.1C803.614 523.034 803.222 523 802.83 523H-13.8302C-14.2289 523 -14.6194 523.035 -15 523.1V585.9C-14.6194 585.965 -14.2289 586 -13.8302 586H802.83C803.229 586 803.619 585.965 804 585.9L804 523.1Z" fill="#DBA37D"/>
<path d="M96.6552 395.068C96.6552 395.068 99.2265 365.088 90.3259 351.763C90.3259 351.763 77.2716 363.52 74.8981 393.892L82.8098 408L96.6552 395.068ZM69.36 391.737C69.36 391.737 66.9865 364.304 55.1189 350C55.1189 350 46.6139 366.068 48.1963 391.737L59.2727 399.574L69.36 391.737Z" fill="#4E9985"/>
<path d="M107.627 439C107.627 439 122.35 421.608 125 370.907C125 370.907 92.9039 395.078 89.076 439H107.627ZM45.7904 438.41C45.7904 438.41 15.7555 410.407 19.289 370.317C19.289 370.317 46.3793 386.825 57.8631 438.41C57.8631 438.41 48.6368 438.312 45.7904 438.41ZM81.4199 439C81.4199 439 89.5175 378.866 70.0833 360C70.0833 360 56.3909 372.233 61.3968 439H81.4199Z" fill="#58A691"/>
<path d="M96.3864 439.407C96.3864 439.407 111.27 392.995 105.787 361C105.787 361 77.9773 395.167 76.4104 440L96.3864 439.407ZM68.1851 439.605C68.1851 439.605 65.6391 389.045 42.3338 361.395C42.3338 361.395 34.745 393.291 46.9362 439.21L68.1851 439.605Z" fill="#69B395"/>
<path d="M35.403 438.777C36.9722 437.003 39.2287 436 41.5887 436H108.411C110.775 436 113.033 437.008 114.604 438.785C122.983 448.261 128.057 460.764 128 474.462C127.912 495.059 116.342 512.818 99.3842 521.638C96.3646 523.208 93.0045 524 89.6055 524H60.466C57.0603 524 53.6943 523.204 50.6698 521.629C33.6397 512.756 22 494.862 22 474.229C22.0001 460.619 27.0668 448.201 35.403 438.777Z" fill="white"/>
<path d="M114.588 438.762C122.978 448.161 128.058 460.562 128 474.148C127.963 482.748 125.888 490.849 122.232 498C71.7918 494.041 71.7862 451.496 73.486 436H108.388C110.755 436 113.015 436.999 114.588 438.762Z" fill="#F2F1FB"/>
<path d="M708.866 523H669.134C665.194 523 662 519.779 662 515.805V356.195C662 352.221 665.194 349 669.134 349H708.866C712.806 349 716 352.221 716 356.195V515.805C716 519.779 712.806 523 708.866 523Z" fill="#59B39A"/>
<path d="M716 356.195V515.805C716 519.778 712.852 523 708.968 523H698V349H708.968C712.852 349 716 352.222 716 356.195Z" fill="#4A9E86"/>
<path d="M698 368V385L662 384.94V368H698Z" fill="#4A9E86"/>
<path d="M716 368V385L698 384.968V368H716Z" fill="#458A77"/>
<path d="M698 489V505.823L662 506V489H698Z" fill="#4A9E86"/>
<path d="M716 489V505.908L698 506V489H716Z" fill="#458A77"/>
<path d="M763.866 523H724.134C720.194 523 717 519.779 717 515.805V356.195C717 352.221 720.194 349 724.134 349H763.866C767.806 349 771 352.221 771 356.195V515.805C771 519.779 767.806 523 763.866 523Z" fill="#A29AE3"/>
<path d="M771 356.195V515.805C771 519.778 767.807 523 763.866 523H752.737V349H763.866C767.807 349 771 352.222 771 356.195ZM752.737 367.984V384.803L717 384.743V367.984H752.737Z" fill="#938ADB"/>
<path d="M771 368V385L753 384.968V368H771Z" fill="#8279C7"/>
<path d="M753 489V505.823L717 506V489H753Z" fill="#938ADB"/>
<path d="M771 489V505.908L753 506V489H771Z" fill="#8279C7"/>
<path d="M361 445H422V507H361V445Z" fill="#112344"/>
<path d="M318 523H464V513.109C464 507.526 459.396 503 453.716 503H328.284C322.604 503 318 507.526 318 513.109V523Z" fill="#182F54"/>
<path d="M632 164.664V444.336C632 449.674 627.67 454 622.331 454H168.669C163.328 454 159 449.674 159 444.336V164.664C159 159.326 163.328 155 168.669 155H622.331C627.67 155 632 159.326 632 164.664Z" fill="#1C3763"/>
<path opacity="0.74" d="M465.884 172.733C465.287 173.5 322.774 172.37 322.774 172.37L323.382 170.819C319.082 168.511 317.548 161.672 317 155H471.282C474.434 164.861 466.207 172.32 465.884 172.733Z" fill="#0E1733"/>
<path d="M617 430.933V180.067C617 175.06 612.937 171 607.925 171H182.075C177.063 171 173 175.06 173 180.067V430.933C173 435.94 177.063 440 182.075 440H607.925C612.937 440 617 435.94 617 430.933Z" fill="#FFE6C2"/>
<path d="M173 395V432.276C173 436.542 177.063 440 182.075 440H607.925C612.937 440 617 436.542 617 432.276V395H173Z" fill="white"/>
<path d="M276.049 430H190.344C185.736 430 182 426.277 182 421.684V413.316C182 408.723 185.736 405 190.344 405H276.049C280.658 405 284.393 408.723 284.393 413.316V421.684C284.394 426.277 280.658 430 276.049 430ZM341.039 430H301.643C298.384 430 295.743 427.367 295.743 424.12V410.88C295.743 407.633 298.384 405 301.643 405H341.039C344.298 405 346.939 407.633 346.939 410.88V424.12C346.939 427.367 344.298 430 341.039 430ZM534.11 430H448.405C443.797 430 440.061 426.277 440.061 421.684V413.316C440.061 408.723 443.797 405 448.405 405H534.11C538.718 405 542.454 408.723 542.454 413.316V421.684C542.454 426.277 538.718 430 534.11 430ZM599.1 430H559.704C556.445 430 553.803 427.367 553.803 424.12V410.88C553.803 407.633 556.445 405 559.704 405H599.1C602.358 405 605 407.633 605 410.88V424.12C605 427.367 602.358 430 599.1 430Z" fill="#E8E6F7"/>
<path d="M372.5 425C376.642 425 380 421.642 380 417.5C380 413.358 376.642 410 372.5 410C368.358 410 365 413.358 365 417.5C365 421.642 368.358 425 372.5 425Z" fill="#E8E6F7"/>
<path d="M392.5 425C396.642 425 400 421.642 400 417.5C400 413.358 396.642 410 392.5 410C388.358 410 385 413.358 385 417.5C385 421.642 388.358 425 392.5 425Z" fill="#E8E6F7"/>
<path d="M413.5 425C417.642 425 421 421.642 421 417.5C421 413.358 417.642 410 413.5 410C409.358 410 406 413.358 406 417.5C406 421.642 409.358 425 413.5 425Z" fill="#E8E6F7"/>
<path d="M59.7141 134H255.248C261.166 134 265.963 140.564 265.963 148.661V225.008L288.23 251.618C290.024 253.762 288.482 257.018 285.681 257L59.7143 255.568C53.7969 255.568 49 249.004 49 240.906V148.661C48.9999 140.564 53.7968 134 59.7141 134Z" fill="white"/>
<path d="M299.528 266H52.7937C49.2855 266 46.0202 264.067 43.5994 260.556C41.2783 257.19 40 252.738 40 248.02V142.98C40 138.262 41.2783 133.81 43.5994 130.444C46.0202 126.933 49.2855 125 52.7937 125H262.904C266.413 125 269.678 126.933 272.099 130.444C274.42 133.81 275.698 138.262 275.698 142.98L275.698 142.999L274.556 219.119L304.505 255.385C306.119 257.34 306.453 259.98 305.376 262.277C304.299 264.573 302.059 266 299.528 266ZM52.7937 127.569C50.1515 127.569 47.6342 129.109 45.706 131.905C43.6781 134.845 42.5613 138.779 42.5613 142.98V248.02C42.5613 252.221 43.6781 256.155 45.706 259.095C47.6342 261.891 50.1513 263.431 52.7937 263.431H299.528C301.079 263.431 302.398 262.591 303.058 261.184C303.718 259.777 303.522 258.221 302.533 257.024L271.981 220.028L273.137 142.97C273.135 138.773 272.018 134.843 269.992 131.905C268.064 129.109 265.547 127.569 262.904 127.569H52.7937Z" fill="white"/>
<path d="M118.186 167.698V184.357C118.186 187.764 120.964 190.526 124.389 190.526H145.013C148.439 190.526 151.216 187.764 151.216 184.357V167.698C151.216 164.291 153.993 161.529 157.419 161.529H163.199C166.625 161.529 169.402 164.291 169.402 167.698V231.831C169.402 235.238 166.625 238 163.199 238H157.419C153.993 238 151.216 235.238 151.216 231.831V212.173C151.216 208.766 148.439 206.004 145.013 206.004H124.389C120.964 206.004 118.186 208.766 118.186 212.173V231.831C118.186 235.238 115.409 238 111.983 238H106.203C102.777 238 100 235.238 100 231.831V167.698C100 164.291 102.777 161.529 106.203 161.529H111.983C115.409 161.529 118.186 164.291 118.186 167.698ZM209 167.698V231.831C209 235.238 206.223 238 202.797 238H197.017C193.591 238 190.814 235.238 190.814 231.831V167.698C190.814 164.291 193.591 161.529 197.017 161.529H202.797C206.223 161.529 209 164.291 209 167.698ZM205.775 157.136H194.737C192.956 157.136 191.512 155.7 191.512 153.929V147.207C191.512 145.436 192.956 144 194.737 144H205.775C207.556 144 209 145.436 209 147.207V153.929C209 155.7 207.556 157.136 205.775 157.136Z" fill="#7F76C2"/>
<path d="M113.186 168.211V184.986C113.186 188.416 115.964 191.197 119.389 191.197H140.013C143.439 191.197 146.216 188.416 146.216 184.986V168.211C146.216 164.781 148.993 162 152.419 162H158.2C161.626 162 164.403 164.781 164.403 168.211V232.789C164.403 236.219 161.625 239 158.2 239H152.419C148.993 239 146.216 236.219 146.216 232.789V212.994C146.216 209.563 143.439 206.783 140.013 206.783H119.389C115.964 206.783 113.186 209.564 113.186 212.994V232.789C113.186 236.219 110.409 239 106.983 239H101.203C97.7771 239 95 236.219 95 232.789V168.211C95 164.781 97.7772 162 101.203 162H106.983C110.409 162 113.186 164.781 113.186 168.211ZM204 168.211V232.789C204 236.219 201.223 239 197.797 239H192.017C188.591 239 185.814 236.219 185.814 232.789V168.211C185.814 164.781 188.591 162 192.017 162H197.797C201.223 162 204 164.781 204 168.211Z" fill="#9C94E0"/>
<path d="M199.865 157H189.135C187.404 157 186 155.579 186 153.826V147.174C186 145.421 187.403 144 189.135 144H199.865C201.596 144 203 145.421 203 147.174V153.826C203 155.579 201.596 157 199.865 157Z" fill="#938ADB"/>
<path d="M484 327.625V356H300L300.492 339.095L300.825 327.625C300.825 327.625 300.835 327.424 300.88 327.059C301.144 324.865 302.708 316.742 311.569 311.054C321.898 304.427 343.382 301.529 349.995 298.212C356.605 294.898 368.451 292 392.414 292C416.378 292 428.223 294.898 434.833 298.212C441.443 301.528 462.93 304.427 473.259 311.054C478.134 314.187 480.803 318.055 482.256 321.263C483.886 324.856 484 327.625 484 327.625Z" fill="#F9AF58"/>
<path d="M485 335.529L483.61 338.944C439.066 339.129 343.822 338.884 300 337.77L300.333 326.506C300.333 326.506 300.342 326.308 300.387 325.95C303.76 327.948 317.987 320.464 323.545 318.32C340.232 311.882 362.293 313.744 363.772 304L412.226 306.365C412.226 306.365 423.397 305.578 436.21 311.883C452.244 319.015 470.619 324.589 481.257 319.041C484.109 323.09 485 335.529 485 335.529Z" fill="#F99E4D"/>
<path d="M528.676 395C529.143 382.145 529.133 372.205 528.463 367.405C526.012 349.837 469.809 322.021 399.715 321.045C329.621 320.069 304.946 335.197 279.457 347.885C263.718 355.719 260.876 378.622 261.004 395L528.676 395Z" fill="#8C4949"/>
<path d="M364.324 281.65C364.324 281.65 364.324 316.881 357.943 332.05C351.562 347.22 379.048 358.474 395.736 357.985C412.424 357.495 435.453 347.186 431.565 334.008C426.657 317.371 425.185 307.584 424.203 281.65C423.052 251.236 369.723 246.419 364.324 281.65Z" fill="#8C4949"/>
<path d="M425 299.99C424.467 294.131 424.33 290.15 424.008 281.603C422.865 251.247 369.917 246.439 364.556 281.603C364.556 281.603 364.85 286.564 364 297.59C373.751 309.161 385.638 315 394.676 315C405.881 315 415.361 310.119 425 299.99Z" fill="#723333"/>
<path d="M395.067 132.026C395.067 132.026 334.257 128.596 337.096 200.784C340.032 275.414 372.069 306 393.844 306C422.218 306 449.858 269.052 455.239 218.646C460.62 168.24 437.138 131.536 395.067 132.026Z" fill="#8C4949"/>
<path d="M421.06 222.683C420.871 226.842 418.563 230.116 415.906 229.997C413.249 229.878 411.249 226.409 411.438 222.251C411.628 218.092 413.936 214.817 416.593 214.936C419.25 215.055 421.25 218.524 421.06 222.683ZM375.263 221.51C375.314 225.673 373.199 229.074 370.539 229.105C367.879 229.137 365.682 225.788 365.632 221.625C365.581 217.462 367.696 214.062 370.356 214.03C373.015 213.999 375.212 217.347 375.263 221.51ZM434.022 207.888C433.796 207.856 433.578 207.781 433.382 207.666C433.185 207.552 433.013 207.399 432.876 207.219C429.422 202.671 424.496 200.364 418.242 200.361C413.414 200.358 409.567 201.789 409.528 201.803C408.634 202.141 407.629 201.696 407.288 200.808C406.946 199.92 407.392 198.926 408.286 198.585C408.463 198.518 412.681 196.936 418.123 196.915C425.476 196.888 431.539 199.733 435.65 205.144C436.227 205.904 436.074 206.985 435.308 207.557C435.126 207.694 434.919 207.793 434.698 207.85C434.477 207.906 434.248 207.919 434.022 207.888ZM354.08 206.601C353.833 206.65 353.578 206.646 353.333 206.588C353.087 206.529 352.858 206.419 352.66 206.264C351.908 205.674 351.779 204.591 352.374 203.844C356.608 198.526 362.731 195.817 370.084 196.01C375.525 196.152 379.705 197.828 379.88 197.9C380.768 198.261 381.192 199.267 380.828 200.147C380.464 201.027 379.451 201.448 378.565 201.089C378.514 201.068 374.705 199.557 369.887 199.452C363.632 199.314 358.657 201.511 355.1 205.98C354.845 206.3 354.483 206.521 354.08 206.601Z" fill="#121D3F"/>
<path d="M394.718 251C394.696 251 394.675 250.999 394.654 250.998C386.632 250.589 384.421 247.263 384.195 246.885C384.048 246.639 383.981 246.351 384.004 246.062C384.027 245.773 384.139 245.5 384.323 245.283C389.704 238.926 390.77 223.408 390.78 223.252C390.828 222.512 391.437 221.954 392.147 222.003C392.315 222.015 392.48 222.061 392.631 222.14C392.782 222.218 392.916 222.327 393.027 222.46C393.138 222.593 393.223 222.747 393.276 222.914C393.33 223.081 393.352 223.258 393.341 223.434C393.301 224.041 392.408 237.017 387.879 244.728C387.401 245.541 387.702 246.596 388.536 246.982C389.825 247.578 391.791 248.155 394.702 248.312C395.334 248.346 395.905 248.812 395.988 249.468C396.094 250.305 395.476 251 394.718 251Z" fill="#723333"/>
<path d="M407.127 243.951C407.127 243.951 406.919 239.736 412.03 238.14C417.142 236.544 431.181 232.779 434.841 236.823C438.501 240.867 433.004 246.323 425.179 247.477C417.355 248.631 407.134 247.983 407.127 243.951ZM379.863 243.988C379.863 243.988 380.081 239.774 374.973 238.166C369.865 236.558 355.834 232.761 352.165 236.797C348.496 240.833 353.981 246.302 361.803 247.473C369.625 248.645 379.847 248.02 379.863 243.988Z" fill="#7F3E3E"/>
<path d="M369 262.545C369 262.545 398.855 267.355 417 262C417 262 393.295 302.134 369 262.545Z" fill="white"/>
<path d="M335 171.499C335 171.499 340.821 133.571 376.46 124.54C412.099 115.509 450.899 130.642 456 168.681C456 168.681 437.108 174.365 415.85 172.497C394.592 170.628 367.707 170.94 357.078 172.497C346.448 174.054 335 171.499 335 171.499Z" fill="#121D3F"/>
<path d="M335.415 171.728C335.415 171.728 330.602 191.305 334.565 226.204L340.726 222.193C340.726 222.193 340.184 182.315 347.368 173.182L335.415 171.728ZM456.302 168.891C456.302 168.891 462.663 191.305 458.7 226.204L453.604 235C456.23 233.154 452.684 178.393 440.453 169.451L456.302 168.891ZM416.805 128.103C416.805 128.103 415.288 111.748 422.824 111.024C430.359 110.301 427.37 125.839 425.286 130.518C422.88 135.916 417.507 136.608 416.805 128.103Z" fill="#121D3F"/>
<path d="M405.125 125.434C405.125 125.434 403.607 108.762 411.152 108.025C418.698 107.287 415.705 123.126 413.618 127.896C411.209 133.398 405.828 134.104 405.125 125.434Z" fill="#121D3F"/>
<path d="M357.645 143.576C357.645 143.576 351.903 140.952 346.05 136.212C340.198 131.471 333.221 132.649 330.881 135.448C328.54 138.247 330.251 149.237 343.593 153.749C356.935 158.261 363.983 149.565 357.645 143.576Z" fill="#212851"/>
<path d="M364.882 133.749C364.882 133.749 354.444 121.678 359.278 117.008C364.112 112.339 374.337 123.49 376.34 130.886C378.343 138.282 374.067 143.302 364.882 133.749ZM391.102 124.349C391.102 124.349 388.392 108.509 394.911 107.094C401.43 105.679 404.43 120.62 402.344 127.992C400.258 135.364 394.036 137.376 391.102 124.349Z" fill="#121D3F"/>
<path d="M353.946 138.772C353.946 138.772 343.411 126.752 348.29 122.102C353.169 117.453 363.489 128.556 365.51 135.92C367.532 143.285 363.217 148.284 353.946 138.772Z" fill="#121D3F"/>
<path d="M445.5 152.03C445.5 152.03 456.627 151.518 462.032 154.753C467.438 157.988 467.202 164.064 462.044 164.814C456.887 165.564 449.538 163.981 442.891 161.242C436.243 158.504 438.776 153.552 445.5 152.03Z" fill="#212851"/>
<path d="M444.182 143.552C444.182 143.552 456.039 140.717 461.591 138.514C467.143 136.312 472.329 141.586 468.9 146.683C465.471 151.78 455.412 154.477 447.631 154.977C439.85 155.476 434.581 147.792 444.182 143.552Z" fill="#212851"/>
<path d="M359.666 157.154C359.666 157.154 344.012 171.457 348.971 178.429C353.929 185.401 368.366 167.171 370.923 162.618C374.41 156.409 369.108 149.999 359.666 157.154Z" fill="#25305B"/>
<path d="M416.439 168.455C416.439 168.455 421.146 185.967 426.611 184.958C432.076 183.949 429.521 171.116 428.555 166.544C426.876 158.598 413.298 153.482 416.439 168.455ZM398.705 132.984C398.705 132.984 393.998 115.472 400.242 112.434C406.486 109.396 410.945 122.989 409.852 131.885C408.758 140.782 400.627 141.551 398.705 132.984ZM346.607 151.483C346.607 151.483 322.152 147.789 322.001 156.17C321.849 164.552 349.798 162.563 354.371 158.176C358.943 153.789 346.607 151.483 346.607 151.483Z" fill="#212851"/>
<path d="M417.219 151.993C421.574 151.851 423.627 146.53 420.476 143.514C419.098 142.195 417.066 140.916 414.08 140.133C405.738 137.947 401.187 142.155 402.12 145.818C402.753 148.303 411.113 152.191 417.219 151.993ZM413.635 120.92C413.635 120.92 405.715 133.041 411.08 136.208C416.445 139.375 420.879 130.854 421.495 126.101C422.451 118.727 417.729 115.02 413.635 120.92Z" fill="#212851"/>
<path d="M383.768 133.334C383.768 133.334 378.507 128.43 376.563 122.361C374.619 116.292 378.113 111.109 380.89 110.211C385.619 108.681 392.573 115.627 392.975 126.247C393.378 136.868 388.762 138.12 383.768 133.334Z" fill="#121D3F"/>
<path d="M439.785 138.897C439.785 138.897 448.328 124.831 455 128.661C461.672 132.491 449.888 143.261 445.359 145.81C440.133 148.752 435.27 146.162 439.785 138.897Z" fill="#212851"/>
<path d="M433.478 133.425C433.478 133.425 437.404 117.362 444.899 119.137C452.393 120.912 444.399 134.725 440.85 138.497C436.757 142.849 431.354 141.751 433.478 133.425Z" fill="#121D3F"/>
<path d="M376.849 156.048C376.849 156.048 376.072 178.108 382.905 178.124C389.738 178.141 389.844 166.568 389.904 159.615C389.997 148.558 377.586 144.451 376.849 156.048ZM428.771 154.262C428.771 154.262 450.09 156.191 450.981 147.165C451.873 138.14 436.245 142.284 430.956 144.014C425.666 145.744 421.043 153.389 428.771 154.262ZM433.915 169.255C433.915 169.255 450.866 182.442 456.652 180.87C462.438 179.297 461.242 169.196 448.968 163.731C433.82 156.986 425.948 161.959 433.915 169.255ZM423.026 130.595C423.026 130.595 423.913 110.639 431.309 111.005C438.705 111.371 435.456 127.826 433.132 133.897C430.808 139.968 421.968 142.462 423.026 130.595ZM383.791 136.852C383.791 136.852 380.842 129.656 379.934 123.704C379.027 117.751 374.631 114.079 370.623 116.647C366.616 119.215 367.224 130.772 373.941 139.272C380.658 147.771 386.48 144.193 383.791 136.852ZM395.747 160.738C395.747 160.738 396.756 176.081 403.51 176.987C410.264 177.894 411.531 170.325 410.328 163.844C408.521 154.112 394.491 141.486 395.747 160.738ZM356.397 142.698C356.397 142.698 344.439 136.838 345.021 130.311C345.602 123.784 356.219 128.028 364.212 135.027C372.206 142.026 364.95 146.757 356.397 142.698ZM385.729 129.239C385.729 129.239 386.269 143.748 392.471 143.218C398.673 142.689 397.369 133.148 395.128 128.905C391.651 122.323 385.661 122.038 385.729 129.239Z" fill="#212851"/>
<path d="M339.318 157.764C339.318 157.764 324.936 165.425 327.253 171.891C329.569 178.357 337.658 176.032 341.828 172.788C349.322 166.957 356.729 150.653 339.318 157.764Z" fill="#25305B"/>
<path d="M341.285 223.99C340.707 220.8 338.391 218.154 335.259 217.284C333.235 216.721 330.866 216.87 328.554 218.888C322.668 224.024 335.175 254.106 346.21 251.171L341.285 223.99ZM450.27 223.99C450.848 220.8 453.164 218.154 456.296 217.284C458.32 216.721 460.689 216.87 463.001 218.888C468.887 224.024 456.38 254.106 445.345 251.171L450.27 223.99ZM527.675 395C528.143 382.123 528.133 372.166 527.463 367.357C525.012 349.759 471.583 321.6 401.489 320.622C331.395 319.645 303.946 335.093 278.457 347.803C262.718 355.652 259.876 378.594 260.004 395H527.675Z" fill="#8C4949"/>
<path d="M548 395C546.557 391.392 545.008 388.162 543.373 385.458C536.685 374.397 530.24 366.55 524.852 361.083C516.413 348.012 488.444 331.551 447.346 325.347C436.293 356.407 394.484 371.593 394.484 371.593C354.561 353.568 343.08 329.002 341.432 325C309.547 328.522 295.085 339.666 278.626 347.869C277.483 348.439 276.388 349.1 275.351 349.844C273.598 350.72 258.82 358.677 242.627 385.458C240.991 388.161 239.443 391.392 238 395L548 395Z" fill="#F9AF58"/>
<path d="M389.998 389C389.928 389 389.857 388.991 389.786 388.971C380.01 386.265 370.528 382.123 361.602 376.662C354.465 372.295 347.665 367.079 341.392 361.16C330.707 351.076 325.167 342.302 325.113 342.214C325.006 342.036 324.973 341.823 325.022 341.621C325.07 341.419 325.196 341.245 325.372 341.134C325.547 341.024 325.759 340.987 325.962 341.032C326.165 341.076 326.342 341.198 326.455 341.372C326.509 341.458 331.966 350.092 342.517 360.041C352.241 369.21 368.408 381.406 390.208 387.442C390.393 387.493 390.553 387.61 390.659 387.77C390.764 387.93 390.808 388.123 390.782 388.313C390.757 388.503 390.663 388.678 390.519 388.804C390.374 388.93 390.189 389 389.998 389ZM399.994 389C399.802 389 399.617 388.93 399.473 388.804C399.329 388.678 399.235 388.503 399.209 388.313C399.184 388.123 399.228 387.93 399.333 387.77C399.439 387.61 399.599 387.493 399.783 387.442C421.605 381.401 437.783 369.187 447.512 360.005C458.051 350.059 463.482 341.458 463.536 341.372C463.592 341.284 463.664 341.207 463.748 341.147C463.833 341.087 463.929 341.043 464.03 341.02C464.132 340.997 464.237 340.994 464.339 341.011C464.442 341.028 464.54 341.066 464.628 341.121C464.716 341.176 464.793 341.248 464.853 341.333C464.914 341.418 464.957 341.514 464.98 341.615C465.003 341.717 465.006 341.822 464.989 341.925C464.972 342.028 464.934 342.126 464.879 342.214C464.825 342.302 459.285 351.076 448.599 361.16C442.326 367.079 435.527 372.295 428.39 376.662C419.464 382.123 409.981 386.265 400.206 388.971C400.137 388.99 400.066 389 399.994 389Z" fill="#F99E4D"/>
</g>
</g>
<rect x="0.5" y="0.5" width="784" height="577" rx="9.5" stroke="#E5DDDD"/>
<defs>
<clipPath id="clip0_17484_22217">
<rect width="785" height="578" rx="10" fill="white"/>
</clipPath>
<clipPath id="clip1_17484_22217">
<rect width="819" height="596" fill="white" transform="translate(-15 -10)"/>
</clipPath>
</defs>
</svg>
