<svg width="363" height="233" viewBox="0 0 363 233" fill="none" xmlns="http://www.w3.org/2000/svg">
<g clip-path="url(#clip0_17484_22308)">
<g filter="url(#filter0_d_17484_22308)">
<path d="M0 9C0 4.02944 4.02944 0 9 0H354C358.971 0 363 4.02944 363 9V233H0V9Z" fill="#FEFEFE"/>
</g>
<g opacity="0.81">
<path opacity="0.6" d="M558.814 76.912L532.773 338.986C531.847 348.306 527.51 356.948 520.605 363.234C513.7 369.519 504.719 373 495.406 373H105.244C96.1887 373 87.4379 369.709 80.604 363.733C73.7701 357.757 69.3134 349.498 68.0547 340.479L31.3649 77.5471C30.4985 71.3416 31.1807 65.0169 33.3501 59.1427C35.5195 53.2685 39.1079 48.0294 43.792 43.8976C44.6238 43.1607 45.4905 42.4617 46.3922 41.8003C48.3455 40.365 50.4321 39.1229 52.623 38.0913L74.3961 27.8355L76.8552 26.6842L82.96 23.8061L86.2642 22.248L122.3 5.27262L125.201 3.90453L158.707 -11.8774L161.544 -13.2205L177.613 -20.792L179.099 -21.4905L179.153 -21.5154C179.738 -21.7917 180.33 -22.0584 180.921 -22.3155C181.276 -22.4709 181.631 -22.6225 181.986 -22.7664C194.602 -28.0122 208.487 -29.3524 221.865 -26.6155L237.194 -23.4821L240.359 -22.8336L368.388 3.33273L370.677 3.80091L414.384 12.7328L417.354 13.3411L528.929 36.1457C538.047 38.0096 546.151 43.2115 551.673 50.7434C557.194 58.2752 559.739 67.6006 558.814 76.912Z" fill="#F7EDC9"/>
<path d="M69.9967 371.65C67.8583 362.439 65.7193 353.226 63.5796 344.014C58.5111 322.176 53.4414 300.337 48.3704 278.499C42.3409 252.526 36.3102 226.552 30.2781 200.578C25.244 178.892 20.2087 157.207 15.172 135.525C13.665 129.031 12.1579 122.538 10.6509 116.045C9.84706 112.597 8.83897 109.065 8.41321 105.532C6.53449 89.8051 15.3572 75.687 28.8118 68.2449C34.4467 65.1262 40.0841 62.0146 45.7241 58.91L111.353 22.6818C126.459 14.3438 141.565 6.00574 156.67 -2.33231C170.429 -9.91234 186.175 -13.0736 201.782 -11.3894C204.556 -11.0924 207.328 -10.7821 210.101 -10.4775L256.171 -5.4337L327.744 2.40118L407.437 11.1249L478.622 18.9196L524.553 23.9481C527.242 24.2412 529.932 24.5228 532.616 24.8312C548.803 26.7161 562.947 38.3267 566.195 54.6516C567.086 59.1284 566.821 63.655 566.723 68.1797C566.586 74.5651 566.448 80.9505 566.309 87.3359L564.887 153.298C564.313 180.039 563.74 206.779 563.168 233.517L561.719 300.784C561.515 310.306 561.391 319.833 561.104 329.351C560.513 348.967 544.431 364.16 525.357 365.93C523.983 366.059 523.969 368.229 525.357 368.101C543.304 366.436 559.403 353.58 562.659 335.355C563.38 331.332 563.313 327.198 563.401 323.114L564.478 273.17L566.154 195.266C566.712 169.439 567.268 143.612 567.823 117.785C568.18 101.246 568.536 84.7083 568.892 68.1701C568.986 63.8198 569.209 59.4924 568.491 55.1727C565.536 37.4187 550.203 24.7143 532.798 22.6684C524.714 21.7106 516.613 20.8965 508.521 20.0115L448.482 13.4581L370.25 4.88382L291.092 -3.78244L229.333 -10.5427C220.14 -11.5503 210.947 -12.5809 201.75 -13.5636C185.815 -15.253 169.748 -12.0124 155.702 -4.27667C150.702 -1.5335 145.714 1.21988 140.737 3.98348L74.9207 40.3132C59.1145 49.0395 43.3076 57.7645 27.5002 66.4882C14.4789 73.7044 5.58176 87.0945 6.01516 102.31C6.14499 106.831 7.29437 111.16 8.30629 115.528C12.0243 131.543 15.7422 147.556 19.4602 163.568C25.2873 188.663 31.1138 213.757 36.9396 238.852C42.8227 264.188 48.7058 289.524 54.5889 314.862C58.4736 331.598 62.3596 348.335 66.2469 365.072C66.8005 367.456 67.3536 369.84 67.906 372.223C68.223 373.583 70.3098 373.008 69.9928 371.648L69.9967 371.65Z" fill="#F7EDC9"/>
<g opacity="0.5">
<path d="M353.773 5.90698C346.077 8.89343 341.149 16.7142 341.003 24.7562C340.846 33.3883 346.446 41.1542 354.049 45.0883C358.061 47.1688 362.779 48.3565 367.324 47.9045C372.425 47.3976 376.839 44.553 380.13 40.776C386.17 33.8423 388.46 23.4833 382.591 15.7326C379.504 11.6586 375.068 8.81588 370.384 6.80159C367.666 5.63273 364.677 4.48658 361.674 5.24312C359.127 5.8824 357.064 7.9364 356.991 10.5975C356.952 12.0633 359.086 12.2676 359.519 10.9342C360.072 9.23198 362.041 8.46409 363.724 8.51705C365.878 8.58703 367.979 9.54784 369.896 10.4462C373.385 12.0823 376.705 14.1873 379.195 17.1397C384.357 23.2526 382.881 31.7599 378.219 37.6987C375.775 40.8119 372.373 43.5619 368.394 44.3828C364.59 45.1753 360.316 44.3733 356.804 42.8262C350.29 39.9589 344.79 33.9179 343.946 26.7629C343.03 18.9857 347.118 10.7451 354.374 7.30847C355.158 6.9302 354.599 5.58735 353.773 5.90698Z" fill="#DDC69F"/>
</g>
<g opacity="0.5">
<path d="M318.059 107.033C314.227 110.644 312.052 115.824 312.001 121.078C311.957 126.088 313.922 132.98 318.925 135.156C324.059 137.391 330.733 134.88 334.586 131.232C336.617 129.31 338.031 126.826 338.65 124.095C339.269 121.364 339.064 118.51 338.061 115.896C336.868 112.772 334.764 110.082 332.023 108.177C329.183 106.161 325.979 105.213 322.53 105.002C321.477 104.937 321.231 106.653 322.278 106.864C327.221 107.856 332.188 110.463 334.706 115.001C337.023 119.182 336.928 124.408 333.829 128.159C331.004 131.579 326.042 133.888 321.575 133.214C316.704 132.476 314.585 126.437 314.295 122.116C313.955 117.025 315.585 111.835 319.218 108.206C319.975 107.446 318.824 106.305 318.05 107.033H318.059Z" fill="#DDC69F"/>
<path d="M283.928 95.1965C281.051 99.233 281.632 104.816 284.105 108.899C286.783 113.322 291.385 116.396 295.855 118.773C300.806 121.402 306.138 122.75 311.699 121.569C316.875 120.469 321.744 117.614 325.764 114.222C329.501 111.067 332.698 106.883 333.667 101.985C334.644 97.0436 333.389 92.0109 330.948 87.6838C325.879 78.6968 315.938 72.0579 305.672 71.1038C300.382 70.6123 294.968 71.8686 290.529 74.8305C286.204 77.7121 282.666 81.9704 282.06 87.2746C281.94 88.3224 283.675 88.8043 284.088 87.8253C285.596 84.2362 287.8 80.8651 290.921 78.4941C294.042 76.1231 297.954 74.5532 301.878 74.2588C311.095 73.5685 320.139 78.519 325.886 85.5518C328.653 88.9381 330.799 93.2003 331.051 97.6287C331.302 102.057 329.489 106.14 326.579 109.409C323.55 112.817 319.602 115.547 315.454 117.396C310.884 119.433 306.041 119.85 301.284 118.234C298.729 117.366 296.333 116.062 294.048 114.641C291.825 113.258 289.713 111.704 287.954 109.759C284.69 106.17 282.883 100.652 285.819 96.2998C286.611 95.1238 284.743 94.0684 283.94 95.1965H283.928Z" fill="#DDC69F"/>
<path d="M269.773 97.9292C262.077 100.983 257.149 108.988 257.003 117.217C256.846 126.048 262.446 133.995 270.049 138.022C274.061 140.151 278.779 141.365 283.324 140.902C288.425 140.383 292.837 137.475 296.13 133.608C302.17 126.515 304.46 115.913 298.591 107.983C295.504 103.815 291.068 100.906 286.384 98.8427C283.666 97.6467 280.677 96.4758 277.674 97.248C275.127 97.9041 273.064 100.006 272.989 102.727C272.952 104.229 275.087 104.438 275.519 103.073C276.072 101.332 278.041 100.546 279.724 100.6C281.878 100.67 283.979 101.653 285.895 102.572C289.385 104.248 292.705 106.402 295.195 109.421C300.357 115.679 298.881 124.382 294.219 130.461C291.775 133.646 288.373 136.46 284.394 137.3C280.59 138.111 276.326 137.3 272.802 135.708C266.29 132.774 260.79 126.592 259.946 119.269C259.03 111.31 263.118 102.88 270.372 99.3614C271.158 98.9743 270.599 97.6022 269.773 97.9292Z" fill="#DDC69F"/>
</g>
<g opacity="0.5">
<path d="M370.539 168.825C361.318 166.148 351.092 170.207 345.265 177.798C338.867 186.133 338.59 197.592 342.869 206.99C345.084 211.854 348.654 216.297 353.147 219.117C358.17 222.268 364.314 222.541 369.965 221.342C380.092 219.192 389.108 211.398 389.934 200.399C390.447 193.594 387.905 186.804 384.665 180.983C383.169 178.288 381.321 175.516 378.455 174.234C375.821 173.06 372.497 173.272 370.552 175.634C369.709 176.664 370.843 178.598 372.08 177.659C373.674 176.45 375.843 176.641 377.482 177.678C379.552 178.987 380.837 181.32 381.978 183.442C384.413 187.963 386.355 193.018 386.473 198.241C386.58 202.953 384.994 207.427 381.84 210.878C378.948 214.043 375.154 216.237 371.114 217.454C366.425 218.861 360.838 219.252 356.331 217.021C352.203 214.974 348.895 211.317 346.635 207.284C342.34 199.629 341.571 189.526 345.995 181.742C350.731 173.409 360.791 168.238 370.126 170.331C371.08 170.544 371.483 169.102 370.533 168.825H370.539Z" fill="#DDC69F"/>
</g>
<g opacity="0.5">
<path d="M106.922 43.0048C103.844 43.3207 100.86 44.2477 98.1431 45.7317C95.4263 47.2157 93.0313 49.2271 91.0977 51.6487C89.1684 54.0406 87.7235 56.7872 86.8442 59.7344C85.9023 62.961 85.4943 66.7095 86.9872 69.8252C88.48 72.941 91.6716 75.0494 94.7583 76.353C97.9054 77.7013 101.34 78.235 104.747 77.9052C111.652 77.1693 117.139 72.5529 119.189 65.9047C120.297 62.183 120.269 58.214 119.109 54.5083C117.892 50.5304 115.622 47.2006 112.533 44.4461C112.351 44.2895 112.116 44.2077 111.876 44.217C111.636 44.2263 111.409 44.326 111.239 44.4962C111.069 44.6664 110.97 44.8946 110.96 45.1352C110.951 45.3757 111.033 45.6109 111.189 45.7937C115.214 50.3106 118.052 56.5517 117.145 62.701C116.283 68.5158 112.379 73.4686 106.585 74.8888C101.145 76.2269 94.3655 74.6021 90.5238 70.3796C86.5468 66.006 89.0882 58.6754 91.9328 54.3554C95.2921 49.2497 100.808 45.4229 106.916 44.6736C107.957 44.5455 107.994 42.8997 106.916 43.0048H106.922Z" fill="#DDC69F"/>
<path d="M133.648 33.9521C132.889 39.4508 130.635 44.9058 126.51 48.7302C124.278 50.7607 121.653 52.3075 118.798 53.2738C117.973 53.563 117.132 53.8104 116.278 54.0216C114.256 54.5138 112.192 54.817 110.113 54.9272C104.421 55.2507 98.4304 54.5106 93.0814 52.4081C92.6848 52.2521 92.2939 52.0903 91.9049 51.9191C91.5861 51.7802 91.273 51.6356 90.9656 51.4815C87.0757 49.5617 83.9714 46.6601 81.5559 43.1648C80.879 42.1863 80.2581 41.1699 79.6963 40.1206C79.4838 39.7267 79.2789 39.3271 79.0777 38.92C77.37 35.4419 75.8235 31.6308 75 27.7246L77.4459 26.583C77.9772 29.1554 78.8576 31.665 79.8291 34.089C80.3225 35.3239 80.8614 36.5435 81.461 37.7327C82.0328 38.8751 82.6662 39.9853 83.3585 41.0586C83.6318 41.4848 83.9183 41.9053 84.2143 42.3162C86.4913 45.4728 89.4932 47.7503 92.903 49.2991C93.6145 49.6264 94.347 49.9194 95.0927 50.1819C96.16 50.5566 97.2478 50.8697 98.3507 51.12C103.622 52.3282 109.396 52.5907 114.698 51.4491C114.859 51.4149 115.018 51.3768 115.182 51.3388C116.021 51.142 116.85 50.9 117.664 50.6139C121.563 49.2382 124.999 46.8408 127.299 43.26C130.052 38.9675 131.073 33.777 131.022 28.7273C130.94 20.443 128.047 11.782 122.65 5.35661L125.536 4C132.043 12.2653 135.09 23.5786 133.648 33.9521Z" fill="#DDC69F"/>
<path d="M86.9444 30.1448C86.6374 34.1964 85.1969 38.0708 82.7959 41.3024C82.2412 42.0614 81.6417 42.7846 81.0006 43.4681C77.2848 47.4412 72.2007 50.1853 66.8035 51.3344C61.1102 52.5477 54.9083 52.2712 49.8432 49.085C47.6558 47.6894 45.6859 45.9632 44 43.9648C44.8274 43.2169 45.6896 42.5073 46.5866 41.8361C48.3971 43.9602 50.594 45.7014 53.0542 46.9621C57.5956 49.2193 63.2338 48.8259 67.9611 47.4003C72.0413 46.1694 75.8672 43.9492 78.7784 40.7474C78.8979 40.6169 79.0137 40.4844 79.1275 40.3578C79.7853 39.5956 80.3759 38.7751 80.8925 37.9059C82.6625 34.9182 83.551 31.4682 83.4506 27.9732C83.412 26.4966 83.243 25.0267 82.9458 23.5814L86.2328 22C86.8797 24.6607 87.1197 27.4084 86.9444 30.1448Z" fill="#DDC69F"/>
</g>
<g opacity="0.5">
<path d="M156.18 148.38C151.662 152.66 149.101 158.819 149.004 165.048C148.945 168.239 149.536 171.409 150.74 174.36C152.018 177.456 153.986 180.634 157.136 182.037C160.315 183.447 164.095 183.142 167.362 182.187C170.459 181.287 173.305 179.67 175.675 177.465C180.751 172.706 182.341 165.417 179.825 158.905C178.392 155.236 175.908 152.08 172.691 149.841C169.332 147.459 165.521 146.29 161.451 146.002C160.395 145.927 160.144 147.684 161.2 147.883C167.145 149.004 173.123 152.132 176.22 157.562C179.177 162.743 179.133 169.349 175.239 174.038C171.745 178.246 165.605 181.139 160.106 180.191C154.275 179.183 151.715 171.957 151.331 166.697C150.875 160.44 152.896 154.017 157.359 149.572C158.119 148.804 156.963 147.653 156.186 148.388L156.18 148.38Z" fill="#DDC69F"/>
<path d="M115.275 134.013C111.886 138.775 112.568 145.38 115.45 150.21C118.614 155.512 124.071 159.184 129.377 162.043C135.241 165.205 141.583 166.887 148.206 165.523C154.396 164.247 160.209 160.845 165.028 156.803C169.456 153.088 173.257 148.193 174.522 142.42C175.836 136.425 174.331 130.254 171.366 124.988C165.359 114.288 153.613 106.36 141.459 105.144C135.788 104.578 129.987 105.681 124.994 108.479C120.356 111.074 116.027 115.178 114.073 120.231C113.599 121.455 113.271 122.732 113.097 124.035C112.906 125.431 114.681 125.961 115.198 124.613C116.94 120.145 119.783 116.012 123.674 113.186C127.633 110.296 132.403 108.492 137.293 108.242C148.393 107.664 159.351 113.829 166.109 122.499C169.393 126.707 171.884 131.903 172.052 137.334C172.216 142.711 169.89 147.609 166.344 151.518C162.631 155.614 157.81 158.949 152.756 161.12C147.142 163.532 141.276 163.91 135.501 161.854C132.374 160.741 129.437 159.097 126.642 157.315C124.021 155.643 121.546 153.745 119.483 151.397C115.641 147.025 113.632 140.313 117.156 135.124C117.957 133.945 116.079 132.876 115.271 134.013H115.275Z" fill="#DDC69F"/>
<path d="M97.9873 137.882C88.9072 141.486 83.132 150.872 83.0021 160.452C82.8646 170.631 89.3943 179.768 98.2605 184.461C103.155 187.051 108.978 188.516 114.533 187.833C120.389 187.112 125.451 183.706 129.211 179.298C136.249 171.048 138.853 158.857 131.97 149.711C128.309 144.843 123.004 141.47 117.45 139.077C114.296 137.717 110.776 136.369 107.304 137.319C104.467 138.096 102.146 140.378 102.032 143.388C101.972 144.839 104.156 145.095 104.546 143.725C105.105 141.774 107.239 140.598 109.196 140.535C111.815 140.45 114.34 141.529 116.677 142.595C120.96 144.545 125.083 147.073 128.185 150.64C131.176 154.031 132.734 158.436 132.533 162.938C132.331 167.56 130.418 171.992 127.702 175.7C124.882 179.548 120.757 183.025 116.031 184.186C111.305 185.346 105.954 184.402 101.544 182.479C93.601 178.998 86.8994 171.558 85.9403 162.767C84.9144 153.362 89.8337 143.409 98.5815 139.312C99.3647 138.944 98.8031 137.582 97.9854 137.907L97.9873 137.882Z" fill="#DDC69F"/>
</g>
</g>
<g opacity="0.81">
<path d="M421.39 184.19C421.044 184.864 420.654 185.516 420.223 186.141C417.104 190.688 411.944 193.834 406.431 194.421C404.665 192.969 402.58 189.528 402.347 187.257C402.128 184.958 402.819 182.665 404.272 180.866C405.179 179.751 406.342 178.877 407.494 178.015C408.503 177.263 410.455 176.423 411.141 175.37C414.261 170.586 418.604 166.716 423.722 164.155C424.149 170.953 424.507 178.13 421.39 184.19ZM393.653 196.45C391.425 196.47 390.17 197.264 387.969 196.909C383.321 196.153 379.281 193.573 375.713 190.418C374.394 189.267 373.141 188.016 371.943 186.76C369.633 184.332 367.407 181.773 365.851 178.808C361.615 170.717 362.899 160.969 364.607 152C374.791 156.789 383.173 164.693 388.531 174.559C392.379 181.683 392.409 188.452 393.653 196.45Z" fill="#6FBA82"/>
</g>
<g opacity="0.81">
<path d="M239.5 82C261.315 82 279 64.3153 279 42.5C279 20.6848 261.315 3 239.5 3C217.685 3 200 20.6848 200 42.5C200 64.3153 217.685 82 239.5 82Z" fill="#DDC69F"/>
<path opacity="0.6" d="M261.882 64.6274C274.379 52.1306 274.379 31.8694 261.882 19.3726C249.385 6.87581 229.124 6.87581 216.627 19.3726C204.131 31.8694 204.131 52.1306 216.627 64.6274C229.124 77.1242 249.385 77.1242 261.882 64.6274Z" fill="#F7EDC9"/>
<path d="M238.376 27.5686C238.18 31.8548 238.18 36.143 238.001 40.4273C237.946 41.6938 239.861 42.5933 240.748 41.5284C243.226 38.5409 245.338 35.2796 247.852 32.3074C249.089 30.8444 250.367 29.415 251.687 28.0192C252.341 27.322 253.01 26.633 253.694 25.9522C254.41 25.2372 255.387 24.5374 255.803 23.6132C256.554 21.9493 255.034 20.4546 253.308 21.1943C252.354 21.6032 251.646 22.5597 250.953 23.2861C250.261 24.0125 249.545 24.777 248.856 25.5357C247.566 26.9619 246.319 28.4199 245.113 29.9095C242.655 32.9521 239.992 36.1544 238.233 39.6363L241.224 40.4216C240.883 36.1392 240.726 31.8472 240.385 27.5629C240.287 26.3306 238.443 26.3059 238.388 27.5629L238.376 27.5686Z" fill="#DDC69F"/>
<path d="M211.923 43.7731C214.481 43.7731 214.487 39.7673 211.923 39.7673C209.358 39.7673 209.36 43.7731 211.923 43.7731ZM264.079 43.7731C266.638 43.7731 266.643 39.7673 264.079 39.7673C261.514 39.7673 261.516 43.7731 264.079 43.7731ZM238.687 68C241.248 68 241.252 63.9942 238.687 63.9942C236.123 63.9942 236.125 68 238.687 68ZM238.687 19.0058C241.248 19.0058 241.252 15 238.687 15C236.123 15 236.125 19.0058 238.687 19.0058ZM238.687 43.0635C241.248 43.0635 241.252 39.0596 238.687 39.0596C236.123 39.0596 236.125 43.0635 238.687 43.0635Z" fill="white"/>
</g>
<g opacity="0.81">
<path d="M437.643 226H357.357C355.503 226 354 227.507 354 229.367V367.633C354 369.493 355.503 371 357.357 371H437.643C439.497 371 441 369.493 441 367.633V229.367C441 227.507 439.497 226 437.643 226Z" fill="#DDC69F"/>
</g>
<path d="M98.6447 76.0191C96.3649 76.0143 94.0957 76.3273 91.9032 76.949C91.3531 77.0906 90.8184 77.2839 90.2779 77.4561L89.4778 77.7411L89.0796 77.8923L88.6949 78.0549C87.6409 78.4778 86.6196 78.981 85.6175 79.4995C83.6092 80.5585 81.6698 81.742 79.8107 83.043C79.5779 83.1999 79.3587 83.3779 79.1394 83.5539C78.9201 83.7299 78.6913 83.8983 78.4874 84.0934L77.8584 84.6579L77.2641 85.2568C76.4871 86.0708 75.7794 86.9475 75.1483 87.878C74.5244 88.8145 73.9697 89.7948 73.4884 90.8112C73.0129 91.8306 72.6036 92.8794 72.2632 93.951C71.5931 96.1035 71.159 98.3219 70.9687 100.567C70.5973 105.07 70.9387 109.602 71.9805 113.999C72.4921 116.201 73.0383 118.427 73.2288 120.715C73.2461 121.002 73.2749 121.289 73.2807 121.576L73.2942 122.437L73.2557 123.3C73.2384 123.589 73.1941 123.874 73.1653 124.161C73.0078 125.307 72.6919 126.426 72.2267 127.486C71.7516 128.539 71.1469 129.529 70.4263 130.433C69.7262 131.338 68.9838 132.201 68.2471 133.066C67.5105 133.93 66.7795 134.788 66.0967 135.693C65.4058 136.581 64.7877 137.524 64.2483 138.511C63.187 140.498 62.5498 142.681 62.3769 144.924C62.1842 147.172 62.5474 149.432 63.4347 151.508C64.347 153.582 65.8718 155.331 67.8067 156.523C68.7723 157.119 69.8343 157.543 70.9457 157.778C72.0616 158.016 73.2152 158.02 74.3328 157.79C73.2155 158.047 72.0564 158.068 70.9303 157.853C69.8032 157.635 68.7227 157.224 67.7374 156.638C65.7435 155.462 64.1579 153.708 63.1924 151.612C62.2647 149.506 61.8685 147.207 62.0383 144.915C62.1917 142.62 62.8204 140.381 63.8848 138.339C64.423 137.326 65.0424 136.359 65.7371 135.446C66.4237 134.531 67.1604 133.661 67.8932 132.792C68.626 131.923 69.3627 131.07 70.0513 130.167L70.3071 129.83L70.5456 129.486L70.7841 129.141C70.866 129.028 70.9412 128.911 71.0091 128.789L71.4265 128.066C71.5535 127.817 71.665 127.563 71.7843 127.312C72.2279 126.29 72.5276 125.212 72.6748 124.109C72.7017 123.832 72.7441 123.556 72.7594 123.279L72.796 122.443L72.7787 121.605C72.7787 121.325 72.7421 121.046 72.7248 120.768C72.6183 119.649 72.4494 118.536 72.219 117.435C71.9939 116.329 71.7208 115.233 71.465 114.125C71.2092 113.017 70.9976 111.892 70.8264 110.765C70.6552 109.639 70.5244 108.506 70.4417 107.369C70.359 106.233 70.3109 105.092 70.3225 103.952C70.334 102.812 70.3763 101.671 70.4879 100.535C70.6924 98.2577 71.1438 96.0092 71.8343 93.8286C72.1818 92.7384 72.6027 91.6728 73.0941 90.639C73.5982 89.6082 74.1768 88.6152 74.8252 87.6676C75.4736 86.7254 76.1979 85.8373 76.991 85.0119L77.6045 84.4072L78.2508 83.8332C78.4604 83.6419 78.6951 83.4716 78.9182 83.2937C79.1413 83.1157 79.3683 82.9378 79.6087 82.779C81.4913 81.4861 83.4553 80.3146 85.4886 79.2718C86.5118 78.7667 87.5466 78.2788 88.6141 77.8712L89.0123 77.7124L89.4162 77.5689L90.224 77.2858C90.7703 77.1212 91.3127 76.9375 91.8686 76.8036C92.9716 76.5086 94.0946 76.2931 95.2288 76.1588L96.0808 76.0689C96.3655 76.0478 96.6579 76.0383 96.9348 76.023L97.3618 76H97.7888L98.6447 76.0191ZM102.93 82.3121C103.363 81.0122 104.096 79.8313 105.071 78.8643C106.046 77.8973 107.235 77.1712 108.543 76.7443C109.069 76.5768 109.611 76.4621 110.16 76.4018C110.71 76.3377 111.264 76.3261 111.816 76.3674C112.369 76.406 112.917 76.495 113.453 76.6333C113.99 76.7745 114.514 76.9614 115.019 77.192C115.521 77.4288 116 77.7133 116.448 78.0415L116.779 78.296L116.942 78.4242L117.096 78.5658L117.404 78.849C117.504 78.9465 117.596 79.0556 117.688 79.157C117.875 79.3663 118.048 79.5874 118.206 79.819C118.289 79.9319 118.352 80.0582 118.425 80.1787C118.497 80.2983 118.561 80.4223 118.617 80.5499L118.792 80.9326L118.935 81.3267C118.983 81.4576 119.025 81.5911 119.058 81.7266C119.093 81.8606 119.139 81.9926 119.164 82.1284C119.283 82.6652 119.372 83.2082 119.431 83.7548C119.552 84.8397 119.623 85.915 119.779 86.9749L119.32 86.9328C119.396 86.7176 119.498 86.5126 119.625 86.3225C119.755 86.1375 119.904 85.9675 120.072 85.8155C120.24 85.6682 120.423 85.5369 120.616 85.4232C120.811 85.3142 121.015 85.2227 121.226 85.1496C121.437 85.0786 121.655 85.0274 121.876 84.9965C122.525 84.9253 123.182 84.9589 123.82 85.096C124.247 85.1929 124.659 85.3427 125.047 85.5419C125.433 85.7497 125.79 86.007 126.109 86.3072C126.427 86.6007 126.71 86.9294 126.954 87.2868C127.196 87.6376 127.41 88.0075 127.592 88.3927C128.317 89.9234 128.642 91.5976 128.829 93.2488C128.996 94.9016 129.041 96.5642 128.964 98.2235C128.902 99.8805 128.729 101.53 128.504 103.17C128.279 104.809 127.981 106.439 127.609 108.052C127.258 109.675 126.723 111.253 126.017 112.757C125.664 113.509 125.243 114.227 124.759 114.902C124.273 115.575 123.703 116.183 123.062 116.712C124.305 115.61 125.209 114.192 125.871 112.694C126.202 111.942 126.488 111.171 126.727 110.385C126.969 109.602 127.157 108.8 127.332 107.995C128.008 104.773 128.407 101.499 128.523 98.2101C128.59 96.5718 128.536 94.9309 128.361 93.3005C128.169 91.6818 127.838 90.0612 127.142 88.607C126.971 88.246 126.769 87.9003 126.538 87.5738C126.317 87.2478 126.059 86.948 125.769 86.6803C125.478 86.4146 125.155 86.1858 124.807 85.9991C124.459 85.8182 124.089 85.6819 123.707 85.5935C123.128 85.4647 122.531 85.4298 121.941 85.4902C121.751 85.5156 121.564 85.5585 121.381 85.6184C120.656 85.8556 120.01 86.3837 119.77 87.0936L119.446 88.0388L119.308 87.0496C119.158 85.9666 119.091 84.8817 118.977 83.8122C118.922 83.2826 118.839 82.7563 118.727 82.2356C118.704 82.1055 118.662 81.9811 118.629 81.8529C118.598 81.7234 118.561 81.5956 118.516 81.4702L118.383 81.0991L118.221 80.7432C117.754 79.7974 117.063 78.9786 116.207 78.3572C115.786 78.0373 115.335 77.7579 114.861 77.523C114.381 77.292 113.88 77.1037 113.367 76.9605C111.282 76.3762 109.052 76.5983 107.125 77.5823C105.19 78.5924 103.696 80.2762 102.93 82.3121Z" fill="#741648"/>
<path d="M101.917 275.052L78.753 288.974L67.0687 296C67.0687 296 63.5669 293.719 60.488 281.316C59.7627 278.394 59.0604 274.91 58.4328 270.76C57.9716 267.702 57.1947 263.602 56.2169 258.789C50.2389 229.353 36.6832 173.293 40.7476 166.319C42.8372 162.737 48.5205 158.249 55.7423 155.058C64.8758 151.023 76.4701 149.064 86.3595 153.642C104.079 161.842 101.917 275.052 101.917 275.052Z" fill="#926A82"/>
<path opacity="0.3" d="M100.917 275.075L77.8854 289C76.0801 288.803 74.287 288.506 72.5141 288.11C68.6174 287.24 65.4209 285.552 62.4832 283.463C61.5319 282.793 60.6243 282.08 59.7186 281.35C58.9975 278.427 58.2992 274.942 57.6752 270.791C57.2166 267.732 56.4441 263.631 55.4719 258.817C64.3574 240.933 67.8982 220.332 65.2459 200.49C63.1967 185.154 57.6162 170.197 55 155.06C63.7085 151.189 74.668 149.227 84.2289 153.111C84.638 153.278 85.0451 153.457 85.4485 153.644C103.067 161.836 100.917 275.075 100.917 275.075Z" fill="#741648"/>
<path opacity="0.45" d="M101.917 274.167L78.7578 288C76.9426 287.805 75.1396 287.51 73.357 287.116C69.4388 286.251 66.2247 284.575 63.2707 282.5C61.7727 269.095 66.6704 255.063 73.5445 243.137C78.4058 234.705 84.2735 226.783 87.9334 217.766C96.2443 197.273 92.085 174.366 85.1364 153C85.5477 153.166 85.9571 153.344 86.3627 153.529C104.079 161.677 101.917 274.167 101.917 274.167Z" fill="#741648"/>
<path d="M216.635 153.351C217.4 154.476 215.21 155.487 214.546 155.971C212.161 157.688 209.755 159.371 207.329 161.02C205.873 161.873 204.338 162.577 202.746 163.123C201.151 163.706 199.005 164.075 197.652 165.137C196.034 166.446 194.581 167.953 193.327 169.623C192.978 170.075 192.646 170.534 192.33 171C192.192 170.955 192.054 170.911 191.918 170.86C188.654 169.68 185.869 167.433 184 164.473C184.393 163.747 184.763 163.008 185.11 162.257C187.12 157.919 188.338 153.248 188.704 148.469C188.723 148.217 188.74 147.962 188.755 147.712C188.842 146.203 188.392 140.975 190.999 141.146C194.074 141.34 194.625 148.022 194.468 149.945L194.751 150.543C198.194 146.788 201.882 143.272 205.79 140.019C206.439 139.478 207.93 138.514 208.753 139.291C210.145 140.61 207.045 143.486 206.347 144.404C204.474 146.861 202.382 149.104 200.276 151.384C202.633 149.296 204.97 147.182 207.359 145.129C209.023 143.694 210.57 141.781 212.674 141.115C212.933 141.012 213.214 140.982 213.489 141.025C213.998 141.154 214.278 141.758 214.221 142.288C214.163 142.818 213.855 143.28 213.537 143.705C212.22 145.476 210.576 146.778 209.103 148.366C207.513 150.085 205.891 151.8 204.226 153.468C207.671 150.986 210.867 148.197 214.958 146.865C215.622 146.647 216.512 146.56 216.872 147.168C217.232 147.776 216.765 148.477 216.311 148.974C215.354 150.027 214.205 150.743 213.152 151.671C211.429 153.188 209.616 154.524 207.838 155.988C208.257 155.674 208.845 155.46 209.297 155.212C210.664 154.468 212.12 153.918 213.545 153.301C214.355 152.941 215.976 152.384 216.635 153.351Z" fill="#F4AF90"/>
<path d="M196.801 152.329C197.168 153.362 197.29 154.455 197.158 155.534C197.027 156.613 196.644 157.654 196.037 158.587C195.894 158.804 196.195 159.119 196.44 158.954C197.392 158.307 198.533 157.932 199.717 157.876C200.093 157.859 200.095 157.321 199.717 157.338C198.428 157.392 197.185 157.792 196.143 158.49L196.546 158.859C197.194 157.865 197.603 156.755 197.746 155.605C197.889 154.454 197.763 153.289 197.376 152.187C197.26 151.86 196.691 151.997 196.809 152.329H196.801Z" fill="#DC8164"/>
<path d="M81.0283 188C82.5259 195.539 82.2369 203.321 80.1841 210.73C79.6348 212.711 78.9525 214.701 79.0026 216.754C79.0527 218.807 80.0241 220.992 81.9168 221.823C85.1742 223.255 86.8953 223.675 90.2047 224.972C93.514 226.268 97.7524 226.68 100.241 224.151C102.012 222.353 102.336 219.52 101.7 217.079C101.064 214.638 99.6162 212.512 98.1918 210.432L85.9085 192.477C84.6962 190.703 83.1542 188.432 81.0283 188Z" fill="#CC4C68"/>
<path d="M111.559 117.184C106.9 129.227 104.325 142.454 96.2462 152.558C96.035 152.824 95.818 153.085 95.5972 153.345C93.9188 155.32 91.9773 157.104 89.644 158.209C89.3233 158.359 88.993 158.502 88.6569 158.636C81.0926 161.619 70.0178 159.75 65.3609 152.626C63.7509 150.127 62.9303 147.208 63.0046 144.243C63.0362 142.694 63.3183 141.159 63.84 139.699C65.6509 134.661 69.5147 132.668 72.9714 129.197C76.3109 125.838 77.4439 119.129 75.6099 114.863C73.5417 110.05 70.7533 106.48 71.0952 100.808C71.8038 88.9643 81.0484 78.1345 92.7032 75.4671C94.7656 74.9984 96.9453 74.766 98.9808 75.3337C101.016 75.9015 104.206 77.2638 104.742 79.2949C106.132 77.4067 108.746 76.6274 111.054 77.0923C111.514 77.1836 111.964 77.3169 112.398 77.4905C113.948 78.1377 115.305 79.1667 116.341 80.48C116.477 80.6476 116.608 80.8191 116.725 80.9925C118.098 82.8978 118.909 85.1365 119.508 87.3962C119.509 87.4038 119.509 87.4115 119.508 87.4191C121.904 96.4902 114.951 108.431 111.559 117.184Z" fill="#741648"/>
<path opacity="0.4" d="M90.5882 156.496C90.0573 157.244 89.4756 157.956 88.847 158.627C81.2266 161.63 70.0698 159.749 65.3784 152.577C63.7564 150.062 62.9298 147.123 63.0047 144.138C65.8324 144.526 68.7123 144.058 71.2673 142.796C78.6672 139.115 79.0212 132.889 79.265 125.726C79.412 121.483 79.5571 117.241 79.7003 113C81.1667 114.999 83.732 114.726 85.2313 116.694C89.5764 122.419 93.1206 128.892 94.4554 135.931C95.7903 142.97 94.734 150.625 90.5882 156.496Z" fill="#531838"/>
<path opacity="0.4" d="M119 86.9227C118.567 87.2922 118.091 87.6086 117.582 87.8653C115.405 88.97 112.876 89.1713 110.55 88.4251C109.321 88.0252 108.188 87.3702 106.955 86.9836C103.188 85.8107 98.7086 87.6044 96.8096 91.051C95.2227 93.9377 95.4275 97.4167 95.0006 100.68C94.198 106.637 91.2113 112.089 86.6141 115.988L80.3238 121C78.9526 120.043 77.8406 118.763 77.0868 117.275C76.3329 115.787 75.9607 114.137 76.0033 112.471C76.1105 109.445 77.6457 106.924 79.8797 104.974C81.3135 103.721 83.2833 102.952 84.4855 101.446C87.4201 97.7594 87.288 91.9478 89.4856 87.8348C93.3141 80.6636 101.752 80.3228 107.895 84.3273C108.006 84.4121 108.139 84.4643 108.278 84.4777C108.759 84.4777 108.808 83.7865 108.738 83.3124C108.376 80.8369 109.721 78.232 111.888 77C113.433 77.6468 114.786 78.6751 115.818 79.9877C115.954 80.1552 116.085 80.3266 116.201 80.4999C117.57 82.4041 118.378 84.6415 118.975 86.8999C118.985 86.9056 118.993 86.9134 119 86.9227Z" fill="#531838"/>
<path opacity="0.7" d="M111.643 116.686C107.029 128.724 104.479 141.944 96.4779 152.043C96.2687 152.309 96.0538 152.57 95.8351 152.829L93.0052 154.576L80.6433 156C79.526 155.047 78.7117 153.788 78.3007 152.377C77.8898 150.966 77.9002 149.466 78.3307 148.061C78.7624 146.728 79.565 145.556 80.3524 144.402C85.0232 137.579 86.5732 133.763 81.6836 126.36C78.7872 121.98 78.3516 115.753 81.4706 111.363C82.8437 109.434 86.4876 109.057 88.5701 108.459C92.0125 107.471 93.435 104.009 93.6823 100.733C93.842 98.6648 93.6823 96.5833 93.8154 94.5152C94.3232 87.1357 103.372 79.8705 110.274 85.6979C110.12 85.5684 113.866 81.653 114.212 81.3711C114.88 80.8375 115.603 80.3778 116.369 80C116.504 80.1676 116.633 80.339 116.749 80.5123C118.109 82.4167 118.912 84.6543 119.505 86.9129C121.9 95.9816 115.004 107.93 111.643 116.686Z" fill="#531838"/>
<path d="M121.915 155.242C121.484 158.186 119.631 160.752 117.452 162.784C116.061 164.081 114.472 165.237 112.637 165.728C109.988 166.439 107.133 165.676 104.718 164.386C98.6864 161.168 94.9378 155.378 91.3107 149.908C90.6788 148.95 88.2151 146.882 88.036 145.835C87.5428 142.745 92.2622 142.312 93.4893 140.137C93.6704 139.81 93.8003 139.458 93.8745 139.092C93.9637 138.629 94.007 138.158 94.0036 137.686C94.0036 137.337 94.0036 136.99 93.9766 136.643C93.8544 134.611 93.3218 132.625 92.4106 130.803C91.8076 129.605 91.041 128.478 90.648 127.196C90.255 125.914 90.3071 124.392 91.2124 123.401C93.183 121.235 98.2607 122.464 100.8 122.657C103.508 122.864 106.559 122.951 109.358 122.487C110.088 122.371 110.81 122.209 111.519 122C111.519 122.684 111.519 123.39 111.506 124.108C111.483 127.508 111.477 131.286 111.845 134.939C112.19 138.345 112.86 141.647 114.145 144.428C114.243 144.642 114.355 144.849 114.482 145.047C115.019 145.885 115.699 146.351 116.453 146.745C117.317 147.196 118.281 147.552 119.232 148.261C121.363 149.85 122.301 152.668 121.915 155.242Z" fill="#F4AF90"/>
<path opacity="0.7" d="M112 134.927C106.37 136.87 100.378 137.458 94.49 136.645C94.3702 134.594 93.8483 132.589 92.9554 130.749C92.3645 129.54 91.6132 128.403 91.2282 127.108C90.8431 125.814 90.894 124.278 91.7812 123.277C93.7123 121.091 98.6882 122.331 101.176 122.527C103.83 122.736 106.82 122.823 109.563 122.354C110.295 122.859 110.998 123.406 111.668 123.993C111.645 127.426 111.639 131.239 112 134.927Z" fill="#DC8164"/>
<path d="M124.967 114.303C124.919 115.629 124.8 116.952 124.613 118.265C123.636 125.024 120.594 131.263 113.223 133.488C112.692 133.638 112.151 133.748 111.604 133.818C109.601 134.081 107.572 134.059 105.575 133.752C101.761 133.201 96.8026 131.572 91.3958 127.487C91.2337 127.363 91.0716 127.24 90.9114 127.107L90.858 127.067C90.858 127.067 84.0171 128.937 81.7266 120.544C81.6294 120.196 81.5359 119.83 81.4653 119.444C81.1828 117.997 81.0271 116.529 81 115.055C81 115.055 81.0324 114.84 81.1087 114.516C81.4463 113.039 82.6573 109.255 85.724 112.292C86.406 112.999 87.0131 113.773 87.5358 114.603C87.6311 114.749 87.7265 114.899 87.8257 115.055C87.8257 115.055 87.8447 114.941 87.8772 114.721C88.9471 115.062 90.1352 115.188 91.2547 115.29C95.9482 115.67 99.8674 113.771 102.932 110.612C103.665 109.854 104.342 109.045 104.958 108.19C107.055 105.3 107.696 103.69 107.652 100.157C107.622 97.4532 106.708 90.3697 110.73 90.3963C110.881 90.398 111.031 90.4088 111.181 90.4285H111.255C111.446 90.457 111.625 90.4931 111.827 90.5443C111.551 89.7688 111.14 89.0477 110.612 88.4142C110.868 86.5782 112.372 85.1012 114.064 84.3076C114.309 84.1924 114.56 84.0898 114.816 84C116.411 84.9349 117.82 86.1545 118.971 87.5978C119.107 87.7649 119.238 87.9376 119.364 88.1123C120.861 90.1494 122.034 92.7657 122.711 96.1185C123.701 99.7611 124.38 103.48 124.742 107.236C124.742 107.331 124.757 107.426 124.767 107.519C124.98 109.774 125.047 112.04 124.967 114.303Z" fill="#F4AF90"/>
<path d="M112 90.1615C111.809 90.1101 111.618 90.074 111.427 90.0455H111.352C111.203 90.0257 111.052 90.0149 110.901 90.0131C106.871 89.9865 107.786 97.0824 107.817 99.7906C107.86 103.33 107.209 104.943 105.116 107.837C104.499 108.694 103.821 109.505 103.086 110.264C100.015 113.419 96.0879 115.338 91.3846 114.95C90.2628 114.857 89.0721 114.732 88 114.38C88.0879 113.847 88.2733 112.702 88.5275 111.147C89.2264 111.339 89.9575 111.386 90.6756 111.286C90.7597 111.274 90.8457 111.261 90.9279 111.244L91.0292 111.225L91.2642 111.171L91.4974 111.111C91.549 111.097 91.5987 111.082 91.6503 111.065L91.8012 111.015L91.8662 110.993C91.9274 110.972 91.9885 110.951 92.0573 110.926L92.1854 110.877C92.3765 110.801 92.5676 110.717 92.7377 110.626C92.8065 110.591 92.8734 110.557 92.9403 110.519C93.0072 110.481 93.0855 110.441 93.1543 110.399C93.4986 110.2 93.8281 109.976 94.1405 109.73C94.1959 109.688 94.2494 109.644 94.3029 109.6C94.3947 109.528 94.4826 109.452 94.5724 109.376L94.6966 109.264C94.7578 109.211 94.8189 109.154 94.8877 109.096C97.049 107.032 98.3264 104.217 98.4539 101.238C98.5724 98.0732 97.3951 94.7716 97.5385 91.7039C97.5385 91.6526 97.5385 91.6012 97.5385 91.5479C97.5536 91.2575 97.5842 90.968 97.6302 90.6807C97.6436 90.6065 97.657 90.5343 97.6684 90.462C97.6799 90.3897 97.699 90.3098 97.7143 90.2338C97.7296 90.1577 97.7468 90.0816 97.7659 90.0055C97.8267 89.7475 97.9033 89.4935 97.9952 89.2448C98.0335 89.1364 98.0755 89.028 98.1214 88.9177C98.1672 88.8074 98.194 88.7503 98.2322 88.6685C98.2704 88.5868 98.3086 88.5088 98.3469 88.4346C98.4252 88.2805 98.5093 88.1303 98.5972 87.9896C98.6418 87.9173 98.6858 87.8469 98.7291 87.7784C98.8647 87.5765 99.0114 87.3822 99.1687 87.1965L99.3254 87.0196C99.3808 86.9626 99.4324 86.9055 99.4878 86.8503C100.808 85.519 102.611 84.9485 104.457 85.0036C104.512 85.0036 104.568 85.0036 104.619 85.0036C104.764 85.0036 104.908 85.0207 105.051 85.0341L105.202 85.0512C105.349 85.0683 105.495 85.0892 105.64 85.1139C105.682 85.1139 105.724 85.1273 105.764 85.1368C105.863 85.1558 105.955 85.1748 106.06 85.1976C106.295 85.2471 106.53 85.3117 106.763 85.3878L106.955 85.4468C107.012 85.4639 107.067 85.4848 107.125 85.5038L107.394 85.6046L107.572 85.6769C107.631 85.6997 107.69 85.7263 107.748 85.753C107.864 85.8043 107.981 85.8557 108.097 85.9146L108.348 86.0439L108.466 86.1086L108.671 86.2246C108.709 86.2455 108.745 86.2703 108.784 86.2931L108.931 86.3844C108.975 86.4129 109.022 86.4414 109.066 86.4738C109.11 86.5061 109.16 86.5346 109.206 86.5689L109.263 86.6088C109.353 86.6716 109.441 86.7381 109.529 86.799C109.617 86.8599 109.649 86.8922 109.709 86.9416C109.768 86.9911 109.808 87.0215 109.858 87.0652C110.2 87.3542 110.515 87.6724 110.802 88.0162C111.325 88.6557 111.73 89.3819 112 90.1615Z" fill="#F4AF90"/>
<path opacity="0.7" d="M109.838 87.519C107.996 89.1464 106.862 91.9829 106.21 94.2987C105.465 96.9461 105.442 99.744 105.579 102.492C105.696 104.806 105.91 107.21 105.068 109.368C104.583 110.608 103.773 111.693 102.873 112.675C100.379 115.395 95.9244 118.652 92.0643 117.962C89.6853 117.543 86.9245 115.87 84.4611 116.388C82.3123 116.842 82.0494 118.573 81.4681 120C81.1839 118.53 81.0272 117.039 81 115.542C81 115.542 81.9823 108.965 85.7523 112.736C86.4384 113.454 87.0491 114.24 87.5749 115.083C87.6708 115.231 87.7667 115.384 87.8665 115.542C87.8665 115.542 87.8857 115.426 87.9183 115.203C88.0065 114.663 88.1926 113.502 88.4478 111.925C89.1495 112.119 89.8834 112.167 90.6043 112.065C92.1986 111.84 93.6471 110.959 94.8251 109.846C96.9947 107.753 98.2771 104.899 98.4051 101.879C98.5643 97.5786 96.3887 93.0395 98.1921 89.1387C100.354 84.4435 106.367 84.5341 109.838 87.519ZM125 107.6C122.26 107.318 119.918 105.479 119.315 102.733C118.602 99.474 119.597 96.0803 116.407 93.9497C113.493 92.0021 109.853 92.4476 110.434 88.0859C110.555 88.2151 110.672 88.3482 110.785 88.4831C111.043 86.6185 112.556 85.1184 114.258 84.3124C114.505 84.1954 114.757 84.0912 115.014 84C118.659 86.1635 121.675 89.9274 122.957 96.3079C123.952 100.007 124.636 103.785 125 107.6Z" fill="#DC8164"/>
<path d="M112 90.1615C111.81 90.1101 111.62 90.074 111.43 90.0455H111.356C111.207 90.0257 111.058 90.0149 110.908 90.0131C106.901 89.9865 107.811 97.0824 107.842 99.7906C107.885 103.33 107.238 104.943 105.158 107.837C104.544 108.694 103.87 109.505 103.14 110.264C100.088 113.419 96.1838 115.338 91.5089 114.95C90.3938 114.857 89.2103 114.732 88.1447 114.38C88.0288 114.344 87.9167 114.304 87.8046 114.262C87.2841 113.43 86.6793 112.655 86 111.947C86.3153 111.225 86.6877 110.534 86.4787 109.779C87.0516 110.449 87.8161 110.926 88.669 111.147C89.3637 111.339 90.0904 111.386 90.8041 111.286C90.8877 111.274 90.9713 111.261 91.0549 111.244C91.0891 111.244 91.1214 111.23 91.1556 111.225C91.2334 111.209 91.3113 111.19 91.3892 111.171L91.621 111.111C91.6722 111.097 91.7216 111.082 91.7729 111.065L91.923 111.015L91.9876 110.993C92.0484 110.974 92.1073 110.951 92.1775 110.926L92.3048 110.877C92.4948 110.801 92.6847 110.717 92.8538 110.626C92.9241 110.591 92.9887 110.555 93.0552 110.519C93.1217 110.483 93.1995 110.441 93.2679 110.399C93.6101 110.2 93.9377 109.976 94.2481 109.73C94.3032 109.688 94.3564 109.646 94.4096 109.6C94.5008 109.528 94.5881 109.452 94.6774 109.376L94.8009 109.264C94.8617 109.211 94.9225 109.154 94.9909 109.096C97.1391 107.032 98.4088 104.217 98.5355 101.238C98.6533 98.0732 97.4832 94.7716 97.6256 91.7039C97.6256 91.6526 97.6256 91.6012 97.6256 91.5479C97.6407 91.2575 97.6711 90.968 97.7168 90.6807C97.7301 90.6065 97.7434 90.5343 97.7548 90.462C97.7662 90.3897 97.7852 90.3098 97.8004 90.2338C97.8156 90.1577 97.8327 90.0816 97.8517 90.0055C97.9121 89.7475 97.9883 89.4935 98.0796 89.2448C98.1176 89.1364 98.1594 89.0261 98.205 88.9177C98.2506 88.8093 98.2772 88.7503 98.3152 88.6685C98.3532 88.5868 98.3912 88.5088 98.4292 88.4346C98.5089 88.2805 98.5906 88.1303 98.678 87.9896C98.7223 87.9173 98.766 87.8469 98.8091 87.7784C98.9438 87.5765 99.0897 87.3822 99.246 87.1965L99.4018 87.0196C99.4569 86.9626 99.5082 86.9055 99.5632 86.8503C100.876 85.519 102.667 84.9485 104.502 85.0036C104.557 85.0036 104.612 85.0036 104.664 85.0036C104.808 85.0036 104.951 85.0207 105.093 85.0341L105.243 85.0512C105.389 85.0683 105.534 85.0892 105.678 85.1139C105.72 85.1139 105.762 85.1273 105.802 85.1368C105.9 85.1558 105.992 85.1748 106.096 85.1976C106.33 85.2471 106.563 85.3117 106.795 85.3878L106.985 85.4468C107.042 85.4639 107.097 85.4848 107.154 85.5038L107.422 85.6046L107.599 85.6769C107.657 85.6997 107.716 85.7263 107.773 85.753C107.889 85.8043 108.005 85.8557 108.121 85.9146L108.37 86.0439L108.488 86.1086L108.691 86.2246C108.729 86.2455 108.765 86.2703 108.803 86.2931L108.949 86.3844C108.993 86.4129 109.04 86.4414 109.084 86.4738C109.128 86.5061 109.177 86.5346 109.223 86.5689L109.28 86.6088C109.369 86.6716 109.456 86.7381 109.544 86.799C109.631 86.8599 109.663 86.8922 109.722 86.9416C109.781 86.9911 109.821 87.0215 109.871 87.0652C110.21 87.3542 110.524 87.6724 110.809 88.0162C111.329 88.6557 111.732 89.3819 112 90.1615Z" fill="#741648"/>
<path d="M125.862 107.634C125.791 108.073 125.223 108.069 124.798 107.873C124.725 107.839 124.655 107.797 124.59 107.75C123.555 106.993 122.861 105.87 122.307 104.689C122.2 104.46 122.097 104.229 121.999 103.998C121.133 101.977 120.463 99.8748 119.999 97.7212C119.733 96.4979 119.525 95.2368 118.955 94.1288C117.655 91.6179 114.417 90.3606 111.812 91.3589L111.643 90.8541L111.524 90.5005L111 88.9425C111 88.9123 111 88.8801 111.013 88.848C111.262 87.0196 112.727 85.5486 114.375 84.7583C114.613 84.6436 114.858 84.5414 115.106 84.452C118.169 83.3516 121.607 84.3102 123.81 86.7852C128.563 92.1322 126.874 101.263 125.862 107.634Z" fill="#741648"/>
<path opacity="0.5" d="M192 170.735C188.292 172.675 182.492 172.519 179.876 169.316C179.083 168.304 178.465 167.175 178.045 165.973C178.031 165.932 178.016 165.89 178 165.849C179.746 164.45 181.454 163.032 182.579 161.905C182.742 161.743 182.942 161.62 183.163 161.546C183.384 161.473 183.619 161.45 183.851 161.481C184.082 161.512 184.303 161.595 184.495 161.724C184.687 161.853 184.845 162.024 184.956 162.223C184.98 162.26 185.001 162.298 185.024 162.333C187.062 158.139 188.296 153.621 188.666 149C190.176 152.328 188.818 155.922 188.523 159.486C188.348 162.045 188.758 164.61 189.724 166.998C190.246 168.324 190.989 169.558 191.924 170.651C191.948 170.686 191.975 170.705 192 170.735Z" fill="#DC8164"/>
<path opacity="0.7" d="M121.915 155.205C121.484 158.159 119.631 160.734 117.452 162.773C116.061 164.075 114.472 165.234 112.637 165.727C109.988 166.44 107.133 165.675 104.718 164.38C98.6864 161.151 94.9379 155.341 91.3107 149.853C90.6788 148.891 88.2151 146.816 88.036 145.766C87.5428 142.666 92.2622 142.231 93.4893 140.048C93.6704 139.72 93.8003 139.367 93.8745 139C94.1616 144.123 97.5229 148.578 100.736 152.634C101.699 153.849 102.689 155.089 104.011 155.903C105.687 156.922 106.496 158.428 108.326 157.717C113.411 155.741 114.243 150.453 114.478 144.985C115.016 145.825 115.696 146.293 116.449 146.689C117.314 147.141 118.277 147.499 119.228 148.21C121.363 149.795 122.301 152.622 121.915 155.205Z" fill="#DC8164"/>
<path d="M90.3315 146.723C99.4644 150.718 110.496 150.056 119.087 145C119.634 147.46 121.766 150.216 121.934 152.732C122.103 155.297 122.03 158.015 120.713 160.224C119.948 161.499 118.815 162.521 117.564 163.321C112.74 166.405 106.586 166.21 100.884 165.714C98.9842 165.549 97.0229 165.343 95.3582 164.412C93.4868 163.365 92.1971 161.51 91.2557 159.583C89.4991 155.982 89.9947 150.712 90.3315 146.723Z" fill="white"/>
<path d="M115.238 145.002C115.217 147.02 114.767 149.012 113.917 150.855C113.067 152.697 111.835 154.352 110.297 155.716C109.158 156.714 107.825 157.557 106.324 157.872C104.822 158.188 103.136 157.912 102 156.91C103.476 159.212 105.987 161.747 108.45 163.034C109.437 163.548 110.508 163.979 111.628 164C112.495 164 113.354 163.838 114.158 163.522C115.823 162.919 117.33 161.968 118.571 160.737C119.812 159.506 120.756 158.025 121.337 156.4C121.918 154.775 122.121 153.046 121.931 151.336C121.741 149.627 121.163 147.979 120.238 146.511C119.509 145.35 116.642 144.966 115.238 145.002Z" fill="#F3DDB6"/>
<path d="M194.101 175.176C193.96 175.558 193.806 175.952 193.645 176.336C193.343 177.05 193.013 177.751 192.656 178.439C190.358 182.837 187.022 186.759 183.903 190.535C183.075 191.535 182.229 192.52 181.366 193.487C180.769 194.154 180.163 194.815 179.549 195.47C175.528 199.77 171.21 203.783 166.852 207.739L166.808 207.722C166.643 207.657 166.475 207.598 166.306 207.544C164.11 206.837 161.722 206.938 159.413 207.227L158.733 207.315C158.612 207.33 158.494 207.347 158.373 207.366C154.521 203.584 150.817 199.688 146.884 195.931C146.205 195.28 139.384 187.806 138.637 188.143C137.988 188.682 137.64 189.411 137.442 190.221C137.192 191.269 137.192 192.451 137.13 193.533C136.952 196.713 135.911 199.77 134.879 202.779C135.407 202.657 137.494 202.604 139.936 202.588C141.621 202.573 143.476 202.573 145.105 202.577C146.352 202.579 147.563 202.991 148.552 203.747C149.542 204.503 150.256 205.563 150.584 206.764C150.762 207.408 150.948 208.091 151.139 208.795C151.242 209.177 151.35 209.581 151.453 209.982C152.602 214.443 153.599 219.376 151.918 221.072C151.855 221.138 151.787 221.199 151.713 221.253C151.114 221.707 150.31 221.743 149.559 221.758C141.9 221.929 134.234 222.009 126.561 221.999C123.761 221.999 120.956 221.72 118.157 221.412C114.291 220.99 110.438 220.506 106.632 220.607C101.697 220.741 94.8422 222.11 90.9513 218.101C86.867 213.894 85.1782 207.967 83.7861 202.453C82.0992 195.76 79.8225 189.024 77.542 182.567C76.7148 180.227 75.6808 177.585 74.7273 174.808C74.4534 174.007 74.1854 173.195 73.9326 172.376C72.0829 166.401 70.98 160.059 73.3582 154.96C75.1409 151.147 78.1892 148.009 81.699 145.73C83.3821 144.639 85.2873 143.874 87.2079 143.143C88.9676 142.476 90.7388 141.839 92.3625 141.006C93.3467 143.82 95.7 146.813 97.5727 149.099C98.9781 150.82 100.401 152.554 102.122 153.964C106.113 157.231 113.228 158.776 115.654 152.816C117.377 148.547 114.951 144.956 113.906 141C114.097 141.618 120.225 141.539 120.862 141.574C124.405 141.765 126.727 142.266 129.954 143.612C136.931 146.526 140.544 152.495 144.506 158.623C146.547 161.788 148.441 165.417 150.802 168.543C150.993 168.791 151.185 169.038 151.376 169.279C152.325 170.485 153.17 171.769 153.904 173.116C155.108 175.265 156.127 177.449 157.645 179.634C157.812 179.873 158.007 180.128 158.291 180.193C158.544 180.221 158.8 180.166 159.02 180.038C159.443 179.847 159.865 179.631 160.288 179.405C164.428 177.193 168.493 173.669 172.081 170.839C172.68 170.363 175.032 168.592 177.554 166.571C178.017 166.189 178.484 165.818 178.949 165.438C180.673 164.013 182.358 162.57 183.468 161.422C183.629 161.257 183.826 161.132 184.044 161.057C184.262 160.982 184.495 160.959 184.723 160.991C184.952 161.022 185.169 161.107 185.359 161.238C185.548 161.369 185.704 161.543 185.814 161.745C185.837 161.784 185.858 161.822 185.881 161.858C186.015 162.095 186.155 162.327 186.3 162.554C187.507 164.43 188.937 165.552 190.513 166.61C191.403 167.204 192.34 167.776 193.312 168.445C193.596 168.638 193.858 168.861 194.094 169.111C194.324 169.353 194.518 169.628 194.668 169.927C195.394 171.443 194.804 173.246 194.101 175.176Z" fill="#E56178"/>
<path d="M166 208.851C165.657 209.233 165.318 209.616 164.975 210C163.082 209.246 161.024 209.353 159.029 209.661C158.684 209.248 158.341 208.831 158 208.416C158.114 208.394 158.226 208.374 158.339 208.356L158.98 208.253C161.163 207.916 163.415 207.807 165.48 208.623C165.639 208.686 165.798 208.755 165.953 208.831L166 208.851Z" fill="#E56178"/>
<path d="M165 209.413L164.284 209.985C164.102 210.132 163.92 210.28 163.714 210.418C163.264 210.727 162.773 210.978 162.214 210.998C161.272 211.035 160.478 210.421 159.796 209.845L159 209.168C161.013 208.946 163.09 208.869 165 209.413Z" fill="#E56178"/>
<path d="M136 203.62C129.96 205.965 123.091 204.679 116.671 205.742C113.084 206.336 109.382 207.663 105.915 206.6C105.45 206.485 105.026 206.254 104.684 205.93C104.397 205.585 104.21 205.173 104.14 204.737C103.487 201.678 105.239 198.67 106.924 196C113.804 200.866 121.567 203.188 130.107 203.238L136 203.62Z" fill="#CC4C68"/>
<path d="M97 173C102.236 181.279 105.949 191.08 114.054 196.623C119.376 200.264 125.122 200.743 131 202.871L111.425 204.93C110.648 205.014 109.822 205.088 109.121 204.741C108.472 204.423 108.039 203.795 107.651 203.194C102.564 195.243 100.172 185.938 97.8587 176.803L97 173Z" fill="#CC4C68"/>
<path d="M95.0459 171.663C98.1518 179.08 101.195 186.527 103.906 194.105C104.576 195.981 105.224 197.867 105.863 199.757C106.323 201.117 106.83 202.477 107.786 203.551C108.8 204.689 110.368 204.983 111.809 204.998C113.738 205.02 115.686 204.841 117.613 204.752C122.135 204.544 126.66 204.379 131.189 204.256C131.929 204.237 131.931 203.048 131.189 203.077C127.369 203.221 123.549 203.304 119.728 203.4C117.848 203.448 115.967 203.479 114.086 203.512C112.426 203.543 110.427 203.839 108.992 202.792C107.733 201.875 107.327 200.169 106.845 198.749C106.241 196.971 105.621 195.2 104.984 193.435C103.69 189.849 102.325 186.288 100.889 182.751C99.3003 178.85 97.6069 175.01 95.7635 171.222C95.5186 170.719 94.8314 171.16 95.0383 171.655L95.0459 171.663ZM133.247 172.759C133.747 175.456 134.215 178.16 134.651 180.869C135.086 183.561 135.367 186.327 136.064 188.955C136.202 189.476 137.013 189.385 137 188.825C136.895 186.106 136.305 183.396 135.81 180.725C135.303 177.976 134.758 175.233 134.175 172.497C134.044 171.875 133.133 172.141 133.247 172.759Z" fill="#A83F5A"/>
<path d="M208 160C208.229 159.767 208.46 159.531 208.689 159.293C208.795 159.199 208.898 159.101 209 159L208 160Z" fill="#F4AF90"/>
<path d="M186.886 244.994C184.256 246.894 181.792 249.531 179.531 252.548C179.055 253.177 178.59 253.826 178.137 254.488C174.22 260.168 170.98 266.834 168.619 272.389C168.317 273.103 168.029 273.8 167.755 274.472C167.168 275.909 166.652 277.243 166.207 278.429C164.94 281.81 164.259 283.994 164.259 283.994C162.061 283.25 159.172 283.002 155.793 283.006C155.135 283.006 154.46 283.015 153.766 283.033C147.009 283.202 138.632 284.09 130.045 283.992C129.323 283.985 128.6 283.97 127.876 283.948C118.127 283.643 108.246 281.895 100.303 276.23C99.8136 275.88 99.3313 275.516 98.8559 275.138C98.6839 274.999 98.5118 274.859 98.3417 274.717C78.595 258.253 88.4683 229 88.4683 229L91.1102 229.311L92.4865 229.476L98.8769 230.234L100.106 230.38L123.498 233.155C145.088 235.494 159.587 237.442 169.264 239.041L169.439 239.072C170.324 239.217 171.168 239.361 171.972 239.501C173.372 239.747 174.648 239.981 175.824 240.208C176.671 240.369 177.462 240.53 178.2 240.684C192.585 243.695 186.886 244.994 186.886 244.994Z" fill="#49519A"/>
<path d="M153.209 279.249C157.534 279.13 161.884 278.62 166.224 278.424C164.956 281.805 164.276 283.989 164.276 283.989C152.012 279.833 118.092 291.184 98.3434 274.718C78.5947 258.252 88.4681 229 88.4681 229L123.505 233.155C147.223 235.725 162.387 237.824 172 239.502C160.459 240.557 148.701 240.805 137.745 244.891C123.679 250.138 110.733 269.982 132.65 275.564C139.625 277.343 145.818 279.454 153.209 279.249Z" fill="#39437F"/>
<g opacity="0.35">
<path d="M169 272.92C168.7 273.633 168.413 274.328 168.142 274.998H166.579C164.624 275.01 162.668 274.961 160.713 274.853C159.205 274.769 157.7 274.651 156.196 274.5C155.537 274.433 154.881 274.361 154.222 274.28C152.467 274.07 150.719 273.81 148.976 273.503C143.654 272.568 138.413 271.216 133.3 269.458C132.692 269.251 132.087 269.037 131.485 268.816C124.665 266.346 118.155 263.077 112.091 259.076C111.605 258.755 111.123 258.428 110.646 258.096L110.599 258.063C101.269 251.567 92.441 241.908 92.0177 229.94C92.0006 229.515 91.9968 229.086 92.0025 228.654C92.0158 227.782 93.3504 227.782 93.3447 228.654C93.3447 229.14 93.3561 229.623 93.3846 230.105C93.7434 236.31 96.54 242.026 100.485 246.766C103.739 250.685 107.648 254.021 111.859 256.863C112.366 257.203 112.872 257.536 113.378 257.86C113.654 258.035 113.931 258.209 114.206 258.379C119.954 261.918 126.05 264.847 132.396 267.118L132.468 267.145C133.045 267.35 133.626 267.551 134.209 267.746C140.011 269.701 145.976 271.121 152.033 271.988C152.843 272.104 153.655 272.21 154.469 272.306C155.122 272.382 155.778 272.451 156.435 272.514C158.345 272.702 160.259 272.83 162.177 272.897C163.822 272.963 165.472 272.985 167.128 272.965C167.753 272.976 168.377 272.945 169 272.92Z" fill="#7E99CE"/>
<path d="M180 252.669C179.528 253.292 179.067 253.935 178.618 254.591C178.429 254.591 178.252 254.61 178.07 254.62C174.194 254.846 170.315 254.981 166.433 255C165.316 255 164.198 254.992 163.08 254.975C162.367 254.962 161.656 254.945 160.942 254.922C155.712 254.774 150.496 254.298 145.326 253.498C144.567 253.38 143.83 253.254 143.083 253.117C138.055 252.23 133.109 250.922 128.298 249.209C127.605 248.956 126.918 248.699 126.235 248.437C125.553 248.176 124.879 247.903 124.213 247.618C115.089 243.778 106.678 238.258 100.112 230.756C100.064 230.701 100.031 230.636 100.013 230.565C99.9129 230.185 100.402 229.78 100.719 230.139L101.232 230.71C105.366 235.233 110.16 239.101 115.449 242.183C118.607 244.037 121.903 245.645 125.306 246.994C126.003 247.274 126.703 247.542 127.407 247.798C132.882 249.774 138.539 251.203 144.295 252.064C145.081 252.191 145.869 252.302 146.66 252.399C147.348 252.488 148.04 252.57 148.73 252.646C153.123 253.11 157.537 253.352 161.954 253.37C162.696 253.37 163.438 253.37 164.179 253.37C165.811 253.37 167.442 253.328 169.07 253.277C172.482 253.173 175.879 252.973 179.278 252.722L180 252.669Z" fill="#7E99CE"/>
</g>
<path opacity="0.42" d="M117.422 114.644C117.031 114.113 116.421 113.829 115.856 114.111C115.575 114.256 115.343 114.497 115.191 114.8C115.039 115.102 114.975 115.45 115.009 115.795C115.078 116.218 115.241 116.614 115.482 116.948C115.729 117.368 116.076 117.7 116.485 117.905C116.898 118.083 117.42 118.019 117.714 117.645C117.89 117.391 117.988 117.08 117.993 116.759C118.04 116.014 117.842 115.277 117.437 114.685L117.422 114.644Z" fill="#E56178"/>
<path d="M108.252 108.603C108.215 109.734 107.842 111.286 108.291 112.354C108.443 112.712 109.078 112.712 109.227 112.354C109.675 111.286 109.302 109.742 109.265 108.603C109.265 108.467 109.211 108.337 109.116 108.242C109.021 108.146 108.892 108.092 108.757 108.092C108.623 108.092 108.494 108.146 108.399 108.242C108.304 108.337 108.25 108.467 108.25 108.603H108.252ZM120.307 108.039C120.125 109.217 120.151 110.417 120.381 111.586C120.529 112.261 121.445 112.039 121.505 111.433C121.59 110.291 121.479 109.143 121.177 108.039C121.067 107.639 120.378 107.577 120.308 108.039H120.307ZM115.132 111.729C114.851 112.91 114.655 114.668 115.984 115.284C116.62 115.58 117.785 115.15 117.819 116.125C117.848 116.949 117.431 117.713 117.115 118.448C117.01 118.696 117.19 119.076 117.504 118.96C118.882 118.452 119.138 116.772 118.506 115.565C118.2 114.982 117.888 114.881 117.281 114.773C115.679 114.485 116.076 113.132 116.143 111.867C116.175 111.284 115.267 111.162 115.132 111.729ZM112.886 123.555C111.708 123.666 110.716 123.77 109.607 123.219C108.587 122.714 107.893 121.915 107.078 121.156C106.865 120.968 106.421 121.079 106.451 121.417C106.717 124.245 110.841 125.778 113.166 124.6C113.646 124.357 113.436 123.502 112.886 123.555ZM104.918 106.676C105.854 105.867 106.762 105.18 107.971 104.811C109.05 104.481 110.184 104.592 111.255 104.303C111.343 104.276 111.421 104.225 111.481 104.154C111.54 104.083 111.578 103.997 111.59 103.905C111.602 103.813 111.587 103.72 111.547 103.637C111.508 103.553 111.445 103.483 111.367 103.434C109.065 102.223 105.481 104.143 104.1 106.04C103.725 106.549 104.497 107.038 104.918 106.676ZM118.867 103.847C119.601 104.292 120.415 104.565 121.142 105.043C121.868 105.52 122.495 106.249 123.274 106.666C123.367 106.717 123.474 106.737 123.579 106.722C123.684 106.707 123.781 106.658 123.856 106.583C123.931 106.507 123.98 106.41 123.995 106.304C124.01 106.198 123.991 106.091 123.94 105.997C123.227 104.488 120.733 103.057 119.095 103C118.637 102.985 118.494 103.623 118.867 103.847Z" fill="#531838"/>
<g opacity="0.7">
<path opacity="0.6" d="M94.5961 118.641C95.3275 119.109 96.0471 118.994 96.8891 118.97C97.731 118.946 98.5748 118.937 99.4109 118.93C101.12 118.912 102.885 118.88 104.571 118.617C105.219 118.516 105.774 117.901 105.929 117.335C106.084 116.769 105.97 116.406 105.735 115.916C105.456 115.339 104.684 115 104.049 115C102.36 115 100.585 115.295 98.9279 115.588C98.1054 115.732 97.2829 115.885 96.4584 116.035C95.634 116.185 94.9434 116.231 94.342 116.85C94.2149 116.975 94.1191 117.125 94.0617 117.29C94.0043 117.455 93.9866 117.629 94.0101 117.801C94.0335 117.973 94.0974 118.138 94.1972 118.283C94.2969 118.429 94.4299 118.552 94.5864 118.642L94.5961 118.641Z" fill="#E56178"/>
</g>
<g opacity="0.7">
<path opacity="0.6" d="M126 115C125.945 116.339 125.814 117.674 125.605 119C124.833 118.928 124.069 118.8 123.32 118.617C121.559 118.201 121.561 115.832 123.32 115.418C124.194 115.194 125.093 115.054 126 115Z" fill="#E56178"/>
</g>
<path d="M111 90.6848C110.94 90.4548 110.839 90.238 110.702 90.0454C110.561 89.8589 110.391 89.697 110.198 89.5659C109.812 89.3101 109.365 89.1659 108.904 89.1488C108.45 89.1251 107.999 89.2376 107.606 89.4724C107.411 89.5897 107.23 89.7283 107.064 89.8856C106.9 90.0448 106.752 90.2197 106.621 90.408C106.107 91.1794 105.818 92.085 105.791 93.018C105.767 93.9609 105.836 94.9038 105.995 95.8328C106.563 99.634 106.622 103.496 106.171 107.314C105.938 109.216 105.564 111.142 104.755 112.914C104.705 113.025 104.653 113.134 104.598 113.242C104.543 113.349 104.491 113.46 104.428 113.567L104.237 113.887L104.031 114.193C103.749 114.593 103.43 114.964 103.077 115.3C102.38 115.972 101.587 116.531 100.725 116.959C99.8761 117.388 98.972 117.693 98.0395 117.865C97.1003 118.04 96.1382 118.045 95.1974 117.879C94.7301 117.785 94.2744 117.64 93.8383 117.444C93.7276 117.401 93.6245 117.335 93.5196 117.282C93.4122 117.229 93.3083 117.17 93.2084 117.103L92.9088 116.908L92.6301 116.684C91.9033 116.066 91.3424 115.269 91 114.368C91.1978 114.8 91.4431 115.207 91.7311 115.583C91.8713 115.77 92.0237 115.948 92.1873 116.115C92.2674 116.202 92.359 116.275 92.4449 116.353C92.529 116.434 92.6189 116.509 92.7141 116.577L92.9947 116.783L93.2924 116.961C93.3908 117.021 93.4928 117.074 93.5978 117.121C93.7047 117.169 93.804 117.228 93.9128 117.265C94.344 117.435 94.792 117.557 95.2489 117.629C95.7035 117.694 96.1626 117.719 96.6213 117.703C97.0799 117.683 97.5363 117.626 97.9861 117.532C98.886 117.343 99.7562 117.029 100.572 116.598C102.187 115.729 103.626 114.431 104.333 112.7C105.096 110.994 105.461 109.121 105.682 107.242C106.128 103.465 106.106 99.6465 105.617 95.8757C105.473 94.919 105.425 93.9497 105.474 92.983C105.535 91.9983 105.87 91.0518 106.438 90.254C106.587 90.0599 106.752 89.8799 106.932 89.716C107.117 89.5559 107.317 89.4161 107.53 89.2989C107.959 89.0659 108.445 88.9657 108.929 89.0104C109.41 89.0446 109.873 89.2147 110.265 89.5016C110.455 89.646 110.621 89.8211 110.756 90.0201C110.876 90.2247 110.959 90.45 111 90.6848Z" fill="#531838"/>
<path d="M163 210.311C162.534 210.676 162.026 210.973 161.447 210.998C160.471 211.042 159.648 210.315 158.942 209.633C154.448 205.291 150.234 200.743 145.73 196.38C145.06 195.733 138.337 188.29 137.601 188.625C136.961 189.162 136.618 189.887 136.423 190.695C135.257 183.552 134.506 176.372 134.009 169.079C133.913 167.668 134.562 165.614 135.897 166.063C136.384 166.229 136.686 166.714 136.927 167.171C140.293 173.521 139.192 181.3 142.435 187.496C145.221 192.827 149.448 198.579 153.229 203.229C154.335 204.591 155.507 205.912 156.873 207.005C158.693 208.469 160.807 209.481 163 210.311Z" fill="#CC4C68"/>
<path d="M169.777 219.17C169.466 220.036 168.814 220.748 167.963 221.148C167.225 221.525 166.263 221.77 165.049 221.851C160.294 222.171 155.446 221.881 150.676 221.851C152.133 220.176 151.276 215.316 150.274 210.924C150.182 210.529 150.091 210.139 150 209.755C151.036 209.457 152.081 209.191 153.135 208.956C154.189 208.721 155.232 208.519 156.264 208.351C156.367 208.332 156.472 208.315 156.577 208.3L157.16 208.214C159.166 207.929 161.238 207.837 163.142 208.526C163.29 208.579 163.433 208.638 163.579 208.702L163.614 208.719C167.223 210.463 170.96 215.853 169.777 219.17Z" fill="#E7A07D"/>
<path opacity="0.5" d="M168 220.151C167.26 220.526 166.297 220.771 165.08 220.851C160.316 221.17 155.458 220.881 150.677 220.851C152.137 219.182 151.279 214.338 150.274 209.962C150.182 209.568 150.091 209.179 150 208.796C151.038 208.499 152.085 208.234 153.141 208C153.827 209.765 154.115 211.723 155.039 213.4C156.964 216.89 162.904 219.377 168 220.151Z" fill="#DC8164"/>
<path opacity="0.18" d="M121.014 169.852C121.254 172.773 120.874 175.56 120.022 178.345C119.602 179.691 119.056 180.99 118.393 182.224C118.083 182.813 117.754 183.389 117.396 183.947C116.993 184.577 116.471 185.154 116.168 185.845C115.911 186.429 115.924 187.095 116.379 187.573C116.77 187.986 117.552 188.172 118.025 187.797C119.25 186.828 120.056 185.255 120.75 183.843C121.462 182.36 122.013 180.798 122.394 179.186C123.142 176.085 123.161 172.769 122.651 169.624C122.495 168.66 120.933 168.871 121.014 169.858V169.852Z" fill="white"/>
<path d="M177 167.346C173.79 172.673 169.946 177.592 165.553 181.995C163.665 183.881 161.099 185.806 158.573 184.954C158.641 183.62 158.921 181.433 159.68 180.339C159.725 180.27 159.771 180.204 159.822 180.135C163.941 177.931 167.985 174.419 171.555 171.599C172.157 171.124 174.497 169.36 177 167.346ZM117.922 222C114.075 221.579 110.243 221.097 106.455 221.198C101.546 221.331 94.7262 222.696 90.8552 218.7C86.7918 214.508 85.1116 208.601 83.7267 203.105C82.0483 196.436 79.7833 189.723 77.5144 183.289C74.7236 175.377 69.5343 163.965 73.3538 155.776C75.1274 151.976 78.1602 148.849 81.6521 146.578C83.3266 145.49 85.2221 144.728 87.1328 144C84.4163 148.291 83.3876 153.623 82.7018 158.739C80.9339 172.05 80.8577 186.067 86.2965 198.346C89.6589 205.937 95.6101 213.054 103.074 216.89C106.427 218.604 110.161 219.104 113.664 220.51C115.087 221.07 116.491 221.571 117.922 222Z" fill="#CC4C68"/>
<path d="M82.0074 199.261C81.9319 200.624 82.4489 202.194 82.7819 203.511C83.1342 204.882 83.5698 206.234 84.0461 207.567C84.9858 210.267 86.1783 212.877 87.6084 215.362C88.8804 217.524 90.5318 219.487 92.9035 220.526C94.1871 221.095 95.5559 221.431 96.9034 221.809C98.3903 222.225 100.034 222.926 101.581 223C102.003 223.019 102.162 222.43 101.796 222.227C100.539 221.543 98.9052 221.308 97.5365 220.925C96.2664 220.569 94.9673 220.266 93.7379 219.785C91.1494 218.789 89.4786 216.691 88.1641 214.373C86.8157 211.968 85.6772 209.457 84.7605 206.864C84.3016 205.579 83.9106 204.277 83.533 202.968C83.1749 201.725 83.02 200.311 82.4914 199.128C82.3811 198.881 82.0249 199.029 82.0113 199.255L82.0074 199.261Z" fill="#A83F5A"/>
<path d="M93.0567 192.847C92.2401 192.574 91.3662 193.285 90.9034 193.908C90.3718 194.624 90.0581 195.659 90.3048 196.541C90.4507 197.004 90.6984 197.429 91.0296 197.782C91.3607 198.135 91.7667 198.408 92.2171 198.581C93.2001 198.967 94.0472 198.855 94.8007 198.104C94.8985 198.001 94.9643 197.87 94.9903 197.73C95.0163 197.589 95.0012 197.444 94.9469 197.312C94.8927 197.179 94.8015 197.066 94.6846 196.985C94.5677 196.904 94.43 196.859 94.2882 196.855C93.5099 196.855 92.4638 196.718 92.1311 195.904C92.0498 195.709 92.0182 195.497 92.0392 195.287C92.0603 195.077 92.1333 194.876 92.2516 194.701C92.5231 194.263 92.9763 194.157 93.311 193.802C93.3814 193.731 93.4321 193.642 93.4581 193.545C93.4842 193.448 93.4847 193.345 93.4596 193.248C93.4345 193.15 93.3846 193.061 93.315 192.989C93.2453 192.917 93.1583 192.865 93.0624 192.837L93.0567 192.847ZM90.5381 163.533C90.9397 162.568 91.9112 161.832 92.9572 162.342C93.8139 162.761 93.8713 163.753 94.6324 164.226C94.8197 164.333 95.0411 164.362 95.2493 164.307C95.4575 164.251 95.6362 164.116 95.7473 163.93C96.7264 162.311 94.4087 160.582 93.0089 160.39C91.2419 160.151 89.6719 161.282 89.0484 162.9C88.7176 163.76 90.1767 164.391 90.5381 163.533ZM112.61 171.313C111.539 172.878 113.067 175.127 114.876 174.822C115.284 174.744 115.663 174.552 115.969 174.268C116.275 173.984 116.496 173.62 116.607 173.216C116.846 172.38 116.683 171.178 115.63 171.122C115.501 171.123 115.375 171.165 115.272 171.244C115.169 171.322 115.093 171.431 115.056 171.556C115.022 171.627 114.993 171.7 114.968 171.774C114.944 171.917 114.944 172.063 114.968 172.206C114.99 172.334 114.971 172.466 114.914 172.583C114.87 172.662 114.816 172.735 114.754 172.801C114.622 172.944 114.599 172.957 114.52 172.976C114.442 172.996 114.291 172.942 114.18 172.783C114.113 172.701 114.067 172.603 114.049 172.498C114.03 172.392 114.038 172.284 114.073 172.183C114.58 171.189 113.22 170.404 112.597 171.313H112.61ZM125.388 157.107C125.268 156.397 125.721 155.598 126.436 155.434C127.228 155.241 127.79 155.65 128.316 156.194C128.393 156.268 128.491 156.315 128.596 156.327C128.701 156.34 128.808 156.317 128.899 156.264C128.991 156.21 129.063 156.128 129.104 156.029C129.146 155.931 129.154 155.821 129.129 155.718C128.758 154.396 127.113 153.701 125.868 154.123C124.482 154.596 123.803 156.09 124.048 157.48C124.204 158.37 125.539 157.989 125.386 157.107H125.388ZM153.297 173.606C153.235 173.745 153.162 173.88 153.08 174.009C152.419 175.065 151.203 175.607 149.984 175.594C148.948 175.58 147.651 175.146 147.284 174.079C147.125 173.621 147.621 173.146 148.066 173.289C148.738 173.507 149.233 173.93 149.979 173.824C150.267 173.785 150.542 173.677 150.78 173.509C151.018 173.341 151.214 173.118 151.35 172.859C151.604 172.326 151.482 171.701 151.212 171.207C150.898 170.628 150.256 170.328 150.076 169.688C150.047 169.567 150.042 169.442 150.063 169.32C150.084 169.198 150.13 169.082 150.199 168.979C150.39 169.23 150.581 169.479 150.772 169.722C151.72 170.943 152.564 172.242 153.297 173.606ZM180.734 194.153C180.138 194.826 179.533 195.493 178.92 196.155C178.79 195.788 178.596 195.448 178.346 195.151C177.526 194.155 176.587 193.972 175.378 193.929C174.554 193.899 174.213 192.771 174.953 192.339C176.552 191.391 178.711 192.146 179.998 193.304C180.275 193.558 180.522 193.843 180.734 194.153ZM157.056 200.945C159.294 200.752 159.626 197.971 159.427 196.168C159.315 195.14 158.815 194.128 157.75 193.852C156.825 193.613 155.677 194.045 155.469 195.059C155.41 195.354 155.446 195.746 155.702 195.948L155.804 196.029C155.922 196.138 156.072 196.208 156.231 196.229C156.39 196.25 156.552 196.22 156.695 196.145C156.928 196.031 157.077 195.653 157.33 195.634C157.865 195.595 157.903 196.722 157.919 197.07C157.947 197.724 157.972 199.442 157.056 199.559C156.205 199.669 156.161 201.019 157.056 200.943V200.945ZM193 176.84C192.698 177.561 192.368 178.269 192.011 178.964C189.646 179.079 188.693 181.822 188.168 183.82C187.976 184.536 187.097 184.543 186.712 184.013C185.433 182.239 186.383 179.959 187.779 178.57C188.448 177.879 189.271 177.362 190.18 177.061C191.089 176.76 192.056 176.684 193 176.84ZM121.407 219.036C121.625 216.602 124.22 216.78 125.794 217.706C126.484 218.113 127.075 217.332 126.799 216.691C126.035 214.89 124.078 214.315 122.317 214.965C121.487 215.275 120.767 215.828 120.251 216.553C119.735 217.278 119.445 218.143 119.42 219.036C119.355 220.339 121.292 220.304 121.407 219.036Z" fill="#F7CA75"/>
<path d="M79.8512 178.3C79.5472 179.527 77.9529 179.005 78.1827 177.781C78.5446 175.835 76.6663 173.877 74.9797 174.533C74.5089 174.733 74.0876 175.057 73.751 175.479C73.4922 174.623 73.2389 173.754 73 172.879C73.6184 172.407 74.3299 172.114 75.072 172.025C78.0198 171.677 80.6637 175.058 79.8512 178.3Z" fill="#EDB659"/>
<path d="M117.092 133.242C121.338 131.096 124.528 127.159 125.419 122.277C125.742 120.507 125.79 118.708 125.886 116.918C125.994 114.897 126.446 114.194 124.296 113.814C120.902 113.215 117.403 112.82 113.957 113.082C110.587 113.337 107.106 113.922 103.773 114.566C101.872 114.932 100.053 115.756 98.1325 116.176C98.0534 118.008 98.31 119.836 98.1884 121.674C98.0669 123.512 97.4918 125.415 96.0888 126.596C95.2629 127.292 100.456 131.562 100.913 131.853C103.943 133.78 107.249 135.25 110.917 134.965C113.068 134.798 115.166 134.213 117.092 133.242Z" fill="white"/>
<path d="M98.7143 116.04C96.7246 115.074 94.6223 114.727 92.4857 114.226C91.5326 114.008 90.5956 113.722 89.6814 113.372C88.7409 113.004 87.9206 112.374 86.9782 112.034C86.4498 111.841 85.9862 112.519 86.2629 112.976C87.2491 114.613 89.6375 115.294 91.3659 115.718C93.6551 116.27 96.0016 116.502 98.2774 117.091C98.8784 117.247 99.3114 116.334 98.7143 116.04ZM97.1099 125.928C95.4674 126.456 93.8402 126.962 92.1366 127.254C91.2533 127.406 90.3612 127.499 89.4659 127.534C88.6703 127.565 87.4723 127.727 86.7817 127.31C86.2819 127.014 85.7211 127.717 86.156 128.131C87.5219 129.436 89.6604 128.953 91.3487 128.697C93.4586 128.376 95.5609 127.731 97.4152 126.655C97.7967 126.435 97.543 125.789 97.1119 125.928H97.1099Z" fill="white"/>
<path d="M302.984 216H198.016C196.35 216 195 217.414 195 219.158V219.842C195 221.586 196.35 223 198.016 223H302.984C304.65 223 306 221.586 306 219.842V219.158C306 217.414 304.65 216 302.984 216Z" fill="#22396D"/>
<path d="M351.857 136.055L332.674 206.064C332.443 206.906 331.943 207.649 331.251 208.18C330.559 208.71 329.713 208.998 328.842 209H215.974C215.362 208.999 214.758 208.856 214.21 208.583C213.661 208.309 213.183 207.913 212.813 207.423C212.442 206.934 212.189 206.366 212.072 205.763C211.956 205.159 211.98 204.537 212.143 203.945L214.315 196.016L231.326 133.936C231.558 133.094 232.057 132.351 232.749 131.821C233.441 131.29 234.287 131.002 235.158 131H348.018C348.631 131 349.236 131.142 349.785 131.415C350.334 131.688 350.813 132.084 351.185 132.573C351.557 133.063 351.811 133.631 351.927 134.235C352.044 134.839 352.02 135.462 351.857 136.055Z" fill="#5B6DAB"/>
<path opacity="0.85" d="M351.857 136.059L332.69 206.064C332.459 206.906 331.96 207.649 331.268 208.18C330.577 208.71 329.732 208.998 328.862 209H216.095C215.501 209.002 214.915 208.869 214.379 208.612C213.843 208.355 213.372 207.98 213 207.516C217.001 207.823 221.177 207.391 225.105 206.687C244.691 203.18 263.649 194.188 277.088 179.456C289.003 166.394 296.149 148.59 295.226 131H348.021C348.633 131 349.238 131.142 349.787 131.415C350.336 131.688 350.815 132.085 351.187 132.575C351.558 133.064 351.812 133.634 351.928 134.238C352.044 134.842 352.02 135.466 351.857 136.059Z" fill="#49519A"/>
<path opacity="0.49" d="M351.857 136.055L332.674 206.064C332.443 206.906 331.943 207.649 331.251 208.18C330.559 208.71 329.713 208.998 328.842 209H215.974C215.362 208.999 214.758 208.855 214.21 208.582C213.662 208.308 213.184 207.912 212.813 207.423C212.442 206.934 212.189 206.366 212.073 205.762C211.956 205.159 211.98 204.537 212.142 203.945L214.315 196.016C219.959 195.843 225.601 195.218 231.193 194.386C247.817 191.916 264.128 187.658 279.843 181.685C293.701 176.416 307.317 169.641 317.822 159.152C325.501 151.487 331.346 141.565 333.39 131H348.026C348.638 131.001 349.242 131.144 349.79 131.417C350.339 131.691 350.817 132.087 351.187 132.577C351.558 133.066 351.811 133.634 351.928 134.237C352.044 134.841 352.02 135.463 351.857 136.055Z" fill="#39437F"/>
<path d="M304.861 162.275L288.298 217.634C288.093 218.318 287.674 218.918 287.103 219.344C286.532 219.77 285.84 220 285.128 220H267.314C266.798 220.001 266.289 219.88 265.827 219.648C265.366 219.416 264.965 219.079 264.656 218.664C264.348 218.248 264.14 217.766 264.051 217.256C263.961 216.746 263.991 216.222 264.139 215.725L280.699 160.368C280.904 159.683 281.323 159.083 281.895 158.657C282.466 158.23 283.16 158 283.872 158H301.686C302.202 157.999 302.711 158.12 303.173 158.352C303.634 158.584 304.035 158.921 304.344 159.336C304.652 159.752 304.86 160.234 304.949 160.744C305.039 161.254 305.009 161.778 304.861 162.275Z" fill="#5B6DAB"/>
<path d="M303.744 161.131C302.768 164.391 301.792 167.65 300.816 170.91L294.583 191.722C292.675 198.096 290.766 204.469 288.857 210.842C288.374 212.458 287.89 214.074 287.405 215.69C287.267 216.152 287.158 216.596 286.848 216.987C286.095 217.932 284.98 217.815 283.919 217.815H269.083C268.317 217.815 267.323 217.953 266.593 217.679C264.508 216.897 265.274 214.862 265.73 213.338L267.574 207.179C269.585 200.459 271.597 193.74 273.61 187.02L279.585 167.065L281.355 161.156C281.782 159.725 282.142 158.276 284.025 158.247C289.781 158.178 295.546 158.222 301.305 158.247C302.911 158.247 304.195 159.424 303.75 161.127C303.396 162.484 305.489 163.062 305.842 161.703C306.021 161.047 306.048 160.359 305.922 159.692C305.795 159.024 305.518 158.394 305.112 157.85C304.705 157.306 304.18 156.863 303.576 156.553C302.972 156.244 302.306 156.077 301.628 156.066C300.862 156.041 300.083 156.066 299.311 156.066H288.263C285.503 156.066 281.696 155.406 280.07 158.264C279.471 159.314 279.227 160.668 278.885 161.812C277.128 167.679 275.371 173.545 273.614 179.41C271.404 186.797 269.193 194.184 266.98 201.569C265.722 205.768 264.426 209.955 263.209 214.163C262.788 215.617 262.987 217.126 263.945 218.329C264.977 219.627 266.434 219.982 268.011 219.982H283.111C283.94 219.982 284.8 220.042 285.628 219.942C287.455 219.725 288.824 218.435 289.364 216.707C289.504 216.26 289.634 215.809 289.768 215.363C291.365 210.034 292.961 204.703 294.556 199.371L301.276 176.933C302.721 172.103 304.168 167.272 305.616 162.44L305.834 161.708C306.24 160.366 304.145 159.792 303.744 161.131Z" fill="#22396D"/>
<path opacity="0.49" d="M304.859 162.371L288.351 217.638C288.147 218.321 287.729 218.92 287.16 219.345C286.591 219.771 285.901 220 285.192 220H267.743C267.68 219.846 267.619 219.694 267.552 219.538C282.47 201.924 292.675 180.778 297.205 158.096H301.685C302.201 158.093 302.711 158.212 303.173 158.444C303.634 158.675 304.036 159.012 304.345 159.428C304.653 159.844 304.861 160.327 304.95 160.838C305.04 161.349 305.008 161.874 304.859 162.371ZM239.067 138.74C239.744 139.959 241.85 139.653 243.014 139.703C244.689 139.763 246.365 139.743 248.04 139.749C251.331 139.759 254.62 139.791 257.911 139.799C264.611 139.817 271.312 139.877 278.013 139.98C279.866 140.009 281.721 140.061 283.565 140.036L286.256 140.001C287.244 139.99 288.196 140.04 289.069 139.509C289.21 139.423 289.326 139.302 289.407 139.158C289.489 139.013 289.531 138.85 289.531 138.685C289.531 138.519 289.489 138.356 289.407 138.212C289.326 138.067 289.21 137.946 289.069 137.861C287.729 136.977 285.646 137.252 284.104 137.181C282.429 137.104 280.754 137.085 279.079 137.068C275.669 137.03 272.259 137.009 268.85 137.004C261.969 136.985 255.09 137.032 248.212 137.147C246.298 137.181 244.383 137.193 242.469 137.324C241.64 137.38 240.533 137.281 239.773 137.664C239.446 137.83 238.802 138.286 239.059 138.748L239.067 138.74Z" fill="#39437F"/>
<path d="M336 228.505C336.002 229.49 335.806 230.466 335.422 231.376C335.039 232.286 334.477 233.112 333.768 233.808C333.516 234.055 333.248 234.285 332.965 234.497C331.646 235.475 330.038 236.002 328.386 235.999H28.7399C27.7293 236.015 26.7256 235.832 25.7873 235.463C24.849 235.093 23.9948 234.543 23.2745 233.845C22.5541 233.147 21.9821 232.315 21.5916 231.398C21.2011 230.48 21 229.495 21 228.5C21 227.505 21.2011 226.52 21.5916 225.602C21.9821 224.685 22.5541 223.853 23.2745 223.155C23.9948 222.457 24.849 221.907 25.7873 221.537C26.7256 221.168 27.7293 220.985 28.7399 221.001H328.381C329.382 221.001 330.373 221.195 331.298 221.572C332.222 221.949 333.063 222.502 333.77 223.198C334.478 223.895 335.039 224.723 335.422 225.633C335.804 226.544 336.001 227.519 336 228.505Z" fill="#926A82"/>
<path opacity="0.5" d="M333 229.006V235.398C331.68 236.441 330.072 237.003 328.419 237H28.6232C26.6014 237 24.6624 236.157 23.2328 234.657C21.8032 233.157 21 231.122 21 229L333 229.006Z" fill="#741648"/>
<path opacity="0.4" d="M121.93 98.06C121.794 100.031 121.557 102.068 121.835 104C121.726 103.772 121.624 103.541 121.525 103.311C120.655 101.292 119.982 99.1929 119.515 97.0423C119.248 95.8207 119.039 94.5613 118.466 93.4548C117.16 90.9474 113.907 89.6918 111.289 90.6888L111.119 90.1846L111 89.8315C111.489 89.5729 111.974 89.2122 112.42 88.9158C114.846 87.3147 118.44 87.8698 120.29 90.1374C122.029 92.271 122.12 95.2977 121.93 98.06Z" fill="#531838"/>
<path opacity="0.4" d="M110.977 90.4744C110.833 90.4543 110.688 90.4433 110.542 90.4416C106.652 90.4146 107.536 97.6181 107.567 100.367C107.608 103.961 106.979 105.598 104.959 108.536C104.363 109.406 103.709 110.229 103 111C103.257 110.595 103.494 110.175 103.708 109.743C105.034 107.04 105.165 103.858 104.708 100.862C104.245 97.8286 103.243 94.5425 104.631 91.8356C105.769 89.6172 108.517 88.4626 110.804 89.2445C111.005 89.538 111.027 89.9801 110.977 90.4744Z" fill="#531838"/>
</g>
<path d="M0.15 10C0.15 4.55999 4.56 0.15 10 0.15H353C358.44 0.15 362.85 4.56 362.85 10V232.85H0.15V10Z" stroke="#A09EEF" stroke-width="0.3"/>
<defs>
<filter id="filter0_d_17484_22308" x="-9" y="-8" width="381" height="251" filterUnits="userSpaceOnUse" color-interpolation-filters="sRGB">
<feFlood flood-opacity="0" result="BackgroundImageFix"/>
<feColorMatrix in="SourceAlpha" type="matrix" values="0 0 0 0 0 0 0 0 0 0 0 0 0 0 0 0 0 0 127 0" result="hardAlpha"/>
<feOffset dy="1"/>
<feGaussianBlur stdDeviation="4.5"/>
<feComposite in2="hardAlpha" operator="out"/>
<feColorMatrix type="matrix" values="0 0 0 0 0 0 0 0 0 0 0 0 0 0 0 0 0 0 0.1 0"/>
<feBlend mode="normal" in2="BackgroundImageFix" result="effect1_dropShadow_17484_22308"/>
<feBlend mode="normal" in="SourceGraphic" in2="effect1_dropShadow_17484_22308" result="shape"/>
</filter>
<clipPath id="clip0_17484_22308">
<path d="M0 10C0 4.47715 4.47715 0 10 0H353C358.523 0 363 4.47715 363 10V233H0V10Z" fill="white"/>
</clipPath>
</defs>
</svg>
